<?xml version="1.0" encoding="utf-8"?>
<!-- Generator: Adobe Illustrator 28.3.0, SVG Export Plug-In . SVG Version: 6.00 Build 0)  -->
<svg version="1.1" id="Layer_1" xmlns="http://www.w3.org/2000/svg" xmlns:xlink="http://www.w3.org/1999/xlink" x="0px" y="0px"
	 viewBox="0 0 333 190.8" style="enable-background:new 0 0 333 190.8;" xml:space="preserve">
<style type="text/css">
	.st0{fill:#B4AAB0;}
	.st1{fill:#0A19B2;}
</style>
<g transform="rotate(0 118.6074 307.4283)">
	<g transform="matrix(1 0 0 1 0 0)">
		<g>
			<circle class="st0" cx="160.3" cy="2.5" r="2.5"/>
			<circle class="st0" cx="160.3" cy="14.9" r="2.9"/>
			<circle class="st0" cx="160.3" cy="27.3" r="3.2"/>
			<circle class="st0" cx="160.3" cy="39.7" r="3.6"/>
			<circle class="st0" cx="160.3" cy="52" r="4"/>
			<circle class="st0" cx="160.3" cy="64.5" r="4.4"/>
			<circle class="st0" cx="160.3" cy="76.9" r="4.8"/>
			<circle class="st0" cx="148.1" cy="2.5" r="2.5"/>
			<circle class="st0" cx="148.1" cy="14.9" r="2.9"/>
			<circle class="st0" cx="148.1" cy="27.3" r="3.2"/>
			<circle class="st0" cx="148.1" cy="39.7" r="3.6"/>
			<circle class="st0" cx="148.1" cy="52" r="4"/>
			<circle class="st0" cx="148.1" cy="64.5" r="4.4"/>
			<circle class="st0" cx="148.1" cy="188.4" r="2.5"/>
			<circle class="st0" cx="148.1" cy="176.2" r="2.9"/>
			<circle class="st0" cx="148.1" cy="163.8" r="3.2"/>
			<circle class="st0" cx="148.1" cy="151.3" r="3.6"/>
			<circle class="st0" cx="148.1" cy="138.9" r="4"/>
			<circle class="st0" cx="148.1" cy="126.5" r="4.4"/>
			<circle class="st0" cx="160.3" cy="188.4" r="2.5"/>
			<circle class="st0" cx="160.3" cy="176.2" r="2.9"/>
			<circle class="st0" cx="160.3" cy="163.8" r="3.2"/>
			<circle class="st0" cx="160.3" cy="151.3" r="3.6"/>
			<circle class="st0" cx="160.3" cy="138.9" r="4"/>
			<circle class="st0" cx="160.3" cy="126.5" r="4.4"/>
			<circle class="st0" cx="148.1" cy="76.9" r="4.8"/>
			<circle class="st0" cx="160.3" cy="88.7" r="4.8"/>
			<circle class="st0" cx="148.1" cy="88.7" r="4.8"/>
			<circle class="st0" cx="160.3" cy="100.4" r="4.8"/>
			<circle class="st0" cx="148.1" cy="100.4" r="4.8"/>
			<circle class="st0" cx="160.3" cy="113.1" r="4.8"/>
			<circle class="st0" cx="172.6" cy="2.5" r="2.5"/>
			<circle class="st0" cx="172.5" cy="14.9" r="2.9"/>
			<circle class="st0" cx="172.5" cy="27.3" r="3.2"/>
			<circle class="st0" cx="172.5" cy="39.7" r="3.6"/>
			<circle class="st0" cx="172.5" cy="52" r="4"/>
			<circle class="st0" cx="172.5" cy="64.5" r="4.4"/>
			<circle class="st0" cx="172.5" cy="76.9" r="4.8"/>
			<circle class="st0" cx="172.6" cy="188.4" r="2.5"/>
			<circle class="st0" cx="172.5" cy="176.2" r="2.9"/>
			<circle class="st0" cx="172.5" cy="163.8" r="3.2"/>
			<circle class="st0" cx="172.5" cy="151.3" r="3.6"/>
			<circle class="st0" cx="172.5" cy="138.9" r="4"/>
			<circle class="st0" cx="172.5" cy="126.5" r="4.4"/>
			<circle class="st0" cx="172.5" cy="88.7" r="4.8"/>
			<circle class="st0" cx="172.5" cy="100.4" r="4.8"/>
			<circle class="st0" cx="172.5" cy="113.1" r="4.8"/>
			<circle class="st0" cx="185.3" cy="176.2" r="2.9"/>
			<circle class="st0" cx="185.2" cy="163.8" r="3.2"/>
			<circle class="st0" cx="185.2" cy="151.3" r="3.6"/>
			<circle class="st0" cx="185.2" cy="138.9" r="4"/>
			<circle class="st0" cx="197.5" cy="89.1" r="4"/>
			<circle class="st0" cx="209.8" cy="89.1" r="3.7"/>
			<circle class="st0" cx="222.2" cy="89.1" r="3.4"/>
			<circle class="st0" cx="234.6" cy="89.1" r="3.1"/>
			<circle class="st0" cx="247" cy="89.1" r="2.8"/>
			<circle class="st0" cx="259.4" cy="89.1" r="2.5"/>
			<circle class="st0" cx="271.7" cy="89.1" r="2.2"/>
			<circle class="st0" cx="284.1" cy="89.1" r="1.8"/>
			<circle class="st0" cx="296.5" cy="89.1" r="1.5"/>
			<circle class="st0" cx="308.9" cy="89.1" r="1.2"/>
			<path class="st0" d="M124,97.4c2.2,0,4,1.8,4,4c0,2.2-1.8,4-4,4s-4-1.8-4-4C120,99.2,121.8,97.4,124,97.4z"/>
			<circle class="st0" cx="111.6" cy="101.4" r="3.7"/>
			<circle class="st0" cx="98.7" cy="101.4" r="2.5"/>
			<circle class="st0" cx="86.4" cy="101.4" r="2.2"/>
			<circle class="st0" cx="74" cy="101.4" r="1.8"/>
			<circle class="st0" cx="61.6" cy="101.4" r="1.5"/>
			<circle class="st0" cx="49.2" cy="101.4" r="1.2"/>
			<circle class="st0" cx="197.6" cy="113.5" r="3.7"/>
			<circle class="st0" cx="210" cy="113.5" r="3.4"/>
			<circle class="st0" cx="222.4" cy="113.5" r="3.1"/>
			<circle class="st0" cx="234.8" cy="113.5" r="2.8"/>
			<circle class="st0" cx="247.1" cy="113.5" r="2.5"/>
			<circle class="st0" cx="259.5" cy="113.5" r="2.2"/>
			<circle class="st0" cx="271.9" cy="113.5" r="1.8"/>
			<circle class="st0" cx="284.3" cy="113.5" r="1.5"/>
			<circle class="st0" cx="296.7" cy="113.5" r="1.2"/>
			<circle class="st0" cx="197.6" cy="125.2" r="3.7"/>
			<circle class="st0" cx="210" cy="125.2" r="3.4"/>
			<circle class="st0" cx="222.4" cy="125.2" r="3.1"/>
			<path class="st0" d="M237.5,125.2c0,1.5-1.2,2.8-2.8,2.8c-1.5,0-2.8-1.2-2.8-2.8c0-1.5,1.2-2.8,2.8-2.8
				C236.3,122.5,237.5,123.7,237.5,125.2z"/>
			<circle class="st0" cx="247.1" cy="125.2" r="2.5"/>
			<circle class="st0" cx="259.5" cy="125.2" r="2.2"/>
			<circle class="st0" cx="271.9" cy="125.2" r="1.8"/>
			<circle class="st0" cx="284.3" cy="125.2" r="1.5"/>
			<circle class="st0" cx="296.7" cy="125.2" r="1.2"/>
			<circle class="st0" cx="197.9" cy="138.9" r="2.2"/>
			<circle class="st0" cx="210.3" cy="138.9" r="1.8"/>
			<circle class="st0" cx="222.7" cy="138.9" r="1.5"/>
			<circle class="st0" cx="235.1" cy="138.9" r="1.2"/>
			<circle class="st0" cx="197.9" cy="151.7" r="2.2"/>
			<circle class="st0" cx="210.3" cy="151.7" r="1.8"/>
			<circle class="st0" cx="222.7" cy="151.7" r="1.5"/>
			<circle class="st0" cx="235.1" cy="151.7" r="1.2"/>
			<circle class="st0" cx="197.9" cy="163.9" r="2.2"/>
			<circle class="st0" cx="210.3" cy="163.9" r="1.8"/>
			<circle class="st0" cx="222.7" cy="163.9" r="1.5"/>
			<circle class="st0" cx="235.1" cy="163.9" r="1.2"/>
			<path class="st0" d="M200.1,176.1c0,1.2-1,2.2-2.2,2.2s-2.2-1-2.2-2.2c0-1.2,1-2.1,2.2-2.1S200.1,174.9,200.1,176.1z"/>
			<path class="st0" d="M212.1,176.1c0,1-0.8,1.9-1.8,1.9c-1,0-1.8-0.8-1.8-1.9c0-1,0.8-1.8,1.8-1.8
				C211.3,174.3,212.1,175.1,212.1,176.1z"/>
			<path class="st0" d="M224.2,176.1c0,0.9-0.7,1.5-1.5,1.5c-0.8,0-1.5-0.7-1.5-1.5c0-0.8,0.7-1.5,1.5-1.5
				C223.5,174.6,224.2,175.3,224.2,176.1z"/>
			<circle class="st0" cx="135.9" cy="188.4" r="2.5"/>
			<circle class="st0" cx="123.2" cy="188.4" r="1.8"/>
			<circle class="st0" cx="110.8" cy="188.4" r="1.5"/>
			<circle class="st0" cx="98.5" cy="188.4" r="1.2"/>
			<circle class="st0" cx="197.5" cy="100.8" r="4"/>
			<circle class="st0" cx="209.8" cy="100.8" r="3.7"/>
			<circle class="st0" cx="222.2" cy="100.8" r="3.4"/>
			<circle class="st0" cx="234.6" cy="100.8" r="3.1"/>
			<circle class="st0" cx="247" cy="100.8" r="2.8"/>
			<circle class="st0" cx="259.4" cy="100.8" r="2.5"/>
			<circle class="st0" cx="271.7" cy="100.8" r="2.2"/>
			<circle class="st0" cx="284.1" cy="100.8" r="1.8"/>
			<circle class="st0" cx="296.5" cy="100.8" r="1.5"/>
			<circle class="st0" cx="185.2" cy="126.5" r="4.4"/>
			<circle class="st0" cx="185.2" cy="88.7" r="4.8"/>
			<circle class="st0" cx="197.5" cy="76.8" r="4"/>
			<circle class="st0" cx="209.8" cy="76.8" r="3.7"/>
			<circle class="st0" cx="222.2" cy="76.8" r="3.4"/>
			<circle class="st0" cx="234.6" cy="76.8" r="3.1"/>
			<circle class="st0" cx="247" cy="76.8" r="2.8"/>
			<circle class="st0" cx="259.4" cy="76.8" r="2.5"/>
			<path class="st0" d="M273.9,76.8c0,1.2-1,2.2-2.2,2.2c-1.2,0-2.2-1-2.2-2.2c0-1.2,1-2.2,2.2-2.2
				C272.9,74.7,273.9,75.7,273.9,76.8z"/>
			<circle class="st0" cx="284.1" cy="76.8" r="1.8"/>
			<circle class="st0" cx="296.5" cy="76.8" r="1.5"/>
			<circle class="st0" cx="308.9" cy="76.8" r="1.2"/>
			<circle class="st0" cx="123.7" cy="76.4" r="3.1"/>
			<circle class="st0" cx="111.3" cy="76.4" r="2.8"/>
			<circle class="st0" cx="98.9" cy="76.4" r="2.5"/>
			<circle class="st0" cx="86.5" cy="76.4" r="2.2"/>
			<circle class="st0" cx="74.1" cy="76.4" r="1.8"/>
			<circle class="st0" cx="61.8" cy="76.4" r="1.5"/>
			<circle class="st0" cx="49.4" cy="76.3" r="1.2"/>
			<circle class="st0" cx="123.4" cy="27" r="1.9"/>
			<circle class="st0" cx="111" cy="27" r="1.5"/>
			<circle class="st0" cx="98.7" cy="27" r="1.2"/>
			<circle class="st0" cx="123.4" cy="39.7" r="2.2"/>
			<circle class="st0" cx="111" cy="39.7" r="1.5"/>
			<circle class="st0" cx="98.7" cy="39.7" r="1.2"/>
			<circle class="st0" cx="123.7" cy="15.2" r="1.5"/>
			<path class="st0" d="M185.2,68.6c-2.2,0-4-1.8-4-4c0-2.2,1.8-4,4-4c2.2,0,4,1.8,4,4C189.2,66.8,187.4,68.6,185.2,68.6z"/>
			<circle class="st0" cx="197.6" cy="64.6" r="3.7"/>
			<circle class="st0" cx="210" cy="64.6" r="3.4"/>
			<circle class="st0" cx="185.2" cy="52" r="4"/>
			<circle class="st0" cx="197.6" cy="52" r="3.7"/>
			<circle class="st0" cx="210" cy="52" r="3.4"/>
			<circle class="st0" cx="222.4" cy="64.6" r="3.1"/>
			<path class="st0" d="M237.5,64.6c0,1.5-1.2,2.8-2.8,2.8c-1.5,0-2.8-1.3-2.8-2.8c0-1.5,1.2-2.8,2.8-2.8
				C236.3,61.8,237.5,63.1,237.5,64.6z"/>
			<circle class="st0" cx="185" cy="39.7" r="3.4"/>
			<circle class="st0" cx="197.4" cy="39.7" r="3.1"/>
			<circle class="st0" cx="209.8" cy="39.7" r="2.8"/>
			<circle class="st0" cx="247.1" cy="64.6" r="2.5"/>
			<circle class="st0" cx="259.5" cy="64.6" r="2.2"/>
			<circle class="st0" cx="222.4" cy="52" r="2.2"/>
			<circle class="st0" cx="271.9" cy="64.6" r="1.8"/>
			<circle class="st0" cx="234.7" cy="52" r="1.8"/>
			<circle class="st0" cx="284.3" cy="64.6" r="1.5"/>
			<circle class="st0" cx="296.7" cy="64.6" r="1.2"/>
			<circle class="st0" cx="246.8" cy="52" r="1.2"/>
			<circle class="st0" cx="123.1" cy="52" r="3.7"/>
			<circle class="st0" cx="110.7" cy="52" r="3.4"/>
			<circle class="st0" cx="98.3" cy="52" r="2.2"/>
			<circle class="st0" cx="85.9" cy="52" r="1.8"/>
			<circle class="st0" cx="73.9" cy="52" r="1.2"/>
			<circle class="st0" cx="123.1" cy="64.7" r="3.7"/>
			<circle class="st0" cx="110.7" cy="64.7" r="3.4"/>
			<circle class="st0" cx="98.3" cy="64.7" r="2.2"/>
			<circle class="st0" cx="85.9" cy="64.7" r="1.8"/>
			<circle class="st0" cx="73.9" cy="64.7" r="1.2"/>
			<circle class="st0" cx="185.5" cy="27" r="3.4"/>
			<path class="st0" d="M200.1,27c0,1.2-1,2.2-2.2,2.2s-2.2-1-2.2-2.2c0-1.2,1-2.2,2.2-2.2S200.1,25.9,200.1,27z"/>
			<circle class="st0" cx="210.3" cy="27" r="1.8"/>
			<circle class="st0" cx="222.3" cy="27" r="1.2"/>
			<circle class="st0" cx="184.9" cy="15.3" r="1.8"/>
			<circle class="st0" cx="196.9" cy="15.3" r="1.2"/>
			<circle class="st0" cx="185.2" cy="76.4" r="4.8"/>
			<circle class="st0" cx="185.2" cy="100.4" r="4.8"/>
			<circle class="st0" cx="185.2" cy="113.1" r="4.8"/>
			<circle class="st0" cx="148.1" cy="113.1" r="4.8"/>
			<circle class="st0" cx="135.9" cy="14.9" r="2.9"/>
			<circle class="st0" cx="135.9" cy="27.3" r="3.2"/>
			<circle class="st0" cx="123.4" cy="175.6" r="1.9"/>
			<circle class="st0" cx="111" cy="175.6" r="1.5"/>
			<circle class="st0" cx="98.7" cy="175.6" r="1.2"/>
			<circle class="st0" cx="135.9" cy="175.9" r="3.2"/>
			<circle class="st0" cx="135.9" cy="39.7" r="3.6"/>
			<circle class="st0" cx="135.9" cy="52" r="4"/>
			<path class="st0" d="M119.4,162.5c0-2,1.7-3.7,3.7-3.7c2,0,3.7,1.7,3.7,3.7c0,2-1.7,3.7-3.7,3.7
				C121,166.2,119.4,164.5,119.4,162.5z"/>
			<path class="st0" d="M107.3,162.5c0-1.9,1.5-3.4,3.4-3.4c1.9,0,3.4,1.5,3.4,3.4c0,1.9-1.5,3.4-3.4,3.4
				C108.8,165.9,107.3,164.4,107.3,162.5z"/>
			<path class="st0" d="M96.2,162.5c0-1.2,1-2.1,2.2-2.1c1.2,0,2.2,1,2.2,2.1c0,1.2-1,2.2-2.2,2.2C97.1,164.6,96.2,163.7,96.2,162.5
				z"/>
			<path class="st0" d="M84.1,162.5c0-1,0.8-1.8,1.8-1.8c1,0,1.8,0.8,1.8,1.8c0,1-0.8,1.9-1.8,1.9C84.9,164.3,84.1,163.5,84.1,162.5
				z"/>
			<path class="st0" d="M73.9,161.3c0.7,0,1.2,0.5,1.2,1.2c0,0.7-0.6,1.2-1.2,1.2c-0.7,0-1.2-0.5-1.2-1.2
				C72.6,161.8,73.2,161.3,73.9,161.3z"/>
			<path class="st0" d="M135.9,158.5c-2.2,0-4,1.8-4,4c0,2.2,1.8,4,4,4c2.2,0,4-1.8,4-4C139.9,160.3,138.1,158.5,135.9,158.5z"/>
			<circle class="st0" cx="135.9" cy="64.5" r="4.4"/>
			<circle class="st0" cx="123.1" cy="88.7" r="3.7"/>
			<circle class="st0" cx="110.7" cy="88.7" r="3.4"/>
			<circle class="st0" cx="98.3" cy="88.7" r="2.2"/>
			<circle class="st0" cx="85.9" cy="88.7" r="1.8"/>
			<circle class="st0" cx="73.9" cy="88.7" r="1.2"/>
			<path class="st0" d="M135.9,84.1c-2.4,0-4.4,2-4.4,4.4c0,2.4,2,4.4,4.4,4.4c2.4,0,4.4-2,4.4-4.4
				C140.3,86.1,138.3,84.1,135.9,84.1z"/>
			<circle class="st0" cx="135.9" cy="76.9" r="4.8"/>
			<circle class="st0" cx="135.9" cy="101.4" r="4.8"/>
			<circle class="st0" cx="124" cy="113.7" r="4"/>
			<circle class="st0" cx="111.6" cy="113.6" r="3.7"/>
			<circle class="st0" cx="98.7" cy="113.6" r="2.5"/>
			<circle class="st0" cx="86.4" cy="113.6" r="2.2"/>
			<circle class="st0" cx="74" cy="113.6" r="1.8"/>
			<circle class="st0" cx="61.6" cy="113.6" r="1.5"/>
			<circle class="st0" cx="49.2" cy="113.7" r="1.2"/>
			<circle class="st0" cx="36.5" cy="113.6" r="1"/>
			<circle class="st0" cx="23.8" cy="113.7" r="0.9"/>
			<circle class="st0" cx="135.9" cy="113.6" r="4.8"/>
			<circle class="st0" cx="124" cy="125.9" r="4"/>
			<circle class="st0" cx="111.6" cy="125.9" r="3.7"/>
			<path class="st0" d="M96.3,125.9c0-1.4,1.1-2.5,2.5-2.5c1.4,0,2.5,1.1,2.5,2.5c0,1.4-1.1,2.5-2.5,2.5
				C97.4,128.3,96.3,127.2,96.3,125.9z"/>
			<path class="st0" d="M84.2,125.9c0-1.2,1-2.2,2.2-2.2c1.2,0,2.2,1,2.2,2.2c0,1.2-1,2.1-2.2,2.1C85.2,128,84.2,127.1,84.2,125.9z"
				/>
			<circle class="st0" cx="74" cy="125.9" r="1.8"/>
			<circle class="st0" cx="61.6" cy="125.9" r="1.5"/>
			<circle class="st0" cx="49.2" cy="125.9" r="1.2"/>
			<circle class="st0" cx="36.5" cy="125.9" r="1"/>
			<circle class="st0" cx="23.8" cy="125.9" r="0.9"/>
			<circle class="st0" cx="247.4" cy="139.1" r="0.9"/>
			<circle class="st0" cx="247.4" cy="151.3" r="0.9"/>
			<circle class="st0" cx="135.9" cy="138.6" r="4"/>
			<circle class="st0" cx="123.8" cy="138.6" r="3.7"/>
			<circle class="st0" cx="111" cy="138.6" r="2.5"/>
			<circle class="st0" cx="98.6" cy="138.6" r="2.2"/>
			<circle class="st0" cx="86.2" cy="138.6" r="1.9"/>
			<circle class="st0" cx="73.8" cy="138.6" r="1.5"/>
			
				<ellipse transform="matrix(3.443921e-02 -0.9994 0.9994 3.443921e-02 -79.1904 195.2156)" class="st0" cx="61.4" cy="138.6" rx="1.2" ry="1.2"/>
			<circle class="st0" cx="48.7" cy="138.6" r="1"/>
			<circle class="st0" cx="36" cy="138.6" r="0.9"/>
			<circle class="st0" cx="135.9" cy="150.8" r="4"/>
			<circle class="st0" cx="123.8" cy="150.8" r="3.7"/>
			<circle class="st0" cx="111" cy="150.8" r="2.5"/>
			<circle class="st0" cx="98.6" cy="150.8" r="2.2"/>
			<circle class="st0" cx="86.2" cy="150.8" r="1.9"/>
			<circle class="st0" cx="73.8" cy="150.8" r="1.5"/>
			
				<ellipse transform="matrix(3.443921e-02 -0.9994 0.9994 3.443921e-02 -91.4078 207.0192)" class="st0" cx="61.4" cy="150.8" rx="1.2" ry="1.2"/>
			<circle class="st0" cx="48.7" cy="150.8" r="1"/>
			<circle class="st0" cx="135.9" cy="125.9" r="4.8"/>
		</g>
	</g>
</g>
<g transform="rotate(0 92.2312 382.4283)">
	<g transform="matrix(1 0 0 1 0 0)">
		<path id="id-D6z1nYkh6" class="st1" d="M30.5,125.8c-5.8,0-11-1.2-15.7-3.7c-4.6-2.5-8.3-5.9-10.9-10.3C1.3,107.3,0,102.4,0,96.9
			l0,0c0-5.5,1.3-10.4,3.9-14.8c2.6-4.4,6.3-7.8,10.9-10.3c4.6-2.5,9.9-3.7,15.7-3.7l0,0c5.8,0,11,1.2,15.6,3.7
			c4.6,2.5,8.3,5.9,10.9,10.3c2.7,4.4,4,9.3,4,14.8l0,0c0,5.5-1.3,10.4-4,14.8c-2.7,4.4-6.3,7.8-10.9,10.3
			C41.5,124.5,36.3,125.8,30.5,125.8L30.5,125.8z M30.5,114.8c3.3,0,6.3-0.8,8.9-2.3c2.7-1.5,4.7-3.6,6.3-6.3s2.3-5.8,2.3-9.2l0,0
			c0-3.5-0.8-6.5-2.3-9.2s-3.6-4.8-6.3-6.3c-2.7-1.5-5.6-2.3-8.9-2.3l0,0c-3.3,0-6.3,0.8-8.9,2.3c-2.7,1.5-4.7,3.6-6.3,6.3
			c-1.5,2.7-2.3,5.8-2.3,9.2l0,0c0,3.5,0.8,6.5,2.3,9.2c1.5,2.7,3.6,4.8,6.3,6.3C24.3,114,27.2,114.8,30.5,114.8L30.5,114.8z
			 M100.6,81.9h12.4v42.9h-11.8v-5.1c-1.6,1.9-3.6,3.3-5.9,4.3c-2.3,1-4.8,1.5-7.4,1.5l0,0c-5.6,0-10.1-1.6-13.4-4.9
			c-3.3-3.2-4.9-8-4.9-14.4l0,0V81.9h12.4v22.4c0,6.9,2.9,10.4,8.7,10.4l0,0c3,0,5.4-1,7.2-2.9c1.8-1.9,2.7-4.8,2.7-8.6l0,0V81.9z
			 M148.9,114l3.3,8.8c-1.2,0.9-2.7,1.6-4.5,2c-1.8,0.5-3.7,0.7-5.6,0.7l0,0c-5.1,0-9-1.3-11.8-3.9c-2.8-2.6-4.2-6.4-4.2-11.5l0,0
			V92.5h-6.6v-9.6h6.6V72.5h12.4v10.4h10.7v9.6h-10.7v17.5c0,1.8,0.5,3.2,1.4,4.2c0.9,1,2.2,1.5,3.9,1.5l0,0
			C145.9,115.6,147.5,115,148.9,114L148.9,114z M172,81.1v1.8h11v9.6h-10.7v32.4h-12.4V92.5h-6.6v-9.6h6.6V81
			c0-4.9,1.4-8.8,4.3-11.6c2.9-2.9,7-4.3,12.2-4.3l0,0c1.9,0,3.6,0.2,5.3,0.6c1.7,0.4,3.1,1,4.2,1.7l0,0l-3.3,9
			c-1.4-1-3.1-1.5-5-1.5l0,0C173.8,74.9,172,76.9,172,81.1L172,81.1z M189.2,124.8V65.7h12.4v59.1H189.2z M233.6,125.5
			c-4.5,0-8.6-0.9-12.2-2.8s-6.4-4.5-8.4-7.8c-2-3.3-3-7.1-3-11.4l0,0c0-4.2,1-8,3-11.4c2-3.3,4.8-6,8.4-7.8s7.6-2.8,12.2-2.8l0,0
			c4.5,0,8.6,0.9,12.1,2.8c3.6,1.9,6.3,4.5,8.4,7.8s3,7.1,3,11.4l0,0c0,4.2-1,8-3,11.4s-4.8,6-8.4,7.8
			C242.1,124.5,238.1,125.5,233.6,125.5L233.6,125.5z M233.6,115.3c3.2,0,5.8-1.1,7.8-3.2c2-2.2,3.1-5,3.1-8.6l0,0
			c0-3.6-1-6.5-3.1-8.6c-2-2.2-4.7-3.2-7.8-3.2l0,0c-3.2,0-5.8,1.1-7.9,3.2c-2.1,2.2-3.1,5-3.1,8.6l0,0c0,3.6,1,6.5,3.1,8.6
			C227.7,114.2,230.4,115.3,233.6,115.3L233.6,115.3z M322,81.9h11l-15.5,42.9h-12l-9.6-26.6l-10,26.6h-12l-15.5-42.9h11.7l10.1,29
			l10.5-29h10.5l10.2,29L322,81.9z"/>
	</g>
</g>
</svg>
