<?xml version="1.0" encoding="utf-8"?>
<!-- Generator: Adobe Illustrator 28.3.0, SVG Export Plug-In . SVG Version: 6.00 Build 0)  -->
<svg version="1.1" id="Layer_1" xmlns="http://www.w3.org/2000/svg" xmlns:xlink="http://www.w3.org/1999/xlink" x="0px" y="0px"
	 viewBox="0 0 374.6 97.4" style="enable-background:new 0 0 374.6 97.4;" xml:space="preserve">
<style type="text/css">
	.st0{fill:#FF726A;}
</style>
<g transform="rotate(0 118.6074 307.4283)">
	<g transform="matrix(1 0 0 1 0 0)">
		<g>
			<path class="st0" d="M221.7,45.9c-0.6-1.6-1.9-3-3.3-4.3c-1.5-1.7-3.2-3.3-4.8-5.9c-3.3-5.1-6.7-10-5.3-10.4
				c2.7-0.2,5.8,4.1,8.6,7.8c2.7,3.8,5.5,9.3,7.7,12.1C227.9,50.2,226.4,50.6,221.7,45.9z"/>
			<path class="st0" d="M160.6,5.6c-3.5,2.9-6.1,11.4-9.7,8c-7.1-5.9,7.1-12.3,14-12.6C167.4,1.4,165,3.1,160.6,5.6z"/>
			<path class="st0" d="M200.6,23.7c-8.8-7.9-18.2-15.5-29.8-18.6c9.9-1.7,18.1,5.1,25,10.1C202,22.6,203.5,25.6,200.6,23.7z"/>
			<path class="st0" d="M215.9,60.8c-1.3-1.1-2.7-2.7-4-4.4c-0.3-7.3-5.3-12.6-3.5-20c4.4,2.3,4.3,7.4,7.2,9.7
				c1.6,2.2,2.9,5.2,3.8,7.4C220.2,58.2,218,61.2,215.9,60.8z"/>
			<path class="st0" d="M193.3,22.6c-8.4-5.7-17.1-9.3-26.5-10.8c8.4-4.4,18.1-1,23.6,6.2C192.7,20.5,193.8,22.3,193.3,22.6z"/>
			<path class="st0" d="M197.3,72.9c2.5-2.8,5.2-7.1,7.3-5.9"/>
			<path class="st0" d="M207.2,56.6c-0.2-2.4-0.9-4.7-1.8-6.8s-2-4.2-3.2-6.2c-2.7-5.7-4.8-12.5-6.8-18.2c3.6,3.4,7.2,6.9,8.7,11.5
				c1.8,3.5,3,7.9,5,10.6C209.7,56.2,208,60.8,207.2,56.6z"/>
			<path class="st0" d="M186.9,37.7c-6.9-1.7-4.2,8-9.2,8.8c3.4-3.6,4.1-11.8,8.5-9.5c9.7,3.4,7.7,15.9,5.8,24.6
				c-0.9,2.5-1.9,4.6-3.3,6.6c-1.4,1.9-3,3.6-4.9,5"/>
			<path class="st0" d="M170.3,58.3c-2.2,2.1-4.5,3.8-6.8,5.2c-26.9-14.1-53.2-38-85-33.7c-2,0.3-4.4-2.3-6.6-5.4
				c-1.5-0.9-3.4-1.8-5.3-3.1c-2-1.2-3.9-2.7-5.8-4.8c-2.5-0.9-5.1-1.5-7.7-2c-5.3-0.9-10.8-0.7-16.6,0.9
				C15.4,22,6.6,47.8,16.8,66.4c-3,0.5-4.3-1.3-6.6-3c2.3,1.6,4.6,3.3,7.7,3.8c-7.4-14-7.3-31.2,3.9-43.2C31,14.8,42,12.5,53,14.1
				c2.8,0.4,5.5,1,8.2,1.9c3.7,1.1,6.7,4.3,9.4,7.2c2.2,2.5,2.2,8.5,4.2,8.2c31.2-7.3,61.3,15.1,85.8,31.6c2.1,0.7,4.3-0.4,6.4-2
				c2.1-1.6,4.1-3.7,6-6.1C174.4,53.3,173.5,54.6,170.3,58.3z"/>
			<path class="st0" d="M114.9,35.7c-12.1-7-25.8-3.7-39.4-6.5c-2,0.3-2.8-4.6-4.6-6c-2.6-2.2-5.8-4.6-8.6-6.4
				c-2.6-0.9-5.3-1.6-8.1-2.1c-11.1-1.9-22.2,0-32.3,9.3c-13.1,12.3-11,31.2-2.6,45c-4.6-3.3-9.2-6.6-13.8-9.9
				c1.5,2.8,4.6,3.3,6.1,6.1c1-18.4,0.5-39.6,21.3-48.2c6.3-2.7,12.6-3.5,18.7-2.8c3.1,0.3,6.1,1,9,1.9c2.1,1.9,4.1,3.5,6.1,4.8
				c1.9,1.4,3.7,2.5,5.2,3.8c0.4,4,4,7.4,5,7.3c12.8-2.1,24-8.1,34.8,2.3C113.5,35,114.6,35.5,114.9,35.7z"/>
			<path class="st0" d="M137.7,48.7c2.4,3.1,7.1,1.3,8.8,5.1c-21.7-8.5-47.4-34.7-71-18.5c16.9-14,39.5-0.5,54.4,9.8
				C133.8,46.9,136.4,48.2,137.7,48.7z"/>
			<path class="st0" d="M144.8,62.3c2.2,0.6,2.7,3.5,4.8,4.2c3-6.6-3-11.7-7.6-15C119.8,40,99.4,27.2,74,32.5
				c-2,0.3-2.8-4.6-4.3-7.6c-2.4-2.6-5.4-5.4-8.1-7.3c-2.3-1.1-5-1.9-7.8-2.3c-5.6-1-11.6-0.8-18,1.3C13.6,23.3,6.7,48.8,16.9,67.4
				C12.8,67,10,62.4,6.8,61c2.1,4.7,5.6,8.5,9.7,11.2c2.1,1.3,4.3,2.4,6.6,3.2c5.8,3.2,12.3,5.1,19.3,5c10.8-1.8,6.9-13.3,2.8-19.7
				c1.8,4.8,6.7,10,3.6,15.6c-5.7,8.1-16.8,2.8-24.3,0.3c-2.7-0.8-5.3-1.9-7.7-3.3c-7.2-4.1-12.4-11.4-12.3-20
				c3.3,1.5,3.1,6.6,6.4,8.1c-1.3-14,1.1-29.6,12.6-39.6c9.9-7.7,20.5-9,31.2-7.2c2.7,0.5,5.3,1.1,7.8,1.9c2.1,1.8,4.2,3.2,6.2,4.2
				c2,1.1,3.8,2,5.2,2.8c1,2.9,3.5,5.5,6.4,5c30.2-7.1,54.3,21.3,82.4,29.2c2.7-1.5,5.1-3.8,7.4-6.3c6.8-7.6,11.6-18,14.8-28.3
				c0.5-3.1,5.9-1,8.9-1.5c2-0.3,0.5-3.1,0.3-4.1c-6.4-8.1-20.7-14.8-27.1-4.6c-5.7,8.1,4.1,18.6-1.8,25.6c-2.4,2.9-5.2,4.6-8.9,3.7
				c-17.9-6.4-36-11.4-54.8-20.5c-6.6-3-13,1.2-19.9,2.3c-3,0.5-4.4-2.3-6.8-3.8c-2.3-0.9-4.8-2.1-7.3-3.9c-2.4-1-5.3-1.7-8.2-2.3
				c-14.6-2.9-29.5-1.2-41.3,11.6C9.7,36.1,8.9,49.5,12,62.1c-8.9-4.6-8.6-14.8-9.9-22.7C-0.7,53.1,5.4,65.2,16,73.6
				c2.5,1.6,5.3,2.9,8.1,3.7c8,1.7,14.9,6.6,23.4,3.1c4.8-1.8,5.7-8.1,3.9-12.8c-3.8-10.5-13-17.1-22-22.7c10.5,8.4,32.4,24,17,34.7
				C39,84,29.1,79.5,21.8,75.8C19,74.6,16.4,73,14,70.9C6.9,64.7,2.2,55.1,2.1,45.5C4.3,52.3,6.9,62,15.3,63.6
				c-9.1-17.7-0.5-39.5,17.4-47.5c9-4,17.9-3.8,26.5-1.3c2.8,0.8,5.4,1.9,7.4,3.3c2.2,1.4,4,3.2,5.4,5c1.6,1.4,2.1,4.3,3.3,5.2
				c7.4,1.8,13.3-5.3,20.9-2.5c21.9,9.5,42.8,19.2,66.6,26.3c1.8-1.8,3.2-4,4.4-6.3c4.9-9.1,6.3-20.4,13.7-29.1
				c-3.8,1.6-5.1,5.9-5.6,9c-1.3,7.4-3.8,15.2-7.7,21.6c-1.3,2.1-2.8,4.1-4.4,5.9c-23.6-4.3-43.5-20.2-67.1-28.4
				c-6.4-2-12.2,6.1-19.7,3.3c-1.2-0.8-2.5-2.6-3.5-5c-1.7-1.8-4-3.5-6.2-4.7c-2.2-1.3-5.1-2.4-8.3-3.2c-9.7-2.3-19.5-2.2-29.2,3.5
				C12.3,27.6,10.4,46.2,11,62.3C6.4,59,5.4,53.1,2.6,48.5c0.3,11.8,8.1,22.3,18.6,27.1c2.1,1.1,4.4,2,6.8,3
				c6.3,2.1,15.1,5.7,19.2,0c14-13.5-9.9-28.8-21.2-36c14,4.8,34,21.7,23.2,35.7c-5.7,8.1-15.9,1.7-24.2-0.5
				c-2.3-0.7-4.5-1.5-6.7-2.4c-12.2-6.1-19.7-21-14.8-34c0.2,7.1,1.2,13,7.1,18.1c-2-11.8,0-24.3,7.5-33.7
				c11.2-12.6,25.7-14.8,40.3-12c2.9,0.6,5.8,1.3,8.6,2.2c2.9,4.1,9.3,6.1,12.4,6.6c28.8-3.8,53.4,16.4,80.3,21.9
				c1.8-0.3,2.7-2,3.3-3.9c2.2-7.7-1.2-18.6,2.5-25.3c5.9-13.2,22.5-4.8,30.1,4.1c0.2,1-1.5,3.3-2.5,3.5c-4.3-1.3-10.9-4.3-11.5-2.1
				c-7.5,10.6-5.6,27.3-15.2,36.6c-1.9,1.9-4.3,2.7-7.2,1.3c-25-11.8-51.6-37.7-81.6-28.7c-1,0.2-4.8-4.3-6.5-7.4
				c-1.7-1.3-3.4-2.9-5.2-5c-2.5-1.4-5.7-2.4-9-3.2c-10-2.2-20.2-1.5-29.9,4.7C10.7,29.9,8.9,49.5,15.8,66.5
				C10.2,63.4,6.4,59,4.4,53.2c1.4,8.1,6.1,15.7,12.8,20c2.3,1.5,4.7,2.6,7.4,3.3c8.6,3.3,26.6,7.4,26.2-6.7
				c-1.6,14.5-18.7,9.2-27.4,5.8c-2.2-0.8-4.2-1.7-6-2.8c-5.5-3.2-9.6-8.2-12.1-14.6c4.3,1.3,5.3,7.2,10.5,8.4
				c-6.9-17.1-2.2-37.2,13.4-46.9c6.5-3.8,13.1-5.1,19.7-4.8c3.3,0.1,6.6,0.7,9.8,1.6c2.2,1.6,4.3,2.9,6.3,4.1c2,1.2,4,2.3,5.7,3.5
				c3.1,2.4,3.8,6.3,6.2,9c6.6,3,10-6.7,15.3-5.6c21.7,8.5,52.3,15.6,58.8,39.8C147.4,64.2,145.6,62.8,144.8,62.3z"/>
			<path class="st0" d="M261.9,13.1c-4.8,11.1,6.2,22.4,0.3,29.5c-9.6,14.3-21.2,7.9-32.4-1.6c-2.3-2-4.5-4.1-6.8-6.6
				c-2.3-2.4-4.8-5.9-7.8-8.7c-1.5-1.4-3.1-2.8-5.5-5.1c-1.8-2-3.9-3.7-6.2-5.1c-2.3-1.5-4.9-3-8.2-5.1c-11-9.5-37.3-15.3-39.1,4.3
				c-1,6.2,9.4,7.6,11.5,14.3c3.5,8.5-4.3,16.9-13.1,18.4c-0.8,1.2-2.3,4.4-1.3,4.3c21.7,2.5,14.5-22.7,26-32.7
				c7.1-6.3,16.6,2.3,23.5,7.2c3.5-0.1,5.6,1.8,7.4,4.4s3.3,5.6,5.6,7.8c1.9,1.5,3.9,3.4,5.8,5.3c1.9,1.8,3.8,3.6,5.6,4.8
				c2.7,1.3,5.4,2.4,8.1,3.4c13.6,5,27.1,5.5,33.8-11.4c3-6.6,0.3-16.3-7.2-19.1c0.5,9,9.2,18.7,2.2,25c-8.8,8.1-17.8,7-26.4,2.3
				c-2.8-1.6-5.6-3.6-8.3-5.8c-3.9-3.8-8.7-10.8-14-15c-1.8-1.5-4-3.9-6.8-6.6c-2.7-2.6-5.6-4.3-9.2-6.5c-4.9-2.2-8.6-6.7-13.9-7.8
				c3.3,1.5,7.4,1.8,9,5.6C189.5,8.1,183.9,5,177.7,4c8.2,0.7,15.1,5.6,22,10.3c2.7,1.8,5,3.5,7.1,5.3c2.1,1.8,3.9,3.8,5.3,5.8
				c2.1,2.5,3.9,4.2,5.5,5.9c3.3,3.4,6.5,7.3,9.5,10.2c2.5,2.1,5.1,4.1,7.7,5.8c8,4.9,16.6,6.8,26.2,0.6c9.2-5.6,2.3-16.6,1.8-25.6
				c7.4,7.9,10.5,20.5,0.7,28.3c-8.6,6-17,5.9-25.2,3.2c-2.7-0.9-5.4-2.1-8.1-3.4c-4.5-1.9-8.3-6.4-11.8-9.8
				c-1.8-1.7-3.5-3.5-5.2-5.9c-1.7-2.5-4-4.5-6.5-5.9c-2.6-1.5-5.6-3.4-9-5.9c-5.5-5-16.7-11.2-19.9-0.5c-3.1,11.7-8,30.7-23.8,27.3
				c6.2-5.1,13.6-9.4,13.1-18.4c-0.3-8.1-11-11.3-11.5-20.4c0.8-7.2,8.7-8.6,14.6-9.5c12-1,21.4,6.6,30.7,13.5
				c2.5,1.5,4.8,3.2,6.9,5c4.3,4,7.1,5.8,9.4,8c2.3,2.1,4.3,4.9,5.8,8.3c1.6,1.8,3.2,3.6,4.8,5c4.8,4,10.1,7.1,16.5,8.6
				c7.2,0.8,20.6,1.6,20.1-7.4s-6.3-19.2-0.7-28.3c2.8,10.7,9.9,22.7,4.3,31.7c-7.9,13.5-21.1,11.2-33.7,5.3
				c-3.2-1.5-6.3-3.3-9.3-5.6c-2.6-1.4-4.8-4.5-7.1-6.7c-2.4-2.2-5-5.6-8.7-8.2c-4-1.5-6.5,0.6-8.8,0.8c-2.3,0.2-4.3,0.1-8.5-6.3
				c2.4,2.6,5,6.5,6.9,7.8c0.7-0.6,1.3-2.3,3.2-1.1c2.9-0.2,5.5,0.2,7.7,1.3c2.2,1.1,4.1,3,5.6,5.2c2.5,0.4,5.1,1.9,8,5.4
				c3.4,2.5,6.8,4.4,10.2,6c13.5,6.4,26.7,11.2,35.3-5.8c4.8-7.9-0.8-17.1-3.3-26C264.8,13.3,263.4,12.4,261.9,13.1z"/>
			<path class="st0" d="M219.9,29.9c1.6,2.6,3.5,5.3,5.7,7.9c2.1,2.3,4.3,4.4,6.8,6.1c9.7,7.1,21.9,10,31.1,0.4
				c5.1-5.9,0.5-15.3,5.6-21.2c8.4-10.5,22.4-11.9,33.5-5.6c-3.3-1.5-3.8-4.4-7.1-5.9c6.7,3.9,10.7,9.4,15.6,14.6
				c-9.4-7.6-29.9-15.3-32.4,0.4c-3.4,15.8-12,31.4-30.4,30.4c-5.8-0.4-10.5-2.4-14.8-5.1c-2.1-1.4-4.2-2.9-6.1-4.5
				c-2.3-4-4.9-7-7.6-9.3c-2.7-2.4-5.6-4-9.3-8.7c-1.4-1.9-3-3.6-4.8-5.2c-1.8-1.6-3.8-2.9-6.2-5.2c-8.8-9.2-24.7-19.7-34.1-9
				c-5.8,6.3,1.5,15.5,0.9,23.5c-0.2,2.7-1.2,5.2-3.9,7.4c-15.3-0.5-31.4-5.9-41.9-14.3c-12.8-10-26.8-8.7-41-8.4
				c-3.3-0.4-7.2-1.4-11.5-3.3c-2.6-0.7-5.2-1.4-7.8-1.9c-13-2.8-26.2-3.2-37.3,5.7c11.8-10.1,25.6-8.3,39.1-4.9
				c3.4,0.9,6.6,1.8,9.3,2.8c3.3,1.5,6.2,2,8.9,1.7c5.3-0.9,10.6-5.8,15.8-4.7c20.1,4.8,44.7,31,63,18.9c-0.1-2-0.7-4-1.6-6
				c-2.6-5.9-6.9-11.6-3.4-17.5c12.5-16.3,33.7-4.6,47.1,4.8c2.7,1.4,5.1,3.1,7.2,5.2c3.6,2.9,6.1,3.8,8.3,5.1
				c4.5,2.7,8.4,7.2,11.5,14.4c2.3,2.3,4.7,4.4,7.2,6.2c7.3,5.2,15,7,20.9-0.1c10.8-14,16.9-38.3,39.8-29
				c-7.1-5.9-16.3-6.4-24.3-6.1c19.6-4.3,36.8,8,48.5,23.3c-14.3-6.7-31.7-26.1-44.1-8.8c-7.6,9.4,0,24.3-13.1,30.6
				c-9.9,4.7-18.1,2.3-26.2-1.5c-2.7-1.2-5.3-2.6-8-4c-2.8-3.1-5.6-5.2-8.2-6.5c-2.6-1.4-5.2-1.9-7.7-4.1c-0.9-1.8-3.4-3.9-5.8-4.7
				s-4.8-0.3-5.7,3c2.1-10.9-6.3-18.6-14.4-24.3c-9.2-6.6-28.3-5.4-25.3,6.3c0.6,3.5,2,7.5,2.6,11.5c0.5,4,0.2,7.8-2.9,10.9
				c-9,0.5-15-4.6-22.5-7.4c6.6,3,14,4.8,20.6,7.7c-24.8-9-49.3-22.2-76.8-16.6c-2,0.3-4.4-2.3-6.5-4.2c-1.8-0.7-3.9-1.3-6-2.1
				c-2.2-0.8-4.4-1.9-6.5-3.3c-2.7-0.9-5.5-1.7-8.3-2.4c-11.1-2.6-22.2-2.5-33.3,6.9C10.7,29.9,9.9,43.2,9,56.5
				c-2.8-4.6-5.8-10.2-6.8-16.1c-3,12.7,3.3,25.8,13.7,33.2c2.6,1.8,5.6,3.2,8.7,4.1c8.8,3.1,21.7,8,26.2-1.8
				c7.7-14.5-13-23.2-20.1-33.8c-4.1-2.2-3.6-4.8-1.4-7.6s6-5.7,8.2-8.1c-5.4,3.9-12.7,9.2-12.3,17.3c0.5,3,2.8,6.2,5.4,6.5
				c11.2,1.9,25.4,13.7,20.1,24.8c-3.6,8.7-15.3,5.6-22.8,2.7C25.3,76.7,23,76,20.8,75C10,70.6,2.7,59.3,2.5,47.5
				c2.8,4.6,3,11.7,8.6,14.8c-1.5-21,6.1-42.6,28.4-48.4c7.8-1.8,15.3-1,22.4,1.2c2.3,0.7,4.3,1.7,5.8,2.8c3.3,2.9,4.9,7.4,7.1,9.6
				c28.9-5.1,53.3,13.2,79.4,24c3.1,0.5,6.4,2,8.9,0.4c1.6-1.8,3-3.8,4.3-5.9c3.9-6.4,6.4-14,7.7-21.4c1.1-5.3,4.6-8.9,9.2-11.7
				c-1.8,1.3-3.6,2.6-4.4,3.8c-1.9,10.1-5.4,21.8-11.1,30.9c-1.4,2.3-3,4.4-4.7,6.3c-31.8-0.8-54-36.6-86.4-24.1
				c-1.8,1.3-3.6-3.4-6.1-5.2c-1.6-1-3.4-2.1-5.3-3.4c-1.9-1.3-3.8-3-5.6-5.1c-2.3-0.8-4.6-1.5-6.9-1.9c-4.7-0.9-9.4-1.2-14.4-0.3
				C16.9,18.7,12.5,40.7,8.6,59.6C3.8,55.4,3.9,50.3,3,44.4c-2,13,5.5,24.4,16.6,30c2.2,1.2,4.6,2.2,7.2,3.2
				c6.4,2.4,12.8,4.3,19.6,2.2c4.6-2.8,5.7-8.1,3.9-12.8C46.7,57.3,37.7,51.7,28,51c-4.9-0.9-4.7-6-5.4-9.9c-1.1,2.7-1.4,5.5-1,8.3
				s1.3,5.4,2.6,7.9c-1.3-2-2.6-3.8-1.8-5c11.2-5.9,23.2,5.2,27.8,14.6c1.6,3.8,2.5,8.7-1.1,11.3c-9.2,5.6-18.4-1-27.8-2.4
				c-2.7-1.1-5.2-2.5-7.5-4.4C7.1,66,2.6,57.6,2.6,48.5c3,5.6,4,11.5,9.7,15.6C7.1,38.6,22.7,10.6,51.4,12.9
				c2.4,0.1,4.6,0.6,6.7,1.2c2.1,0.7,4,1.6,5.6,2.6c2.1,1.8,3.8,3.8,5.8,5.5c3.1,2.3,3.4,10.3,8.2,8.5c31.4-12.4,56.1,20,84.3,26.6
				c2.4-1.1,4.5-3.3,6.5-5.8c6-7.4,10.4-17.2,13.7-26.2c2.1-5.4,8.5-3.5,13.8-2.3c-3.8-10.5-21.2-17.7-24-10.2
				c-1.7,6.9-4.1,13.5-7.4,19.2c-1.1,1.9-2.3,3.7-3.6,5.4c-14,1.9-31.7-1.2-45.1-8.1c10.2,12.5,28.3,11.5,41.1,18
				c3.6,1,6.7-0.2,9.2-2.1c-2.9,2.3-6.2,2.7-10,1.4c-14.5-8.4-31.6-7.6-45.4-17.4c15.1,5.6,31.7,7.9,48.7,10.6
				c1.6-1.4,2.9-3.2,4-5.3c2.2-4.2,3.4-9.6,3.2-16.7c-1-12,18.1-7.1,26.3-0.3c-4.3-1.3-8.1,0.3-9.7,2.6c-5.8,9.8-8,22.1-14.6,31.1
				c-1.6,2.2-3.5,4.3-5.8,5.9c-28.4-7.5-55.7-37.4-86.6-28.2c-1.8,1.3-3.5-2.5-4.8-4c-2.4-2-5.3-4.3-7.4-6.9
				c-1.7-1.2-3.9-2.3-6.3-3.1c-4.9-1.7-10-2.5-15.6-1.6c-23.8,3-36,27.3-30.2,49.7c-4.6-3.3-7.2-6.9-9-11.7
				c0.3,8.1,5.6,15.3,11.5,20.4c2.1,1.7,4.2,3,6.5,4c2.3,1.1,4.7,1.9,7.3,2.7c6.9,1.9,17.6,5.2,20.5-1.4C56.9,57.6,36,54,23,49.1
				c0.5,3,0.8,4.9,1.3,8.1c-1.4-2.5-2.6-5.1-3-7.8c-0.5-2.7-0.2-5.5,1.4-8.3C21.4,45.3,24,49,27,49.8c9,4.2,19.4,5.5,23.2,16.1
				c0.7,3.9,3.6,9.5-1,12.3c-8.2,5.4-19.1,1.2-27.8-2.4c-2.7-1.1-5.2-2.6-7.4-4.4C7.5,65.9,3.4,57.5,2.6,48.5
				c2.1,6.7,6.1,12.2,11.8,16.3c-1.7-9.9-5.1-18.4-1.7-28.1c7.1-18.3,24-25.2,41-23.3c3.4,0.4,6.8,1.1,10.1,2.2
				c1.9,2.3,3.9,4,5.8,5.2c2.6,1.9,6.4,6.3,7.4,6.2c32.1-2.3,57.1,19.9,85.4,30.7c2.6-1.1,5.1-3,7.2-5.2c2.2-2.2,4.1-4.7,5.7-7.5
				c4.6-8.9-1-18.1,2.6-26.8c2.5-3.5,6.7-2.1,10.8-1.8c-3.5-2.5-11.8-4.1-12.3-1c-0.6,12.3-1.9,26.5-9.1,35.6
				c-1.8,2.3-4,4.3-6.7,4.1c-14.7-9.2-29.8-14.8-46.9-20.1c-4.4-2.3-7.1-5.9-11.3-7.2C95,24.9,88.4,28,80.7,30.3s-8.6-8.7-14.2-12.8
				c-1.7-1.2-4.1-2.1-6.6-2.8c-12.6-3.4-26.2-1.4-37.3,8c-12.5,10.2-11.8,26.3-8.5,40C6.4,59,3.5,53.4,2.1,45.5
				c0.7,9,3.2,18.3,9.5,24.5c2.1,2.1,4.6,3.8,7.6,5.1c10.7,3.3,29.6,13.3,32.2-1.3c1.3-10.4-8.4-19.9-17.4-25.5
				c10,5.4,19.7,14.9,17.6,26.5c-3.1,11.7-18.4,5.1-28.1,1.7c-2.8-0.7-5.4-1.9-7.7-3.3C4.2,65.9-0.9,50.6,2.8,37.3
				c-1.6,8.4,2.1,18.9,10,23.7C6.9,49.8,9,38.3,15.4,28.1c10.3-14.4,25.9-17.8,41.2-15c3.1,0.6,6.1,1.4,9.1,2.4c2.5,2.4,4.9,4,7,5.1
				c2.5,1.5,4,4.3,6.9,3.8c4.9-0.8,9.2-5.6,14.5-4.4c21,4.6,39,14.8,59.8,19.5c3.3,0.7,6.1,0.3,7.9-2.4c5.7-8.1-6.4-20.2,5.7-26.3
				c12.3-5.1,27,3.6,31.1,16.1c-5.3-1.1-10.4-7.4-15.8-3.4c8.1-0.3,12,5.1,17.4,10.3c2.7,2.8,5.5,4.2,8.2,5.7
				c2.7,1.5,5.5,3.1,8.3,4.6c3.8-1.6,6.6,3,10.4,5.4c2.3,1.1,4.6,2.2,6.8,3.2c9.1,4,18.1,6.7,28.3,3c13.3-5.3,8.9-19.7,13.3-29.6
				c9.5-21.9,30.4,0,45.4,4.6c-12.8-10-25.2-23.2-43.3-22.2c5.6,3.1,12.3,1,16.3,6.4c-19.6-7.9-27.1,13.7-36,27.3
				c-5.6,9-14.1,8.4-22.3,3.9c-2.7-1.5-5.5-3.5-8-5.7c-3.1-6.1-7.1-10.5-11.5-13.5c-2.2-1.5-4.8-3.5-8.6-7.1
				c-1.8-1.8-3.9-3.4-6.1-4.8C191.3,6.8,180-0.5,166.2,1.8c-7.9,1.3-18.2,6.1-16.8,15c0.6,3.5,3.6,6.2,5.8,9s3.7,5.6,1,8.5
				c-22.7,2.4-39-16.2-59.1-20.9c-7.4-1.8-13.1,6.3-20.4,4.8c-2,0-4.1-0.2-6.2-0.8c-2.1-0.5-4.2-1.3-6.4-2.5c-3-0.8-6-1.6-8.9-2.2
				c-8.9-1.8-17.9-2.1-26.7,2.9c8.6-6,17.8-5.8,27-3.8c3.1,0.7,6.2,1.5,9.2,2.4c2.2,1,4.4,1.8,6.7,2.4c2.2,0.6,4.4,0.9,6.5,1.1
				c7.8,0.6,15.2-3.7,22.9,0.1c19.9,9.9,38.3,16.9,58.6,24.4c3.6-1.4,6.1-4.3,7-8c2.6-8.6-9.7-15.6-5.6-21.4
				c10.5-16,31.1-2.2,41.7,9c2.5,1.7,4.7,3.6,6.7,5.9s3.6,4.7,4.9,7.3c2.2,1.1,4.3,2.5,6.3,4.4c2,1.9,3.8,4.2,5.5,7
				c2.4,2.1,4.8,3.8,7.3,5.3c7.4,4.3,15.5,6.8,25.1,3.7c11.5-4,18.9-14.3,19.7-27.6c0.3-16.3,23.8-9.1,33.2-1.5
				c-4.9-5.3-8.9-10.7-15.6-14.6c2.6,3.6,6.1,6.1,9.4,7.6c-9.9-4.4-21.4-6.6-31.6-0.8c-9.2,5.6-6.1,18.3-12,25.3
				c-7.3,7.8-16,7.5-24,3.4c-2.7-1.4-5.3-3.2-7.8-5.2c-4.9-5.2-9.8-10.5-12.8-16.1c2.1,6.7,5.9,11.2,10.7,15.4
				c-3.8-4.4-6.6-9-10.1-13.1C214.9,24.8,212.9,22.8,219.9,29.9z"/>
			<path class="st0" d="M16.1,27.4c-7.2,9.9-5.3,21.7-4.4,32.8c-6.4-2-8.9-10.7-10-17.6c0.4,12.6,5.1,25.2,15.8,31.6
				c2.2,1.3,4.6,2.4,7.2,3.2c7.5,2.6,19.7,8.7,24.3-0.2c7.7-14.5-9.1-23.8-18.9-31.7c-2-2.2-2.5-5.3-3-8.2c2,2.7,4.3,5.4,6.7,8.1
				c9.3,8.5,28.3,25.6,12.7,35.3c-6.4,4.1-13.3-0.8-19.1-2.2c-2.3-0.9-4.5-1.7-6.5-2.6c-2.1-0.9-4.1-1.9-6-3.1
				C4.3,64.4-1.3,49.1,3.6,36.1C2,44.5,3.5,53.4,9.5,59.5c-2.2-25,13.9-50,41.7-47.5c2.6,0.3,5.1,0.8,7.7,1.5c2.5,0.7,5,1.5,7.4,2.4
				c2.1,2.1,4.2,3.5,6.5,4.3c3.3,0.8,5.8,3.5,7.7,3.1c26.8-9.6,49.2,15.1,74.7,17.9c4.8,1.3,8.2-0.9,10.8-4.2
				c2.5-3.3,4.4-7.2,5.1-11.6c0.3,6.7-1.6,13.3-5.1,18.7c-1.2,1.8-2.5,3.5-4.1,4.7c-22.2-5-41.1-15-62.8-23.5
				c-6.4-2-12.3-1-19.4-0.8c-4.9,0.8-8.7-3.6-13.4-6.9c-1.8-1-4-1.9-6.4-2.6c-7.3-2.1-14.8-2.9-22.5-0.6
				c-20.4,5.4-28.1,26-25.9,44.9c-8.2-0.7-7.1-12-8.9-16.8c-1.3,10.4,2.3,19.9,9.7,27.8c2.1,1.9,4.3,3.4,6.6,4.5
				c2.3,1.2,4.7,1.9,7.2,2.6c8.1,2.4,20.4,9.5,24.7-1.4c6.6-15.3-11.2-24.5-23.4-30.5c-1.1-0.9-2.4-2.7-1.8-4.9
				c2.3-8.8,9.3-13.7,17.2-16.4c2.6-0.9,5.2-1.5,7.7-1.8c-2.2-0.4-4.5-0.4-6.9-0.2c-11.8,1.4-22.3,9.5-23.5,22.4
				c-0.2,3.1,0.3,5.8,1.4,8.3c1.1,2.5,2.7,4.8,4.7,7.2c4.5,5,9.4,10.3,16,13.2c-6.1,0-10.7-3.3-15.5-7.1c-2.1-1.8-4-3.6-5.7-5.6
				c-1.7-1.9-3.1-4-4.3-6.4c-3.5-8.5-1-18.1,5.9-25.3c6.2-6,13.9-8.9,21.8-9.3c2.6-0.1,5.2,0.1,7.6,0.6c3.1,1.5,5.8,3.3,8.2,5.4
				c2.4,2.2,4.3,4.9,5.6,8.7c1.7,20.5,11.5,42.2,32.8,48.8C84.9,79.3,75,68.8,67.1,58c4.4,8.4,10.5,14.5,13,23.2
				c3.5,8.5-6.4,4.1-11.2,5.9c9.4,1.5,18.6,2,28.4,0.3c-0.5,3.1-2.3,4.4-3.9,6.7c10-0.7,18.4-5.1,23-14c2.1-5.4-1.2-13-8.2-12.8
				c2.5,2.6,2,5.8,2.5,8.7c-28.6,4.8-44.1-21-45.4-46c-1.4-2.7-3.2-4.8-5.3-6.7c-2.1-1.8-4.4-3.5-7.1-4.7c-2.8-0.5-5.7-0.6-8.7-0.3
				c-14,1.3-24.7,10.2-28.6,23c-1.6,5.8-0.4,11.5,2,16.8c1.2,2.7,2.7,5.3,4.3,7.8c1.6,2.6,3.4,5.2,5.1,7.9c5.2-3.9-6.7-3.9-4.4-8.2
				c2.1,1,3.5,3.2,4.9,5.4c-2.8-1.8-5.2-3.6-7.1-5.5c-9.8-8.8-10.1-25.1-1.7-35.8C28.4,17.8,40.4,15,52.6,16.8
				c3,0.5,5.9,1.2,8.2,2.4c1.9,0.8,3.6,1.9,5.4,3.1c1.7,1.3,3.2,2.8,4.3,4.6c2,2.7,0.9,8,2.8,7.7c24.8-3.1,56.4,3.7,70.1,24.8
				c-2.1-0.7-4.3-1.3-5.1-0.2c-0.7,2.1,0.8,4.9,1.2,6.9c8.5-3.5,10.5,8.4,16.7,11.4c2,1,4.5,0.4,7-0.8c10.2-5,17.9-14.1,19.3-25.9
				c-3.9,0.7-6.6,3.1-9.2,5.6c2.5-3.5,4.8-7.9,8.4-10.5c5.6-3,9.7,3.4,10.6,8.6c1.1,2.7,2,5.6,3.2,8.1c1.3,2.4,2.2,5.3,2.7,9
				c0.3,2,2.5,2.6,4.6,0.4c2.1-1.2,3.9-3,5.6-4.9c3.5-3.8,6.8-8.2,11.4-10.6c3.5,0.5,7.2,1.2,11,1.8c3.8,0.6,7.5,1.5,11.1,1.9
				c-2.4-0.9-4.7-2.1-7-3.4s-4.4-2.9-6.6-4.4c-2.7-1.6-5.2-4.5-7.5-6.9c-2.3-2.4-4.4-4.3-6.4-4c-1.7-2.5-3.9-4.9-6.3-7
				c-2.5-2.2-5.2-4.1-8.2-7.2c-4.8-4.8-10.1-12-17.8-9.7c-3.8,1.6-6.2,5.1-6.6,9.2c-0.5,8.9-3.3,17.7-8.5,24.3
				c-1.3,1.7-2.7,3.2-4.3,4.2c-29-5.3-53-33.8-85.2-26.3c-3.9,0.7-7.2-6.9-11.2-10.5c-2.1-1.3-4.9-2.4-8-3.2
				c-9.3-2.3-19-2.2-28.3,2.4C13.1,26.4,8.4,46.5,14.3,63.8C6.6,60,4.4,53.2,2.1,45.5c0.5,9,3.3,19.7,11.4,25.5
				c1.9,1.4,4,2.5,6.1,3.5c2.2,1,4.4,1.8,6.7,2.7c8.1,3.5,22.1,8.3,24.5-1.3c3.8-13.8-10.4-25.6-24.5-25.3c7.2,0.8,13,4.9,18.7,9
				c5.9,5.1,9.7,15.6,2.3,19.9c-7.6,3.3-16.1,0.7-24.2-3.3c-2.4-0.8-4.6-1.9-6.6-3.2c-8-5.2-12.9-14.5-13.9-24.5
				c1.8,4.8,4.4,8.4,8.1,11.8c4.1-5.8-2.1-12.8,1-18.4c-1.8,7.4,2.3,13.8,1.5,21c-6.4-2-6.6-9-10.2-12.5
				c1.8,10.8,8.6,20.9,18.4,25.3c-6.9-4.9-15-10.7-16.6-20.5c4.6,3.3,7.6,8.9,12.2,12.2c-5.3-13.3-7.7-28.1,2.4-40
				c8.5-9.5,19.8-13.2,31.2-12.6c2.8,0.1,5.7,0.6,8.5,1.2c2.2,1.8,4.2,3.3,6.3,4.4c2,1.2,4,2.2,5.8,3.2c3.6,1.6,4.4,6.6,6.4,6.2
				c29.1-1.8,57.9,12.6,82.2,28c2.6,1.6,5.2,1.3,7.8,0.4c7.9-2.8,15.7-6.8,23.2-11.9c1.8-1.3,3.1,6.6,5.6,11c1.2,2.1,2.2,4.6,2.9,7
				s1.3,4.9,1.6,6.9c1.7,1.4,3.7,1.2,5.5,0.3c5.4-2.6,8.8-10.3,12.9-14.4c3.2-0.5,6.2,0.1,9.2,0.5c3,0.4,6,1.2,9,1.2
				c-3.8-1.4-7-3.9-10.2-6.4c-2.5-2.6-4.8-6-7.8-8.3c-1.5-1.1-3.1-2.2-4.9-3.2c-1.2-1.7-2.6-3.3-4.2-4.7c-1.6-1.4-3.5-2.6-5.4-3.6
				c-6.2-4.9-10.3-11.3-17.5-12.1c-10.5-2.3-7.2,11.3-10.3,16.9c0.5-3.1,0.2-5.1,0.7-8.2c0,6.1-1,12.3-3.1,17.8
				c0.2-5.1,1.8-13.5,7.9-13.5c6.9-1.2,10,5.4,13,11.1c1.8,3.6,3.4,7,5.2,9.6c1.8,2.5,3.3,5.5,4.3,9.1c1.3,2,3.9,1.5,6.4,0.1
				c2.6-1.5,5.1-3.6,7.4-6.6c0.7-2.1,5.8-2,8.9-1.5c-2.3-1.6-4.2-3.9-6.1-6s-3.7-4.1-5.9-5.2c-2.3-1.6-3.1-6.6-7.1-5.9
				c-2.8,1.5-2,6.4-4.8,7.9c1.6-2.3,2.6-8.6,7-4.7c1.7,1.4,3.6,2.9,5.8,3.7c2.2,0.7,4.3,2.6,6.5,6.1c1.6,1.5,3.2,3,4.6,4.1
				c-3.1-0.5-5.6-0.6-7.7,0.1c-2.4,3.1-5.1,5.4-7.9,7c-2.7,1.6-5.5,2.2-6.9,0.2c-1.4-3.7-3.2-6.8-5.2-9.2
				c-3.3-7.1-6.9-16.7-15.3-18.3c-8.6-2.6-7.6,9.4-12.8,14.3c5.9-7.1,4.4-15.9,4.1-24c0.3-4.1,0.5-9.2,9.9-7.7
				c7.6,2.8,12.7,9,18.7,14.2c2.6,1.4,5.1,3,7.3,4.6c1.9,2,3.6,3.7,5.3,5.6c1.7,1.9,3.4,4.4,5.2,6.1c-1.5-2.8-3.3-4.8-5.2-6
				c-2-1.3-4.1-3.3-6.4-6.3c-1.1-1.8-3-3.7-5.3-4.8c-2.3-1-4.9-2.6-7.1-2.5c2.6-0.4,5.3,1.1,7.5,2.6c2.2,1.5,4.1,4,5.3,6
				c2.5,3.5,4.8,5,7,6.4c2.2,1.3,4.3,3.2,6.1,5.5c1.8,1.8,3.5,3.3,5.3,4.7c3.6,2.8,7.2,5.5,11.1,6.5c-3.5,0.1-7.3-1.1-11.1-1.7
				c-3.8-0.6-7.6-1.5-11-0.4c-3.3,3-6.5,7.2-10.1,10.4c-1.8,1.6-3.7,2.8-5.7,3.4c-1.7-1.5-2.8-3.8-3.7-6.3c-0.9-2.5-1.6-5.1-2.4-7.5
				c-0.6-4.6-2.9-12.3-4.7-11c-8.2,4.2-16.4,7.8-24.7,10.3c-2.7,0.9-5.5,0.7-8.2-1c-24.9-14.9-54.6-29.2-85.2-24
				c-2,0.3-0.8-4.9-3.5-7.6c-2.1-2.8-4.9-5.6-7.5-7.6c-2.2-1.1-4.9-2-7.7-2.6c-5.6-1.1-11.5-1.2-17.6,0.5
				C15.3,21,8.4,46.5,15.8,66.5c-3.5-2.5-6.9-4.9-10.4-7.4c2.6,6.7,8.1,11.8,14.5,14.7c2.2,1,4.5,1.8,6.9,2.8
				c6.2,2.3,16.3,7.7,22.2,0.6c1.5-3.3,2.6-8.6,0-12.2c2.6,3.6,2.5,8.7,0,12.2c-6.1,6.1-14.8,2.5-22.2,0.3c-2.7-1-5.3-2-7.6-3.3
				c-7-3.6-12.4-9.9-15.2-17.8c2.6,3.6,5.3,7.2,10.4,7.4c-6.8-16.1-1-36.3,14.8-45.1c9.2-5.6,21.2-6.6,31.1-2.2
				c-12.2-6.1-26.6-1.6-37.5,6.3c-10.5,9.9-9.2,23.8-11,37.3c-1.1,5.3-6.1-6.1-8.6-8.7c2.5,8.7,5.9,17.3,13.8,22
				c2.5,1.4,5.3,2.5,8.2,3.3c8,3.1,20,8.1,24.5-1.7c5.4-10-7.4-20.1-17.9-22.3C42.1,54,56.1,64.9,50.7,74.9
				C46.2,84.8,35,78.5,26.3,77c-3-0.9-5.8-2.1-8.3-3.7c-9-5.6-14.6-14.8-15.3-24.8c1,5.9,4.8,10.4,8.4,13.8
				c-0.3-14.1,0.1-29.4,11.6-39.5c9.8-8.2,20.9-9.8,32-8c2.8,0.5,5.5,1.2,8,2c2.1,1.7,4.1,3.1,6.1,4.3c7,10,13.7,7.8,24.9,8
				c24.2-1,45.7,18.7,70.6,26c1.8-1.9,3.2-4.2,4.5-6.6c5.1-9.8,6.8-22.7,12.2-30.9c3.9-6.7,15.9,4.4,22,11.9
				c2.3,1.3,4.4,2.9,6.2,4.7c3.2,4.2,6.1,7.8,8.6,9.2c2.6,1.3,4.8,3.2,6.5,5.4c2.3,2,4.5,3.9,6.7,5.6c2.2,1.7,4.4,3.3,6.6,4.4
				c-3,0.5-5.8,0.2-8.6,0.1c-2.8-0.1-5.5-0.3-8.2,0.1c-4.6,4.1-9.5,9.1-14.8,12.5c-1.8,1.1-3.6,2.1-5.5,2.7c-3.8-1.4-4.9-5.1-5.9-9
				c-0.5-1.9-0.9-4.1-1.3-6.6c0.4-6.7-1.7-13.4-7.1-15.6c-6.6-3-8.2,11.5-14.5,16.6c1.6-2.3,6.2-5.1,6.6-3.1c1,10-6.6,16.9-16,20.7
				c-2.3,0.9-4.5,1.2-6.2,0.2c-5.4-4.1-10.4-14.5-16-5.5c2.1-5.4-2.1-13.7-4.6-16.3c-10.9-16.4-36.5-30.4-58.9-18.5
				c-5.6,3-6.1-12.2-13.4-17.4c-1.9-1.5-4.4-2.5-7.4-3.1C40.9,13.4,25.2,18.2,16.3,33c-5.1,9.6-4.2,20.5,1.2,29c1.4,2.1,3,4.1,5,6
				c1.9,2,4.2,4,6.7,5.9c-2.3-2.5-4.4-5.2-6.3-7.8c-1.8-2.5-3.4-5-4.6-7.6c-5-10.3-4.9-22,5-31.8c7.2-6.9,15.9-9.9,24.5-9.8
				c2.9,0,5.7,0.4,8.5,1.1c2.5,1.1,4.5,2.5,6.3,4.1c1.7,1.6,3.2,3.4,4.2,5.7c2.3,6.4,1.7,14.6,2.8,21.5c-0.7-3.9-1.3-7.9-2-11.8
				c-2.4,27.8,23.9,33.5,44.4,41.2c6.4,2-9.7,14.8-19.7,15.5c3-0.5,3.4-3.6,4.1-5.8c-10.4-1.3-20.1,1.3-29.6-1.1
				c3.9-0.7,11-0.8,11.7-3c4.3-10.9-10-17.6-11.9-28.4c3.9,5.4,5.1,12.3,11.8,16.3C72.5,66.2,67.2,59,65.8,50.1
				C68.9,62.7,77.6,72.4,89,79.7C74,69,66.1,52,64.8,34.3c-1.2-3-2.9-5.4-4.8-7.4c-2-2-4.2-3.9-6.6-5.6c-2.2-0.9-4.9-1.3-7.9-1.3
				c-18.2,0-31.9,15.5-29.1,32.2c0.7,2.9,2.1,5.5,3.9,7.6c1.8,2.3,4.1,4.3,6.6,6.3c5.7,4.6,11.8,10.7,19.5,8.3
				c0.8-1.2,1.5-3.3,1.3-4.3c-5.9-5.1-14.6-2.6-20-8.6c-1.7-1.8-3.1-3.6-4.1-5.6c-3.2-4.9-3.7-11.3-2.4-16.9
				C24,30.7,31.1,25,39.7,23c2.1-0.5,4.3-0.8,6.6-0.8c2.9-0.1,5.6,0.6,8,1.7c2.4,1.1,4.5,2.8,6.5,4.7c4.6,6.3,5.9,14.2,7.2,22.1
				c-1.3-7.9-4.6-15.5-10-21.4c-2.4-1.8-4.9-3.2-7.7-4s-5.7-1.1-8.9-0.6c-3.9,1.2-7.4,3-10.1,5.5s-4.8,5.6-5.7,9.3
				c-0.3,4.1,2.2,8,4.8,8.2c11.3,3.3,23.1,13.5,21.2,26c-2,12.5-18.1,7.1-26.7,3.2c-3-1-5.8-2.3-8.3-3.9C6.2,66.6-0.1,54.3,2.6,42.4
				c1.3,7.9,3,17.8,10.7,21.5C10,50.3,9.5,35.2,19.9,24.3c9.9-10.8,21.2-12.7,32.8-10.8c2.9,0.5,5.8,1.1,8.7,2
				c2.8,1,5.6,2.2,8.4,3.4c2.7,1.2,5,2.6,6.7,4.2c0.2,1.9,1.7,4.7,2.9,5.5c4.1,0.3,7.2-5.3,11.3-4.9c26.1,4.8,46.4,22.7,72.8,23.8
				c1.5-1.6,2.7-3.4,3.7-5.4c2-3.9,2.9-8.4,2.4-13.4c-1,2.2-2.2,4.3-3.6,6.3c-1.4,2-3,3.9-4.8,5.5c-21,0.2-39.1-11-57.6-19
				c-7.7-3.8-15,1.5-21.9,2.6c-3.8,1.6-5.8-4.1-9.9-4.7c-2.6-1.1-5.3-2.8-7.9-5c-2.8-0.9-5.6-1.6-8.4-2c-14.3-2.3-29.1,1-38.4,13.4
				C9.7,36.1,6.7,48.8,12.7,60C4,56.4,3,44.4,2.6,36.3c-3.4,14.9,2.5,31.1,15.6,38.4c2.6,1.5,5.5,2.7,8.8,3.7
				c8.6,3.1,22.4,6.8,24.8-2.7c4.3-16.9-14.2-24-22.2-35.8c-1.3-1.8-1.8-4.8-1-5.9c2.5-3.5,5.9-5.8,9.7-7.3
				c3.8-1.5,7.8-2.1,11.2-1.9c-1.9-0.1-3.8,0.1-5.8,0.5c-2,0.4-3.9,1.1-5.8,2c-3.8,1.8-7.1,4.4-10.1,7.9c-1.7,1.8-2.3,4.4-1.9,6.9
				s1.7,5,3.7,6.8c11.4,4.3,28.2,13.7,20.3,27.2c-4.4,9.9-16.4,4.8-23.9,1.4c-3.1-1-6.1-2.1-8.8-3.6c-5.4-2.9-10-7.5-12.5-13.6
				c-2.1-6.7-3.3-13.6-1.5-21c0.2,7.1,0.7,16.1,7.4,20.1c0.7-8.2-0.8-17.1,2.6-25.3C14.3,31,15.3,29,16.1,27.4z"/>
			<path class="st0" d="M181,13.6C178.9,12.8,176.9,11.2,181,13.6z"/>
			<path class="st0" d="M154.2,49.6c-7.8-1.9-13.9-8-21.3-9.8c8.1-0.3,14.8,3.6,21.1,7.5C160.3,50.6,159.6,51.2,154.2,49.6z"/>
			<path class="st0" d="M39.2,14.5c-22.2,4.2-31.4,28.1-27,48.6c-6.7-3.9-6.9-11-10-17.6C2,56.7,7.7,66.9,17,73.5
				c2.5,1.6,5.3,2.8,8.2,3.8c8,1.6,23.2,8.2,25.4-3.3c1.3-10.4-6.4-20.2-16.1-23.7c10,5.4,24.7,20.2,12.8,28.3
				c-6.2,5.1-15,1.5-21.3-1.2c-2.3-0.7-4.5-1.5-6.6-2.6c-2.1-1-4-2.3-5.8-3.8c-8.2-6.7-12-17.3-11.9-28.4c3,5.6,2.1,12.8,8.9,16.8
				c-3.8-16.6,3.6-33,18.4-41.6c9.3-5.1,19.1-5.2,28.8-3.1c3.2,0.7,6.3,1.7,8.7,2.9c3.4,2.5,6.9,5,9.3,7.2c1.7,4.2,5.7,3.5,7.1,0.3
				c-4.4,3.8-8.4-1.6-12.7-3.4c-2-1-4-2.3-5.8-4.2c-2-1.3-4.7-2.4-7.5-3.1c-2.9-0.7-5.8-1-9-0.7C45.1,13.6,42.3,14,39.2,14.5z"/>
			<path class="st0" d="M67.3,50.1c-2.7-6.9-1.1-15.3-7.6-19.7c-2-1.6-4-3-6.2-3.8c-2.2-0.8-4.5-1.1-7-0.7
				c-4.1-0.3-10.7,2.8-10.8,7.9c0.2,1,3.3,1.5,4.3,1.3c-4.9,0.8-4.8-4.3-3.1-6.6c5.9-5.6,14.6-4.7,21.1-0.1c2.1,1.6,4,3.7,5.2,6.5
				c0.8,1.7,1.5,3.5,2.3,5.7C66,43.4,66.6,46.8,67.3,50.1z"/>
			<path class="st0" d="M198.3,35.1c2.6-1.2,5.9-0.2,9.2,0.8c3.2,1,6.2,3.6,8.3,6.2c2.3,0.7,4.6,2.8,6.8,7c2.5,3.1,4.7,5.9,6.8,9.1
				c-3,0.5-5.9,0.9-8.4-0.9c-4.9,0.1-8.4,3.7-10.8,7.2c2.5-3.5,5.9-7.1,9.8-6.9c2.3-1.9,8.8,2.8,8.2-1.1c-0.5-3-2.6-5.2-5.2-7.9
				c-2.7-3.9-5.2-5.9-7.6-6.5c-1.8-2.6-5.2-5-8.4-6c-3.2-1-6-1.9-6.8,1c-0.5,1.9,0.7,4.8,2.8,5.8c2.2,0.4,5.1-0.3,7.1-2.5
				c2.2,0,5,1.9,9.1,6.1c3.4,2.9,6.5,6.8,8.9,8.9c-2.6-0.6-5-0.8-7-0.4c-2.6,2.9-5.4,5.1-8.3,6.6c-2.9,1.5-5.5,1.6-7-0.9
				c-1.6-4.4-3.6-7.7-5.8-10.1c-3.2-6.2-8-16.5-15.9-15.2c-8.9,1.5-10.2,11.8-15.3,17.8c9.5-9.7,4.4-28.1,15.8-33.1
				c6.6-3.1,14,4.8,18.9,11.2c2.3,1.2,4.4,2.7,6.2,4.3c2.9,2.9,5.5,6.6,8,8.1s5,3.8,7.4,5.6c2.4,2,4.7,3.8,6.9,5.6
				c2.3,1.7,4.5,3.4,6.8,4.8c-3.9,1.2-7.7,1-11.4,1.3c-3.7,0.3-7,0.1-10.1,2.2c-2.9,1.6-5.9,2.8-8.9,3.6c-2.5-3.5-5.1-6.2-7.7-8.2
				c-2.6-2.1-4.9-4.3-6.8-6.9c-2.7-3.3-6.8-9.7-11.4-6.9c-6.3,4.6-11.6,11.1-17.4,16.7c-1.9,1.9-3.8,2.7-5.6,2.7
				c-5.2,0.5-7.8-3.1-12.1-4.4c4.4,2.3,7.9,4.8,13.1,4.5c2-0.4,4-2.3,6.1-4.4c6.2-6.4,12.2-12.9,21-14.9c6.9-1.2,6.6,9,7.3,13.6
				c0.4,2.9,0.8,5.6,1.4,8.2c0.6,2.6,1.3,5,2.4,6.8c1.7,0.8,4.3-0.2,6.8-1.9c5-3.3,9.4-8.7,13.6-13.1c2.5-0.8,5.5-0.3,8.8-0.4
				c3.3-0.1,6.6,0.1,9.6-0.4c-2.1-0.7-4.1-1.6-5.9-2.7s-3.5-2.3-5.2-3.6c-2.5-2.6-5-6.2-7.8-8.7c-1.4-1.2-2.9-2.6-4.6-4.3
				c-1.5-1.6-3.2-3.1-5.1-4.4c-1.9-1.3-4-2.5-6.1-4c-7.3-4.9-15.7-18.7-23.5-11.3c-7.9,7.4,1.5,21-6.1,30.4
				c5.3-4.9,4.3-16.9,12.5-16.3c8.1-0.3,9.9,10.5,13,16.9c1.2,2.5,2.5,4.4,3.6,6.4c1.2,1.9,2.2,3.9,3.3,5.7c1.4,2.3,4.1,2,6.9,0.8
				c2.9-1.3,5.6-3.2,8.2-5.7c1.6-0.7,3.3-1.1,5.1-2.4c-1.8-1.7-3.5-4.6-5.5-7c-1.5-0.9-2.9-3-4.4-4.5c-1.5-1.8-3.1-4.9-5.4-6.6
				c-3.9,1-2.2,10.9-7.9,6.8C200.6,40.1,199.4,37.4,198.3,35.1z"/>
			<path class="st0" d="M87.4,92.8c-6.7-1.6-13.9-2.4-20.5-1.8c-2.3,0.6-4.4,1.5-6.5,2.3s-4.2,1.3-6.5,1.4c3,0,5.8-0.6,8.4-1.6
				c9.7-5.5,20.4-2.2,30.1-4.9c-0.5,3.1-3.1,5.6-6.1,6.1c9.4,7.6,21-1.5,27.3-6.6c-6.9,7.2-16.4,10.9-26,8.4
				c0.7-2.1,4.4-3.8,3.4-3.6c-6.7-3.9-15.6-2.5-22.9-3.3c19.7-9.4-7.9-29.1-5.6-45.7c5.3,19.4,18.3,36.5,39.2,40.1
				C80.4,77,67.9,56.8,66.2,34.8c-0.5-3-3-5.6-5-7c-2.1-1.7-4.4-3.2-6.9-4.4s-5.2-2.1-8.1-2.6c-2.6,0.1-5.1,0.4-7.6,1
				c-7.4,1.9-14,6.3-17.9,13.5c0.7-2.1,1.5-3.3,2.3-4.4c-6.9,7.2-9,18.7-3.6,27c2,2.7,4.5,4.8,7.4,6.8c3.1,1.6,5.6,4.2,8.9,5.7
				c-4.8-4.3-9.5-8.5-13-14.3c-1.4-2.3-2.3-4.9-2.7-7.5c-0.4-2.7-0.2-5.4,0.6-8.1C23.8,29.7,35,23.8,46,23
				c-7.9,1.3-16.4,4.8-19.1,13.3c-0.7,2.1-0.8,4.4-0.2,6.4c0.5,2,1.7,3.9,3.6,5.1c12.3,3.1,29,18.6,18.9,30.4
				c-7.6,9.4-20.4-0.6-29.5-3.3c-2.7-1.3-5.2-3-7.4-5.1C5.7,63.7,1.7,54.7,2.1,45.5c1,5.9,3.3,13.6,9.9,16.6
				c-0.7-10-2.5-20.9,2.9-30.9c9.3-16.1,26.2-20.5,42.3-17.4c3.2,0.6,6.3,1.5,8.9,2.8c1.8,2.4,3.6,4.1,5.4,5.4
				c2.2,2.4,3.7,5.2,6.9,6.7c7.4,1.8,12.2-6.1,19.7-3.3c19.6,7.9,45.4,28.9,63.8,17.7c-21.2-5.6-40.8-13.5-62.5-22
				c-8.7-3.6-13.5,4.3-20.7,3.5c-3,0.5-4.6-3.3-7.3-3.6c-2.5-1-4.9-2.7-7.3-5c-2.1-0.8-4.3-1.5-6.6-2.1c-4.6-1.2-9.3-1.8-14.3-1.7
				c-23,1.8-34.5,24-36.1,44.6c-3.1-6.6-5.4-14.3-3.6-21.7c-4.8,14-0.1,29.4,11.4,37.6c1.9,1.2,3.9,2.2,6,3c2.1,0.9,4.3,1.6,6.7,2.4
				c8,3.3,21.8,7,24.3-2.5c3.4-15.8-12.2-24.3-25.1-28.1c-2.4-2.8-2.5-6.1-1.2-9.2c1.3-3.1,3.8-6.1,6.5-8.1c2.1-1.4,4.2-2.5,6.4-3.5
				c2.2-0.9,4.4-1.6,6.5-1.9c4.2-1.5,6.8,2.1,10.1,3.5c-4.4-2.3-8.9-4.6-13.6-2.8c-3.8,1.6-7.2,5.3-5.6,9c1.5,2.8,5.6,3.1,7.1,5.9
				c-3.5-2.5-8.9-4.6-7.6-8.9c1.3-4.3,6.2-5.1,9.8-6.6c-1.8,0.5-4.2,1.3-6.6,2.4c-5,2.2-10,5.3-11.1,9.2c-0.6,2-0.2,4.1,1.6,6.4
				c9.8,9.3,28.2,16.4,21.8,32.7c-4.3,10.9-20.5,4.5-29.4,0.2c-2.5-1-4.8-2.3-7-3.9C3.8,64-1.9,48.7,3.4,35.2
				c-0.7,8.2-0.8,19.4,7.1,24.2C5.6,35.8,22.7,10.6,48.1,11.5c4.7-0.1,8.8,1,12.8,2.6s6.6,3.7,9.3,5.4c3,2,5.3,3.7,8.4,4.2
				c7.1-0.2,12.2-6.1,18.6-4.1c21.4,6.6,41.6,18.4,64.1,23.1c3-2.2,5.7-5.1,8.3-8.8c-1,2.7-2.3,5.4-3.7,8c-1.5,2.6-3.2,5-5.3,6
				c-22.5-2.6-43.7-14.3-65.2-21.8c-6.4-2-12,1-18.2,0c-1,0.2-2.5-2.6-4-4.1c-2-1.6-4.3-3.4-6.5-4.9c-1.6-0.9-3.6-1.7-5.7-2.3
				c-4.3-1.3-8.7-2.1-13.4-2C21,13,7.1,38.6,11,62.3C6.3,58,5.1,51.1,2.1,45.5C2,56.7,7.7,66.9,17,73.5c2.3,1.4,4.7,2.5,7.3,3.3
				c8.1,4.2,22.3,10,26.5-0.9c6.9-13.3-9.9-22.7-20.6-29.2c-2.9-2.3-3.9-5.2-3.5-8.2c0.4-3,2.2-6.1,4.4-8c1.8-1.6,3.6-2.8,5.6-3.8
				s4-1.7,6.2-2.1c2.8-0.5,5.5-0.2,8.1,0.6c2.6,0.8,5,2.2,7.3,3.9c5.7,4,7,11.9,8.1,18.8c-1.2-6.9-1.3-14-6.2-19.4
				c-1.8-1.9-3.7-3.6-5.9-4.8s-4.7-1.9-7.5-2c-2.5,0.1-5,0.5-7.4,1.1c-12,3.3-21.6,13.5-19.4,26.7c0.4,2.5,1.4,4.6,2.8,6.3
				c5.1,10.6,25,8.3,23.1,20.8c-0.5,3.1-6.7,2.1-10.7,2.8c2.8-1.5,6.1,0,9-0.5c-5.1-6.2-11-11.3-17.9-16.5c-2.4-2-4.6-3.6-6.3-5.7
				c-1.7-2-2.9-4.4-3.2-7.7c-0.8-15.1,11-25.9,24.5-28.4c2.7-0.5,5.5-0.6,8.2-0.4c3.2,1.1,6.1,2.7,8.6,4.6c2.5,2,4.7,4.3,6.3,7.5
				c4.4,18.1,9.3,41.6,30.7,48.2c-11.5-2.1-20.9-9.7-25.7-20c5.8,10.2,12.5,26.3-4.1,30.1c10.4,1.3,21.2-6.6,31.2-1.2
				c1.3,1.8-3.8,1.6-3.3,4.6c9.9-1.7,20.2-6.4,22.5-16.9c-0.3-2-1.8-4.8-2.6-3.6c-33,8.6-47-20.5-50.7-46.8C61,24,59.3,21.4,57.5,19
				c1.3,1.8,3.6,3.4,4.9,5.3c-1.3-1.8-2.6-3.6-4.8-4.6c-2.2-1.2-5.1-1.8-8-2C37.8,16.8,25.6,22,19.2,32.5c-5.3,9-4.1,18.7,0.5,27
				c1.1,2.1,2.5,4.1,4,6.2c1.3,1.4,2.8,4.2,5.1,5.8c-1.2-0.8-2.1-0.7-3.3-1.5c1.8-1.3,3.1,0.5,4.3,1.3c-1,0.2-3.1-0.5-1.8,1.3
				c1.2,0.8,3.1,0.5,4.3,1.3c-2.8-4.6-6.4-8.1-10.4-11.3c-1.6-1.4-3-3-4.2-4.8c-1.1-1.8-2-3.9-2.4-6.4C13,37.6,21.2,26.1,33.5,21
				c3.5-1.3,6.9-2.1,10.2-2.4c3.3-0.3,6.6-0.1,9.7,0.6c2.4,1.2,4.5,1.8,6.8,3.5c2.1,2.7,4.1,5.4,5.7,8.7C67.2,59,89.1,80.6,116.6,75
				c-1,12.3-14.1,18.6-25.1,19.4c1.8-1.3,5.4-3.9,4.3-4.8c-6.9-4.9-16.1,0.7-24.5-1c14.3-5.4-2.1-18.9-3.6-27.8
				c8.2,6.7,14.8,15.8,24.7,20.2C74.3,70.9,69.1,51.6,65.1,32.9c-1.5-3.2-3.7-5.4-6-7.4c-2.4-1.9-5.1-3.5-7.9-4.8
				c-2.3-0.4-4.8-0.6-7.2-0.4c-7.4,0.5-14.5,3.4-20.1,9.4c2.5-3.5,4.9-6.9,8.9-7.6c-6.7,2.1-11,6.9-14.1,12.5
				c-4.6,8.9-2.9,17.2,2,23.5c1.7,2.2,3.7,4.3,6,6.5c5,5.4,10.6,8.5,17.1,11.5c0.7-2.1,1.3-4.3,0-6.1c-7.9-4.8-18.4-7.1-22-16.6
				c-0.9-2.1-1.3-4.4-1.4-6.7c-0.2-6.9,3-14.1,8.3-18.8c3.9-2.7,8.5-4.5,13.2-5.3c2.4-0.4,4.7-0.5,6.9-0.3c3.2,0.1,5.9,1.2,8.2,3
				c2.2,1.8,3.9,4.3,4.8,7.3c-2.3-2.2-5.2-4.5-8.5-6.1c-3.2-1.6-6.7-2.4-10.3-1.7c-2.1,0.5-4.2,1.3-6.2,2.4c-2,1.1-3.8,2.5-5.6,4.4
				c-1.2,1.7-2.4,3.9-3,6.3c-0.6,2.4-0.7,4.9,0.1,7.6C38,53.7,60,64.2,48.2,78.4c-6.7,8.2-19.2,0.2-28.9-3.3
				c-2.8-1.6-5.3-3.4-7.4-5.5c-6.4-6.3-9.7-14.9-9.7-24C3.5,53.4,6.6,60,12.5,65.1c1.2,0.8,3-0.5,2.8-1.5
				c-3.1-12.7-5.4-26.5,3.9-37.2c7.6-9.4,18.1-13.2,29.1-14c2.5-0.2,4.8,0,7.1,0.5c2.2,0.5,4.4,1.3,6.4,2.3c1.8,2.4,3.7,4.2,5.7,5.5
				c1.9,1.3,3.8,2.2,5.5,3.1c1.8,1.5,4.5,5.1,7.4,4.6c5.8-2,12.3-5.1,18.7-3.1c21.4,6.6,42.3,22.3,65.1,19.5c1.7-2.1,3-4.2,3.9-6.5
				c2.9-6.8,3-14.2,2.6-21c0.9,7.3-1.1,13.8-4.8,19c-1.2,1.7-2.7,3.3-4.3,4.7C136,39.3,115.9,22.4,92,19.3c-6.1,0-12.5,4.1-18.5-0.3
				c-2.2-0.7-4.4-1.7-6.7-2.9c-3-0.8-6.2-1.6-9.4-2.2c-15.9-2.9-31.4-1.8-41.8,15.2c-6.4,10.2-4.4,22-3.6,33
				c-7.2-6.9-9.9-16.6-8.4-26C-0.8,46,2,56.7,7.4,64.9c1.4,2.1,3.1,4,5,5.7c1.9,1.6,4.1,3,6.4,4.1c10.1,3.8,26.7,12.2,31.8,0.2
				c6.7-14.3-10.7-21.5-19-31.6c-1.5-2.3-1.8-4.7-1.4-6.9s1.5-4.4,2.8-6.2c-1.3,4.3,1,5.3,3.7,6.4c3.5,0.5,5,3.3,7.3,5
				c-4.8-4.3-11-11.3-2.6-15.8c4.8-1.8,10.2,0.3,14.5,1.6c-2.3-1.6-4.4-2.3-7.4-2.1c-2.7-0.4-5.7-0.3-9.1,0.8
				c-5.8,1.7-12,7.5-12.1,13.7c-0.1,2.1,0.6,4.3,2,6.8c12.4,5.5,28.6,17,19.8,31.6c-4.9,6.9-15,1.5-22.2,0.2c-2.4-0.8-4.7-1.7-7-2.8
				C8.9,70.4-0.6,58.6,3.1,45.4c2,5.8,4,11.5,7.7,15.9c-0.5-15.1,0.6-32.6,14.3-41.9c8.6-6,18.5-7.7,28.3-6.5c3.3,0.4,6.6,1.1,9.8,2
				c2.8,2.4,5.6,3.9,8.3,4.7c7,4,15.5,0.6,22.8,1.4c19.7,2.8,45.1,8.7,57.9,24.8c-21.5-1.5-38.2-15.9-58.2-20.7
				c-4.1-0.3-9.7,2.6-15,1.5c-3.3-1.5-5.9-5.1-9.2-6.1c-2.2-1-4.4-2.5-6.6-4.5c-2.5-0.7-5.1-1.4-7.7-1.8
				c-10.3-1.7-20.8-0.4-30.3,6.2c-14.6,9.5-12,25.3-16.7,39.3c-3.9-5.4-5.9-11.2-6.9-17.1c-0.5,11.9,4.6,24.3,15,30.7
				c2.1,1.3,4.4,2.4,6.9,3.2c8.5,2.6,20.7,8.6,25.5,0.8c9.7-14.8-9.4-25.8-22.4-30.7c-1.1-0.9-1.6-3.8-1.9-5.8
				c0.9-8.5,7.5-13.4,14.9-15.6c2.5-0.7,5-1.1,7.4-1.2c3.2,0.5,5.9,1.6,8.3,3.1c2.4,1.6,4.4,3.6,6.2,6c3.8,8,4.3,17,9.8,25.2
				c-4.4-8.4-4.3-19.6-9.7-28.1c-1.4-1.6-2.8-3.1-4.4-4.3c-3.2-2.4-6.8-4-11.2-3.9c-2.2,0-4.3,0.3-6.4,0.9
				c-10.3,2.7-18.4,11.6-19.1,22.6c-0.3,2.8,0.2,5.5,1.3,7.8c1.1,2.5,2.7,4.7,4.7,7c4.4,4.8,9,8,14.6,11.2
				c-7.1,0.2-11.8-4.1-17.6-8.7c-1.5-1.4-2.9-3.1-4-5c-6.9-11-0.2-25.3,9.8-32.1c4.9-2.9,10.3-4.5,15.6-5c2.7-0.2,5.3-0.2,7.6,0.3
				c2.8,1.5,5.4,3.3,7.7,5.3c2.3,2.1,4.2,4.7,5.5,8.1c1.7,19.4,11.9,37.9,28.7,47.3C75,74.9,65.6,55.2,61.5,36.6
				c3.6,15.6,9.4,31.9,23.2,41.7c-6.9-4.9-11.8-10.2-15.1-17.7c1.5,8.9,10.7,15.4,8.2,25c-1.5,3.3-6.2-1-8.7,2.5
				c7.7,3.8,16.9-1.8,23.7,2.1c3.1,0.5-3.3,4.6-2.3,4.4c14.5,7.7,31.9-9.4,28.3-25c1,18.1-16.4,29.1-33,26.8
				c4.9-0.8,6.4-4.1,6.7-8.2c-9.4,4.6-20.6-1.6-29.8,5.1c-2.3,1.1-4.8,1.9-7.5,2.1c3.9-0.7,7.8-1.8,11.9-3.1
				c5.6-1.9,11.8-0.9,17.6,0.1C85.7,92.6,86.7,92.7,87.4,92.8z"/>
			<path class="st0" d="M43.1,83.1c-6.3,0.2-11.8-2.9-17-3.8c-2.6-0.7-5-1.4-7.2-2.6c-2.2-1.1-4.3-2.6-6.2-4.5
				c-11-11.3-15-28.9-7.1-42.4c-2.8,7.6-3.1,17.8,2.2,25C6.4,34.7,19.4,15.3,40.1,11.8c7.9-1.3,15.2,0.2,22.5,2.4
				c2.4,0.7,4.7,1.5,6.6,2.4c3.9,2.1,7.6,3.1,10.5,3.7c10.5,0.3,20-3.3,29.4-1.8c11.5,2.1,21.4,6.6,32.9,4.2
				c3.2-0.8,5.6-2.3,7.1-4.6c6-9.3,13.6-16.7,25.7-12.6c11.8,4.1,22.5,13.5,23.9,27.4c-6.1,0-8.7-9.7-12.2-6.1
				c-7,6.7-11.5,15.9-17,23.4c-1.8,2.5-3.7,4.8-5.9,6.8c-26.1-7.8-47-29.7-72.1-28.5c-10.2-0.3-15.8-3.4-22.5-8.1
				C67,19.3,65,17.8,63,15.9c-2.7-0.9-5.5-1.5-8.3-2c-5.6-0.9-11.4-1-17.2,0.3C18.1,19.5,11.3,39.9,9.4,58.5
				c-0.5,3.1-4.3-1.3-4.1-0.3c1.6,6.3,6,11.4,11.6,14.7c1.9,1.1,3.9,2,6,2.6c8,1.8,15,7.7,23.6,4.2c10.4-4.8,2.3-16.6-2.6-21.9
				c-3.8-4.4-11-5.3-15.3-0.5c11.7-9,26.6,7.7,22.2,17.6c-4.3,10.9-18.4,5.1-27.1,1.5c-2.1-0.7-4.2-1.6-6.1-2.8
				c-5.8-3.5-10.3-9-12.1-15.5c3.3,1.5,5.6,3.1,8.1,5.7c-4.6-15.5-0.5-33.4,13-43.7c9.1-6.1,19.1-7.2,28.8-5.3
				c3.2,0.6,6.3,1.6,8.7,3c2.1,1.2,4.2,3.7,5.9,6c1.1,2,1.8,6,2.8,5.8C106,24.1,134,45.8,163.6,59c2.3-1.4,4.4-3.1,6.3-4.9
				c7.6-7.5,12.1-18.4,14.4-28.9c0.3-4.1-1.2-6.9-4.6-9.4c-3.6-3.4-9.5-2.5-11.8,2c-2.7,5-3.3,10.7-4.4,15.9
				c-0.6,2.6-1.3,5.2-2.5,7.5c-23.5,1-43.1-13-64.3-18.6c-6.4-2-11.7,3-17.8,3c-4.3-1.3-8.9-4.6-11.8-8.3c-2-1.1-4.6-2-7.3-2.7
				c-8.2-2.2-16.7-2.8-25.3,0.2C13.3,21.3,5.4,47,16.6,65.4C7.1,62.9,4.3,52.3,3,44.4C0.9,56.2,7.4,68,17.2,73.9
				c2.5,1.5,5.2,2.7,8.1,3.7c8.1,3.3,22.1,8,25.5-1.7c6.7-14.3-9.9-22.7-21.2-29.9c-2.3-1.6-1.8-4.8-2.1-6.7
				c0.1-2.3,0.9-4.3,2.1-5.9c1.2-1.7,2.8-3.1,4.7-4.2c1.9-1.1,4.1-2,6.3-2.7c2.2-0.7,4.4-1.1,6.4-1.3c-1.8-0.4-3.8-0.1-5.8,0.8
				S37.2,28,36,29.7c-2.3,4.4,1.6,3.8,3.9,5.4c-2,0.3-3.3-1.5-3.5-2.5c2.6-7.3,10.3-8,16.5-5.3c2.1,0.9,4,2.1,5.5,3.7
				c10.4,13.5,9.1,36,26.7,44.2c-14.6-8.7-17.6-26.5-21.3-41.5c-1.2-2.5-2.7-4.5-4.4-6.3c-1.7-1.7-3.6-3.4-5.6-5
				c-2-1-4.6-1.5-7.4-1.5c-2.9,0-5.8,0.5-8.7,1.3c-10.7,2.8-18.2,12.2-19.4,23.5c-0.1,2.3,0.1,4.5,0.7,6.5c0.6,2,1.4,3.9,2.6,5.5
				c3.3,3.1,6.1,7.7,10.5,10c-2.1-6.7-8.9-10.7-10-17.6c14-1.3,29.6,7.2,28.1,22.7c-1.1,11.3-15.9,7.7-23.5,4.5
				c-3-1-5.9-1.9-8.5-3.3c-2.6-1.2-5-2.9-7.1-4.8C4,62.4,2.6,54.6,2.1,45.5c3,5.6,2.1,12.8,8.9,16.8c-3.6-21.7,7.7-44.9,30.4-48.7
				c5.3-0.6,10.5-0.1,15.5,1.1c2.5,0.6,5,1.3,7.1,2.2c1.9,1.9,3.8,3.3,5.6,4.4c4.6,1,5.8,7.9,10.7,7.1c29.4-5.9,55.4,16.1,80.5,30.4
				c3,0.8,5.7-0.7,8-2.6c11.7-9.3,14.5-27.5,4.9-39.4c0,0-2.8,1.5-3.6,2.6c-2.1,5.4-3.1,11.9-5.2,17.3c-1.1,2.7-2.4,5.2-4.5,6.7
				c-2.5,0-5.9-1.1-10.7-3.4c5,2.1,8.4,2.9,10.9,2.5c1.9-2.1,3.2-4.7,4.2-7.5c2-5.7,2.9-12.1,6-17.7c2.5-3.5,7.9-1.3,12-1
				c-2,0.3-3.8,1.6-4.4,3.8c0.6,11.4-1,23.6-7.6,32c-1.6,2.1-3.6,4-5.9,5.5c-2.5,0.7-5.6,0.2-7.9-1.5C136.3,41.3,113.4,32,90.1,25.7
				c-4.3-1.3-11.3,4.9-15.3-0.3c-2.5-1.5-5.4-3.7-8.6-7.9c-1.8-1.1-4.2-2.1-6.7-2.8c-12.7-3.5-26-2.4-37.1,7
				C10,32,7.9,49.6,15.3,63.6C6.8,61,4.3,52.3,2.1,45.5c0.3,11.8,6.2,23.3,16.7,28.9c2.1,1.2,4.4,2.1,6.9,2.9
				c7.6,3.4,23.6,7.9,24.7-3.5c1.3-10.4-6.4-20.2-16.9-22.5c-5.3-1.1-8.4,4.4-7.7,8.4c1.3,1.8,3.8,4.4,5.1,6.2
				c-2.6-3.6-7.1-5.9-8.7-9.7c-2.3-2.9-3.6-6.5-3.8-10.5c0.5-9.2,6.2-17.3,13.6-21.5c2.7-1.5,5.4-2.5,8.2-3c2.8-0.6,5.6-0.8,8.4-0.6
				c2.3,0.9,4.5,2.1,6.5,3.4c2,1.3,3.9,2.9,5.6,4.5c7.6,12.9,6.3,29.3,17.3,40.6c-9.5-8.5-9.9-22.7-16.4-34.1
				c-1.6-2.3-3.5-4.2-5.5-5.9c-6.7-3.9-16.8-3.3-19.6,4.3c0.2,1,1.5,2.8,3.5,2.5c-4.3-1.3-5.9-5.1-2.3-7.7c2.6-2.5,6.9-1.2,9.5-3.6
				c-2,0.3-4.9,0.8-7,1.6c-2.3,0.7-4.5,1.6-6.5,2.8s-3.6,2.5-4.8,4.2C28,35,27.3,37,27.5,39.3c0.3,2,0.7,3.9,2,5.8
				c8.6,8.7,23.5,13.3,22.9,27.6c-1.8,13.5-19.1,7.2-27.6,4.3c-2.3-0.7-4.6-1.6-6.7-2.7c-4.2-2.2-7.9-5.4-10.6-9.3
				c-4.3-7.4-6.9-17.1-4.3-25.6c-0.5,9.2,2.1,18.9,10,23.7C7.2,45.7,14,25.3,30.7,16.4c7.5-3.8,15-4.3,22.5-2.9c2.5,0.5,5,1.2,7.4,2
				c2.5,2.3,5.1,4.1,7.7,5.4c4.8,0.5,7,7.3,10.8,5.6c27-8.6,51.8,12.6,77.2,16c2.9,0.3,4.7-0.8,5.8-3.2c3.2-7.2,2.6-16,7.6-22.9
				c2.6-2.5,8.2-5.4,9.7-2.6c7.4,14,3.6,33.9-11,43.4c-3.2,2.1-6.4,2.7-9.6,0.9C134.3,41.6,106.5,27,76.3,28c-2,0.3-4.6-3.3-7.5-5.3
				c-1.8-1.2-3.6-2.9-5.3-5.2c-1.8-1-4.2-1.8-6.6-2.3c-7.4-1.7-15-1.7-22.2,0.5C14.5,22.2,9.9,43.2,10.9,61.3
				c-5.6-3.1-5.6-9.2-8.4-13.8C2.8,57.6,8,66.8,15.9,72.3c2,1.4,4.2,2.6,6.5,3.5c7.6,3.5,17.5,7.9,24.7,2.7
				c10-6.7-2.3-19.9-11.2-24.5c9.5,2.5,20.7,14.8,11,23.5c-7.9,7.4-17.3-0.2-25.6-2.6c-2.4-1-4.7-2.2-6.7-3.8
				C8.4,66.5,4,59.4,3.1,51.4c2,5.8,5.8,10.2,10.4,13.5c-4.8-16.4-1.8-35.2,12.8-44.7c9.5-6.7,19.8-7.4,30-5.3
				c2.6,0.5,5.1,1.2,7.2,2.1c2.7,1.6,5.4,3.5,8,5.1c2.1,2.4,3.9,7.2,6.9,6.7c30.6-5.1,55.3,21.2,82.9,31.1c2.2,0,4.3-1.7,6.2-3.6
				c5.9-5.6,10.4-13.3,13.3-21.4c3.8-7.7,15.6-3.6,16.1-6.8c0.8-13.3-15.1-23.8-29.4-24.5c-9.1,0-14.4,4.9-18.4,11.2
				c-1.3,2.1-2.5,4.3-4.4,5.9c-15,5.4-29.8-4.3-44.7-2.8c-6.1,0-10.8,1.8-16.4,4.8c-3,0.5-6.6-3-9.4-3c-1.9-0.6-4-1.4-6-2.6
				c-2.2-1.1-4.9-2.2-7.7-3.3c-8.6-3.1-17.3-5.2-27.2-1C15.1,20,5.9,37.8,7.9,55.7c-5.3-7.2-3.6-15.6-3-23.8
				c-4.9,6.9-4.6,15-3.3,22.9c2.1,6.7,6.5,13.4,12.2,18c1.9,1.5,3.9,2.9,6.1,3.9c4.9,1.6,9.2,2.9,14.9,4.9
				C37.4,82.3,40.2,82.8,43.1,83.1z"/>
			<path class="st0" d="M120.9,35.1c-8.2-1-13.3-7.2-18.2-12.5c8.2,0.7,13.7,8.9,20.7,11.1C127.2,35.4,125,36,120.9,35.1z"/>
			<path class="st0" d="M6.5,56.1C4.3,52.3,5.3,46,2.6,42.4c-2.7,14,5.6,26.8,17,32.8c2.3,1.3,4.7,2.3,7.3,3.3
				c-3.3-1-6.2-2.3-8.9-3.9C4.8,66.9-1.8,49.5,3.4,35.2c-0.7,8.2,0.8,17.1,6.1,24.3c-1.5-21,8.8-44.1,32.5-48
				C18.4,15.4,5.4,40.9,12.8,63C11.1,62,8.8,59.7,6.5,56.1z"/>
			<path class="st0" d="M57.8,29.4c2,3.5,4.9,5.5,7.4,8.3c-1-2.4-2.2-4.6-3.7-6.4c-1.6-1.6-3.4-3-5.2-4.2c-3.7-2.4-7.9-3.9-12.6-3.4
				c-2.6,0.4-5.2,1.3-7.6,2.6c-2.4,1.3-4.7,3.2-6.9,5.5c2-2.2,4.2-3.9,6.7-5.2c2.4-1.3,5-2.1,7.7-2.5c4.7-1.2,8.8,0.2,12.6,2.6
				c1.9,1.2,3.6,2.7,5.3,4.4c1.5,1.8,2.7,4.1,3.8,6.5c-2-1.6-3.4-3.7-4.9-5.5c-1.6-1.5-3.2-3-5.3-3.7c0.5,3,5.1,0.2,5.6,3.1
				c-2.6-3.6-6.1-6.1-10.4-7.4c0,0,0.2,1,0.5,1C51.7,25.8,54,27.1,57.8,29.4z"/>
			<path class="st0" d="M107.9,82.4c2.3-3.3,1.5-8.2,3.9-11.7c1.3,1.8,2.5,2.6,2.8,4.6c0.7,10-10,18.9-19.6,16.5
				c0.8-1.2,3.6-2.6,2.3-4.4C92.6,83.1,86,86.2,81.2,88c-2.8,1.5-6.9,1.2-9.4-1.5c1.8-1.3,6.2,1,5.8-2c-1.5-15-14.5-26-15-41.1
				c5.3,19.4,19.1,35.3,37.5,42.4c-23.4-12.3-30.3-35.5-39-57.8c-2.5-2.4-5.2-4.6-8-6.6c-1.8-0.6-4-0.9-6.2-0.9
				c-6.8,0-13.6,1.9-19.6,5.4C20,31.4,13.5,40.6,16.1,50.3c0.7,2.7,1.9,5.2,3.4,7.4c1.6,2.3,3.5,4.4,5.7,6.5c5,4,10.7,8.1,17,9.1
				c-2.6-9.7-15.6-8.5-18.8-18.4c-1.3-1.8-2.2-3.9-2.6-6.4c-1.2-13,10-25,23-26.2c-6.7,2.1-13.1,6.3-17.3,12
				c-1.1,2.2-1.9,5.4-1.7,8.1c0.2,2.8,1.3,5.2,3.7,6.3c13.6,0.1,26.1,14.3,22.1,27.1c-3.6,8.7-17.4,4.9-25.1,1.3
				c-3.3-1.1-6.4-2.6-9.2-4.5c-8.4-5.4-14.3-15.1-14-25.3c2.8,4.6,4,11.5,8.6,14.8c0.8-13.3-1.7-28.1,9.7-39.1
				c10.4-10.4,21.6-11.7,33-9.6c2.8,0.5,5.7,1.3,8.5,2.2c2.5,1.7,5.2,3.2,7.9,4.3c6.5,3.9,12.1,7,21.1,6.6c24-2,46.4,22.7,71.2,19.2
				c1.2-2,2.2-4.1,3-6.3c-2.7,2-5.8,2.9-9.6,1.6c-25.4-4.8-49.3-26.2-75.3-17.8c-2,0.3-3.3-1.5-4-2.1c-1.3-0.8-2.9-1.7-4.8-2.7
				c-1.9-0.9-3.8-2.1-5.8-3.4C63,14.1,60,13.4,57,12.9c-15-2.4-30.3,0.8-40.7,14c-6.6,9.2-6.7,20.4-8,30.7
				c-6.1-6.1-5.4-14.3-4.6-21.5c-5.9,13.2,1,30.2,13.5,38.3c1.9,0.9,3.8,1.8,5.8,2.4c2,0.9,4,1.6,6.1,2.3c8.7,3,21.4,5.9,23.8-3.6
				c2.6-14.6-11.2-24.5-21.2-33.4c-4.2-3.4-3.2-6.8-0.5-9.8s7.4-5.6,10.3-6.5c-1.4,0.7-4.1,2.7-5.9,4.7s-2.8,3.9-0.8,4.8
				c2.7,2.4,4.3,6.2,7.4,6.7c1-0.2,2.5-3.5,2.3-4.4c-4.6-3.3-4.6-9.4-0.7-10c3.3-0.6,6.3-0.3,9,0.4c2.7,0.8,5.2,2.2,7.4,3.9
				C70.4,47.3,68.2,71,89.8,78.5c-18.4-7.1-20.9-27.9-27.1-43.7c-1.6-2.4-3.7-4-6-5.2c-2.4-1.1-5-1.8-7.9-2
				c-7.2-0.8-4.9,6.9-3.9,12.8c-5.4-2.1-10.7-3.3-11.8-10.2c-1.1,2.2-2.5,4.7-3,7s-0.3,4.4,1.6,6.1c9.1,8.9,24.9,18.5,20.2,32.4
				c-3.9,12.8-21.7,3.6-31.4,0.2c-2-0.8-3.9-1.9-5.7-3.1C5.7,66.6-0.2,55.9,3,44.4c2,5.8,4,11.5,8.7,15.8
				c-1.3-7.9-2.5-14.8-0.7-22.2c6.6-21.4,30.4-30.4,50.6-24.7C50,10.1,38,11.1,27.8,16.9C13,25.5,7.9,43.5,11.7,60.1
				c-2.3-1.6-4.8-4.3-6.3-7.1c2.5,2.6,3.1,6.6,6.4,8.1C5.6,41.9,15.1,20,35.3,13.6c9.1-3,17.3-1.4,25.2,1.2c2.6,0.9,5,1.9,7,2.9
				c3.4,2.3,6.9,3.4,10,3.8c26.4-4.2,51.2,10.9,76.4,19.7c4.2,2.2,8,3.4,11.1,2.4c-0.7,2.1-1.6,4.1-2.8,5.7
				c-23-2.3-41.3-14.5-62-23.2c-7.7-3.8-14,1.3-20.9,2.5c-2,0.3-4.4-2.3-6.3-4.5c-1.4-0.8-3.1-1.7-5-2.9c-1.9-1.1-3.8-2.6-5.5-4.5
				c-2.3-1.1-4.8-2.1-7.4-2.8c-5.2-1.4-10.7-1.8-16.7,0.3c-20.2,6.4-28.1,26-26.9,45.1C6.3,58,5.3,52.1,2.6,48.5
				c0.3,8.1,3.6,15.6,9.7,21.7c1.8,1.6,3.7,2.9,5.8,4c2.1,1.2,4.2,2.1,6.4,2.8c6.5,2.3,14.1,5.1,21,3.9c4.9-0.8,7.1-6.3,6.4-10.2
				C49,59,38.6,51.6,27.5,46.5c-1.6-1.4-2-3.7-1.8-6c0.2-2.3,1.1-4.7,1.8-6.4c3.5-4.9,8-8,12.9-9.6c2.4-0.8,4.9-1.2,7.3-1.1
				c2.9,0.3,5.5,1.3,7.8,2.6c2.3,1.4,4.3,3.1,6.1,5.1c5.1,6.5,2.6,16.1,6.7,22.5c-3.3-7.6-2.8-16.8-7.9-23.7
				c-1.9-2.3-3.9-4.3-6.3-5.8c-2.4-1.5-5.2-2.4-8.5-2.3c-2.5,0.1-5,0.4-7.4,1.1c-7.2,2-13.5,6.6-17.3,14.3
				C18.2,43.1,19,50,22.5,55.2c1.1,1.9,2.6,3.7,4.2,5.4c6.4,6.1,21,2.7,19.8,14c-1.3,10.4-14.6,3.5-22.3,0.7
				c-3.9-1.4-7.5-3.3-10.9-5.3c2,1.2,4.3,2.3,6.8,3.2c2.5,0.9,5.2,1.7,7.9,2.6c4.8,2.1,9.1,3.4,13.4-1.4C36,72.3,31.4,69,27,65.3
				c-2.1-1.6-4.1-3.1-5.7-4.9c-1.6-1.7-2.8-3.7-3.5-6.4c-2.3-7.7-2-17.9,5.2-23.2c-0.7,2.1-1.5,3.3-2.3,4.4
				c4.5-7.2,11.5-11.6,19.1-13.3c2.5-0.6,5.2-0.9,7.8-0.8c3.7,0.5,6.8,1.6,9.7,3.3c2.8,1.7,5.2,3.9,7,6.9
				c3.6,19.4,10.4,41.6,30.1,50.4c-15.3-6.6-27.5-18.7-29.3-35.7c0.8,11,6.3,19.2,13.5,26.1C73,69.1,70.9,62.4,67.1,58
				c2.6,9.7,17.8,21.4,7.3,31.2c7.6,2.8,13.3,0.8,18.4-5.1c1.3,1.8,0.8,4.9,2.1,6.7c7.7,3.8,15.9-1.7,18.9-8.2
				c1.3-4.3,1.5-9.4-3.1-12.7c3.8,4.4,1.5,8.9-1.8,12.5C108.4,82.4,108.1,82.4,107.9,82.4z"/>
			<path class="st0" d="M8.3,47.2c-0.6,1.4-0.4,2.4-0.2,3.4c-0.2-13.2,3.4-28,15.4-35c-7.1,6.3-13,13.3-14.6,23.1
				C8.3,42.8,8.2,45.9,8.3,47.2z"/>
			<path class="st0" d="M162.5,60.2C138.8,50,119.2,30,92.4,27.4c-6.1,0-13.6,3.3-18.6-3.4c-1.9-0.9-4-1.9-6.3-3.1
				c-2.4-1.2-4.6-2.8-6.8-5.1c-3-1.2-6.1-2.2-9.1-2.7c-6.1-1.1-12.3-0.4-18.7,4c7-3.7,14.5-4.4,21.8-3.1c2.4,0.4,4.9,1.1,7.2,2
				c2.3,1.3,4.3,3.4,6.1,5.1c3.7,3.7,6.5,8.3,11.6,8.5c6.9-1.2,14.1-6.4,20.9-2.5c14.6,8.7,30.4,12.1,45.1,20.8
				c3.6,3.4,9,5.6,13.1,9.2c3.1,1.5,6.3,0.7,9.4-1.9C168.3,55.4,166.7,57.2,162.5,60.2z"/>
			<path class="st0" d="M29.9,54.8c-1.3,0.6-3,1.5-4.2-0.7c-1.5-2.3-2.6-4.5-3.1-6.9c-1.7-6.9,1.2-14.4,8.1-18.6
				c-2.6,2.5-5.3,6-6.7,9.7c-1.4,3.8-1.5,7.9,1.1,11.5c2.7,3.6,5.9,5,10.5,4.2C35.7,54.2,33.5,54.4,29.9,54.8z"/>
			<path class="st0" d="M38.1,62.5c1.3-0.1,3.1,0.1,4.5-0.9c1.3,3.9-0.4,6.5-3.1,7c-2.7,0.6-6.4-1-8.5-4.1c-0.2-1.1,2.6-0.3,4,0
				C36.7,64.2,37.6,63.3,38.1,62.5z"/>
			<path class="st0" d="M71.4,35.8c-0.7-4.2-1.2-7.9-2.2-10.7c-1.2-2.6-2.8-4.8-5.5-5.6c-2.1-1.6-5-2.8-8.2-3.5
				c-9.9-2.1-20.4-0.9-30,5.3c-6.2,5.1-10.2,11.8-13,19.4C10,51.3,13.4,63,21.1,70.2c1.5,1.5,3.3,2.9,5.2,4.4c4.5,2.7,10.9,4.6,14-1
				c-5.3-1.1-9-5.6-13.8-8.3c-1.9-1.6-3.6-3.1-5-4.8C20,59,18.8,57.2,17.9,55c-2.5-8.7-2.3-19.9,5.7-26.3
				c-7.9,7.4-9.9,19.9-4.3,29.1c1.3,1.8,3,3.2,4.8,4.4c5.9,5,15.3,6.5,18.5,14c-6.7,2.1-14.1,0.3-20.2-1.9c-2.8-1-5.4-2.9-7.4-5.6
				c1.3,1.8,3.1,0.5,4.1,0.3c-5.4-8.2-8.1-17.9-6.6-27.3c3.3-16.8,18.7-27.5,36-27.3c2.8,0,5.5,0.4,8.2,1.1c2.6,0.7,5,1.6,6.7,3
				c1.3,1.6,2.6,3.3,4,5c1.2,1.9,2,4.1,2.7,6.4C71,34.1,71.3,35.3,71.4,35.8z"/>
			<path class="st0" d="M97.5,13.2c2.8,0.7,6.9,1,9.2,2.7c14.3,12.8,31.9,14.9,48.5,21c2.6,0.4,3.7-0.3,4.3-2.4
				c3-6.6-4.3-7.4-6.9-11c-5.4-8.2,0.2-17.3,7.9-19.6c13.3-5.3,28.1-1.7,37,8.5c2.4,1.8,4.3,2.9,6.1,4.2c1.8,1.2,3.4,2.6,5,4.1
				c3.6,3.4,6,4.8,8.3,6.2c4.5,2.8,8.5,7.2,11.9,13.6c2.6,2.3,5.3,4.3,7.9,5.9c8,4.7,16,5.4,21.5-4.1c8.9-13.7,16.4-35.2,37-27.5
				c-6.9-4.9-15.3-6.6-23.2-5.2c20.4-5.4,35,9.3,48.2,21.3c-14.1-5.7-34.5-24.6-44.2-3.8c-3.9,6.7-0.3,16.3-7.2,23.5
				c-11.8,10.4-27.1,8.1-39.5,0c-2.5-1.7-4.8-4-7-6.8c-2-2-4.2-4.1-6.3-5.1c-2.1-3.5-4.4-4.3-6.9-3.7c-2.4,0.6-4.9,2.5-7.1,4.2
				c-0.9-10.8-4.7-21.3-14.7-26.7c-6.7-3.9-16.3-6.4-22.5-1.3c-9,6.6,0.8,17.1-2.6,26.8c-0.8,2.7-2.4,4.2-4.6,4.2
				c-20.8-5-38.4-13.2-58.2-22.1c-7.6-2.8-13.5,4.3-20.9,2.5c-3.3-1.5-6.7-3.9-10.4-6.2c-2.1-1-4.7-1.9-7.3-2.6
				c-8-2.1-16.2-2.8-24.4-0.4C15.9,18.9,5.6,41.9,11.8,61.1c-8.1-5.7-9.7-15.6-8.2-25c-6,14.5,1.8,31.7,14.8,38.8
				c2.6,1.5,5.5,2.6,8.5,3.5c7.4,2.2,13.8,4.2,21.6,1.9c5.6-3,5.6-9,3.6-14.8C48.7,57,40.8,52.2,33.7,46.3c-2.5-2.6-5.9-5.1-6.6-9
				c-1.1,5.3-0.3,10.2,3,11.7c9,5.6,19.9,9.9,21.7,20.7c0.8,4.9-1.3,10.4-6.2,11.2c-8.9,1.5-16.8-3.3-25-6c-2.9-1.2-5.5-2.9-7.9-5
				C5.7,63.7,1.6,54.2,3,44.4c1.3,7.9,4.4,14.5,10.5,20.5c-0.2-13.2-3.5-26.8,5.9-37.5c9-10.1,20.5-13.8,32.2-13.2
				c2.9,0.2,5.8,0.6,8.7,1.3c2.3,1.8,4.5,3.3,6.7,4.5c2.2,1.2,4.2,2.2,5.9,3.3c3.8,7.7,10.9,7.5,17.3,3.4c2.8-1.5,7.9-1.3,11.2,0.2
				c13.5,7.9,26.6,13.8,41.8,19.4c4.3,1.3,8.9,4.6,12.5,8c3.3,1.5,6.6,3,10.2,0.3c2.5-1.9,4.4-4.2,5.8-6.7
				c4.3-7.6,4.6-17.3,3.9-26.3c0.2-5.1,5.6-9,11-6.9c-3,0.5-7.1,0.2-6.7,2.1c-1.4,11.7-3.6,24.5-10.5,33.5c-1.7,2.3-3.8,4.3-6.2,5.9
				c-28.5-6.6-53.5-34.8-84.2-24.6c-4.8,1.8-4.3-7.4-7.5-9.7c-2.7-2.2-5.7-4.7-8.6-6.6c-2.8-0.9-5.7-1.6-8.6-2.1
				c-11.5-1.8-23,0.4-32.7,9.6C11.3,33.8,6.9,49.8,14.3,63.8C5.6,60.1,4.9,50.1,1.6,42.6C1.5,53.7,5.4,65.2,14.8,72.8
				c2,1.4,4.1,2.5,6.2,3.3c2.2,0.9,4.4,1.5,6.7,2.3c6.4,1.3,12,4.4,18.8,2.3c6.6-3.1,5.1-12,2.1-17.6c-5.6-9.2-14.6-8.7-23.2-11.1
				c-1.1-1-2.2-1.8-3.4-2.6c1,2.9,2.2,5.6,3.8,8.1c1.7,2.5,3.9,4.7,7,6.6c-3.1-1.8-5.6-4.4-7.4-7.2c-1.8-2.6-3.1-5.5-3.6-8.5
				c1.3,1.8,2.6,3.7,4.6,4.7c13.1-1.6,30.4,10.7,23.3,23c-5.4,10-18.7,3.1-28.4-0.3c-2.8-1.3-5.3-3-7.6-4.9
				C6.9,65,2.5,56.6,2.5,47.5c2.1,6.7,6.1,12.2,10.9,16.4c-7.6-21,3.6-45.2,26.1-50c5.5-1.3,10.9-0.9,16.1,0.3
				c2.6,0.6,5.2,1.4,7.6,2.4c3,2.3,5.9,4.4,8.3,6.3c1.5,3.7,5,6.1,7,5.8c29.4-5.9,55.7,18,82.1,28.8c2.1,0.5,4-0.5,5.8-2.1
				c7.2-6.4,11.9-16.1,12.5-26.3c-1.5,9.4-4.6,19-10.9,25.3c-2.1,2.1-4.5,3.8-7.3,3.1C134,45.8,107.8,22.8,78.2,27.7
				c-3.9,0.7-5.8-4.1-8.4-7c-2.8-2.1-5.8-4.4-9.1-5.5c-2.7-0.8-5.5-1.3-8.3-1.6C41.2,12.4,30,15,20.9,24.1
				c-11.3,11-10.7,27.1-7.4,40.8C7.9,61.8,5.6,54.1,2.6,48.5c0.7,10,6.3,19.2,14.3,25c2.3,1.4,4.7,2.5,7.3,3.3
				c8.1,4.2,25.2,9.5,26.2-2.9c1.6-14.5-10.9-22.5-25.1-22c-3.1-0.7-0.9-6.1-2.6-9.9c-1.9,3.9-1.2,7.8,0.7,11.4
				c2.7,3.2,4.6,8,8.2,11.4c-4.6-3.3-7.4-7.9-9.4-13.5c-0.6-2.4-0.8-4.9-0.5-7.4s1-5,2.2-7.2c-0.2,2.1-0.5,4.6-0.4,6.9
				c0.1,2.3,0.7,4.2,2.3,5c10.9,4.2,24.7,7.9,25.2,23.1c-0.6,14.3-16.8,8.9-25.3,5.4c-2.7-0.8-5.2-1.8-7.7-2.9
				C6.9,68,2.1,57.7,2.1,45.5c1.3,7.9,5.8,16.3,13.5,20c-7.9-16.9-3.3-38,13.3-47.8c8.8-5,18.3-5.8,27.5-4c3,0.6,6,1.5,8.6,2.7
				c2,2.4,3.9,4.2,5.9,5.5c2.8,2.4,4.6,7.2,6.6,6.8c31.6-5.3,58,19.7,87,28.7c2.1-1.3,4.1-2.9,6.2-4.8c9.7-8.7,5.2-23.2,11.7-33.4
				c1.8-1.3,3.8-1.6,5.8-2c-3.8-4.4-8.9-4.6-10,0.7c-2.6,11.1-6.2,22.4-12.4,30.7c-1.6,2.1-3.3,3.6-5.4,3.6
				c-22.3-7.3-43.5-18.9-65.9-25.3c-6.4-2-13.8,2.3-20.1,1.3c-1.2-0.8-1.6-3.8-2.3-5.4c-1.9-2.3-4.2-4.8-7.2-5.5
				c-2.2-1.1-5-2-7.9-2.6c-14.5-3.1-29.1-0.6-39.4,13.8c-8.2,11.5-3.1,23.8-5.2,35.3c-5.6-3.1-6.7-10-9.7-15.6
				c1,10.8,6.8,21.5,16.7,26.4c2,1,4.1,1.8,6.4,2.5c7.6,3.4,20.5,7.4,24.1-1.3C56.4,60.8,37,53.9,26.4,45.7
				c-2.2-1.8-1.7-4.9-0.1-8.1c1.6-3.2,4.4-6.4,6.6-8.3c-3.6,2.6-6.9,7.2-5.4,10c5.6,9.2,16.4,13.5,22,22.7
				c4.1,6.4,5.8,16.3-2.8,19.7C39,84,32.4,81,25.4,78.2c-2.6-0.8-5-1.8-7.4-3.1c-2.3-1.2-4.6-2.8-6.7-4.8
				C1.7,60.8,0.5,47.8,3.4,35.2c-0.7,8.2,0,18.2,7.1,24.2c-3.8-16.6,3.1-36,20-43.9c8.5-4,17.3-4.4,25.8-2.8
				c2.8,0.5,5.7,1.3,8.4,2.2c2.5,2.4,4.9,4,7.4,5c2.8,0.3,4.4,4,7.4,3.6c8.2,0.7,15.3-5.6,23.2-0.8c16.8,9.4,35.4,11.3,53,19.3
				c3.4,0.7,5.8-0.7,7.3-4c3.3-10.7-1.5-27.1,15.3-29.9c-5.1-0.2-14.8,2.5-12.5,10.2c-0.7-3.9,0.7-8.2,2.6-8.6
				c13-7.2,27.5,6.6,32.8,18.8c1.2,2.8,1.9,5.3,2.1,7.8c0.2,1-0.5,3.1-1.4,3.1c-5-5-7.1-11.8-13-16.9c2.6,3.6,5.4,8.2,9.7,10.6
				c2.7,1.7,5.5,1.5,8.4,0.5c1.8-1.3,3.5,2.5,5.9,4.3c2.1,2.7,4,3.8,6,5.2c3.9,2.7,7.6,6.8,11.3,8.6c2.2,1,4.4,1.9,6.6,2.7
				c6.6,2.3,13.4,3.5,20.8,2.2c15.8-2.6,15.3-17.8,18.4-29.4c6.7-20.4,30.9-3.1,44.2,3.8c-13.2-12-28.8-26.6-48.2-21.3
				c8.2,0.7,18.1-1,24.3,6.1c-20.7-8.7-29.1,14-39.1,26.8c-5.7,8.6-13.6,7.9-21.6,3.4c-2.6-1.5-5.3-3.4-7.8-5.6
				c-1.6-2.9-3.3-5.5-5.3-7.7c-2-2.2-4.1-4.2-6.4-5.7c-1.9-1.8-3.8-3.7-5.9-5.4c-2.1-1.8-4.2-3.4-6.4-5C190,4.9,166.3-9.3,152,8.3
				c-5.7,8.1,6.4,14.1,7.7,22c0.3,3.2-0.5,5.8-2.3,7c-18.4-3.5-35.7-9.8-51-22.4C96,6.5,88.1,20,76.6,20.1c-1.8-0.2-3.9-0.6-6-1.3
				c-2.2-0.7-4.2-1.9-6.2-3.5c-2.7-1-5.5-2-8.2-2.7c-5.6-1.5-11.2-2-17.1-0.6c7.6-2.8,14.5-0.9,21.5,1.9c2.3,0.9,4.5,1.9,6.3,3
				c2,1.5,4,2.3,6,2.8c1.8,0.7,3.4,1.1,4.9,1.7c-1.8-1.1-4-2-6.4-2.8s-4.7-1.8-6.5-3.3c-2.9-0.9-5.8-1.8-8.8-2.4
				c-8.8-1.9-17.7-2.2-26.7,1.8c10.7-4.5,21.8-4.1,32.7-1.2c2.7,0.7,5.4,1.6,7.6,2.7c2,1.6,4.6,2.7,6.9,3.2c5.4,0.7,10-2.1,13.3-4.3
				C91.7,14,94.6,13,97.5,13.2z"/>
			<path class="st0" d="M207.5,55.3c-2.4-3.2,0.7-8.8,4.1-12.4c1.8-1.3,3.6,3.4,6.2,3.4c2.9,2.1,5.6,6.3,8,8.4
				c-2.4,0.9-4.3,0.4-6,0.9c-2.4,2.8-5.1,4.9-7.9,6.4c-2.7,1.4-5.1,1.4-6.5-0.9c-1.5-3.8-3.3-6.8-5.4-9.2
				c-3.2-6.6-5.4-13.3-12.1-17.2c-8.7-3.6-13,7.2-15.9,13.8c8.9-7.6,2.6-20.7,7.4-28.6c7.2-11.3,17.6,8.2,25.1,12.8
				c2,1.4,3.8,3,5.4,4.8c1.6,1.8,2.9,3.7,4,5.6c3.9-0.3,6.5,3.4,10.3,6.1c2.2,1.8,4.3,3.4,6.5,5c2.2,1.4,4.4,2.8,6.9,3.6
				c-3.1-0.5-5.9-0.5-8.7-0.4c-2.8,0.2-5.5,0.2-8.2-0.5c-4.8,5.1-9.5,12.7-16.1,14.7c-2.1,0.6-3.7-0.2-4-3.6c-0.3-2-0.9-4.4-1.7-6.7
				c-0.8-2.4-1.9-4.9-2.8-8.1c-2.3-3.4-3.8-12.2-5.5-9.9c-7.5,6.6-15.4,11.5-23.5,14.8c-2.7,1.1-5.3,0.8-8-0.8
				c-25.6-15.6-56-27.7-86.9-24.6c-2,0.3-1.6-3.8-2.3-7.2c-1.2-3.1-2.9-6.1-5-7.6c-1.7-1.3-4.1-2.2-6.7-2.9
				c-7.8-2-16.1-1.6-24.2,1.8C12,25.6,9.9,49.3,17.1,68.4c-5.4-2.1-8.1-5.7-11.8-10.2c2.1,8,8.4,13.6,15.7,16.5
				c2.5,1.1,5.1,2,7.9,3.1c6.4,2.8,13.8,4.6,19.9-1.5c1.6-2.3,2.3-4.4,2-6.4c1,5.9-3.4,9.7-8.4,10.5c-7.1,0.2-13.5-1.8-19.1-4.9
				c-2.4-0.9-4.7-2-6.8-3.3c-6.2-3.9-10.6-9.6-11.8-17c3.5,2.5,6.3,7.1,9.7,9.5C9.9,61.5,6.9,55.9,4,50.3
				c-0.7,8.2,3.9,15.6,10.4,20.4c2.2,1.6,4.6,3,7.1,4c9.4,2.5,23.2,12.4,27.3,0.5c5.3-11-5.8-22.4-16.9-22.5
				c11.5,2.1,26,15.9,16.5,25.6c-6.7,8.2-17.4-1.1-26.6-3c-2.9-1.1-5.6-2.8-8-4.8c-7.2-6-11.8-15.4-11.4-25.1
				c3.1,6.6,4.1,18.6,14.2,17.9c-7.1-12-6.6-27.3,2.8-38c10.2-11.8,21.8-13.8,33.6-11.7c3,0.5,5.9,1.3,8.9,2.3
				c2.2,1.7,4.4,3.1,6.7,4.2c2.2,1.2,4.1,2.2,5.7,3.3c1.8,1.5,3.6,6.3,5.6,6c18.1-7.1,32.4,5.7,48.5,11.1
				c11.8,4.1,22.4,12.5,34.9,10.9c1.6-2,3.2-4.2,4.6-6.5c5.8-9.2,10.5-20.5,16.1-29c3.3-4.6,14.5,7.7,20.6,15c2.2,1.5,4.4,3.2,6.5,5
				c2,1.7,3.9,3.5,5.5,5.1c1.6,0.2,3.1,2,4.8,4.1c1.7,2.1,3.4,4.5,5.4,6c1.7,1.3,3.3,2.7,5,4c1.7,1.3,3.3,2.6,5.1,3.9
				c-2.5-0.1-5.1-0.2-7.6-0.1c-2.5,0.1-5,0.3-7.2,0.2c-5.3,5.6-11.1,11-17.5,13.9c-2.1,0.9-4.3,1.6-5.8,1.2c-1.3-2-2.3-4.7-3.3-7.5
				c-0.9-2.9-1.8-6.1-2.2-10.1c0.5-6.6-2.5-18.3-10-15c-4.6,2.8-6.4,10.2-9.5,15.8c5.8-2,7.4-10.4,14.5-10.5
				c-4.9,6.9-8.9,13.7-13.8,20.6c2.6-2.5,5.4-3.9,8.2-5.4c-2.6,8.6-9.4,13.7-17.6,16.6c-2,0.7-4.2,1.3-6.3,1.7
				c-7.8-1.8-10.3-16.6-18.6-12.1c6.7-1.4-9.9-4.4,0.2-11.2c-16.3-18.6-41.4-29.6-66.3-20.3c-1,0.2-2.3-7.7-5.3-12.4
				c-1.8-1.9-3.8-3.8-6-5.2c-2.3-1.4-4.8-2.6-7.8-2.9c-3-0.6-6.1-0.9-9.1-0.8c-9,0.2-17.8,3.6-25.1,12c-10.2,11.8-9.5,28,1.3,38.3
				c-12-11.2-9.9-28.8,1.5-39.8c7.1-6.3,14.8-8.6,23.8-9.1C34,17.9,21.7,23,16.6,35c-3.8,9-2.5,17.7,1.9,25.2c1.5,2.5,3.3,5,5.5,7.3
				c-2.8-2-5.1-4.3-6.9-6.8c-5.2-7.5-5.5-17.5-1.7-26.5C21.5,22,32.7,16.1,45.7,14.9c-13,1.2-24,8.1-30.2,19.3
				c-4.5,9.5-3,19.9,2.5,27.8c1.4,2,3,3.8,4.8,5.6c1.8,1.8,4,3.7,6.3,5.5c-2.4-2.1-4.5-4.3-6.3-6.6c-1.8-2.1-3.3-4.4-4.5-6.7
				c-4.8-9.3-4.7-20.8,2.6-29.5c7.1-8,17.7-12.3,28.3-11.8c2.1,0.1,4.2,0.4,6.2,0.9c2.5,1.3,4.8,3,6.8,4.8c1.9,1.9,3.6,4.1,4.7,7
				c1.1,13.5,3.4,27.3,14.3,37.7c9.7,9.5,22,4.4,33.4,5.6c2-0.3-0.7,8.2-3.1,11.7c-3.4,3.6-10,6.7-15.5,4.6c-0.2-1-0.5-3-0.7-3.9
				c-8.9-4.6-17.4,4.9-26.1,1.3c3.8-1.6,10.4,1.3,10.7-2.8c0.3-10.2-10-17.6-12.7-27.3c5.3,7.2,9.7,15.6,17.6,20.4
				c-7.1-5.9-13.3-13-16.9-22.5C74,69,85.2,81.3,99.7,83c-25.3-5.9-29.9-33.5-37-55.1c-1.8-1.8-3.8-3.4-5.9-4.7s-4.5-2.4-7-3.2
				c-2.4-0.2-4.8-0.1-7.2,0.2c-9.6,1.2-18.7,6.1-24,14.5c-4.7,8.4-4.5,18.8,1.5,26c2,2.5,4.6,4.9,7.9,7.3c3.7,3.1,9.2,5.2,13.6,1.4
				c-6.7-3.9-13.5-7.9-18.4-14.6c-1.3-1.9-2.2-4.3-2.5-7.3c-0.6-11.4,7.1-19.7,16.9-23.2c2.4-0.9,5-1.5,7.6-1.7c2.6-0.2,5,0,7,0.7
				c-3.1-0.4-7.3,0-11.5,1.3c-6.3,2-11.9,5.7-13,11.7c-0.4,2-0.3,4.3,0.5,6.9c8.8,9.6,36.2,22.3,18.3,36.4
				c-6.2,5.1-15.5-1.5-23.8-3.1c-2.5-0.8-4.8-1.9-6.9-3.3C5.3,66.4,0.3,52.4,3.1,39.3c-0.8,7.2,0.7,16.1,6.6,21.2
				c0.2-17.3,4.3-35.2,21-44.1c8.5-4,17.3-4.4,25.8-2.5c2.8,0.6,5.6,1.5,8.1,2.6c2.4,3,4.8,5,7,6.4c2.9,1.3,3.6,5.3,6.7,5.8
				c6.1,0,11.2-5.9,17.6-4c21.2,5.6,40,20.7,63.3,20.8C139.1,33.8,117.5,26.2,94.2,20c-6.4-2-13.8,2.3-21.2-0.9
				c-2.5-0.6-4.9-1.6-7.3-3.1c-2.8-0.9-5.6-1.8-8.5-2.5c-8.6-2.1-17.3-2.7-26.7,1.9c-17.7,9.1-21.7,28-19.7,45.9
				c-5.9-5.1-8.4-13.8-7.7-22c-3.9,12.8,2.5,27,13.8,34.2c2.1,1.3,4.4,2.4,6.8,3.3c8.3,2.3,18.5,8.7,26.6,2.3
				c3.6-2.6,2.8-7.6,2.1-11.5c-4-11.5-14.6-14.8-21.7-24.2c-2-2.3-2.6-6.2-2-8.4c2.5-3.5,5.8-6,9.6-7.8s7.7-2.6,11.1-2.4
				c-5.1,0.5-13.1,0.8-14.1,7.1c-1,6.2,7.2,6.9,9,11.7c-2.8-4.6-6.6-9-12-11.2c5.3-4.9,12-7.1,18.9-8.2c-2,0.3-3.9,0.7-5.9,0.7
				c-2,0.3-4.1,0.9-6.1,1.7c-4,1.6-7.7,4-10.7,7.5c-1.6,2.3-2.5,5-2.3,7.2c0.1,2.3,1.1,4.2,3.1,5.4c11.6,6.6,28.4,16,20.7,30.5
				c-4.4,9.9-15.8,2.6-24.5,0.8c-2.9-1-5.7-2.2-8.3-3.8c-2.6-1.5-5-3.4-7.1-5.6C3.8,61.5,2.3,52.6,3,44.4C4.1,51.3,6.4,59,13.2,63
				c-7.4-20.1,2.8-44.1,24.1-49.7c7.8-1.8,15.3-1,22.5,1c2.4,0.7,4.7,1.5,6.6,2.5c2.1,2.1,4.2,3.6,6.2,4.6c2.7,0.8,4.1,3.6,6.1,3.2
				c6.7-2.1,13-7.2,20.5-4.5c16.1,5.4,29.4,12.3,45.6,17.7c4.4,2.3,7.9,4.8,12.3,7.1c-24.7,4.1-41.3-16.4-63.1-19.9
				c-7.4-1.8-15.1,6.6-21.2-3c-1.6-0.8-3.5-1.6-5.3-2.6c-1.9-1-3.9-2.2-5.9-3.6c-2.6-0.7-5.3-1.3-8-1.7c-5.4-0.7-11-0.4-16.8,1.2
				c-23.3,5.9-27.3,30.9-23,50.5c-4.9-5.3-7.9-10.8-11-17.4c0.6,8.3,4,16.1,9.9,21.7c2,1.9,4.2,3.5,6.7,4.9
				c9.5,2.5,20.1,10.8,28,3.4c13.3-11.4-4.1-24.7-16.3-30.7c-3.3-1.5-3-5.6-3.5-8.5c0-3,1.3-5.8,3.5-8.1s5.2-4,8.5-5.1
				c6.5-1.9,13.6-0.4,19,3.5c1.7,1.4,3.3,3,4.3,5.3c-1.1-2.2-2.6-3.8-4.3-5.1c-5.3-3.6-12.3-4.4-18.6-2.3c-2,0.7-4,1.5-5.8,2.5
				c2.4-1.6,5-2.7,7.6-3.4c2.9-0.7,5.7-0.6,8.4,0.1c2.7,0.7,5.2,2,7.6,3.7c6.7,4.6,8.2,13.5,9.5,21.4c-2.3-7.7-1.5-15-5-23
				c-1.6-2.1-3.3-4-5.5-5.3c-2.2-1.3-4.7-2.1-7.7-2c-2.2-0.1-4.6,0.1-6.9,0.5c-9.3,1.6-17.9,6.9-21.8,16.3c-1.1,2.7-1.8,5.6-1.9,8.5
				s0.7,5.8,2.7,8.5c5.1,6.2,11.4,13.3,19.6,14c2.1,0.7,3.5,2.5,3.9,5.4c-7.6-2.8-16.3-6.4-21.9-13c-1.9-1.6-3.5-3.6-4.6-5.9
				c-5.8-10.2-0.5-21.2,7.4-28.6c6.7-5.2,14.9-7.8,22.9-7.6c2.6,0.1,5.1,0.5,7,1.5c2.3,2.2,4.4,4.5,6.4,6.9c1.8,3,4.4,6.6,4.9,9.6
				c1.3,20.1,12.5,38.5,31.8,44.4c-14.8-3.6-28-15.6-31.4-30.2C66.3,65.2,89.6,83.6,69.4,90c7.4,1.8,15-1.5,21.7,2.5
				c-3,0.5-3.3,4.6-6.4,4.1c16.9,4.3,37-9.2,32.9-27.8c2.1,6.7-0.8,13.3-3.8,19.9c0.2-5.1,4.8-7.9,5.9-13.2
				c-2.8,13.6-18.2,24.3-32.2,19.6c0.8-1.2,3.6-2.6,3.4-3.6c-6.7-3.9-14.6-2.6-21.9-3.4c3.8-1.6,9.5,2.5,9.7-2.6
				c0.5-9.2-9.5-14.6-9.2-24.8c1.8,4.8,4.6,9.4,9,11.7C68.1,63.9,67.7,49.8,61,39.7c8.2,12.8,10.4,31.7,26.7,38.1
				c-15.8-9.5-18.9-28.3-22.6-44.5c-1.2-2.8-2.8-4.9-4.7-6.7c-1.9-1.8-4-3.4-6.3-4.8c-2.3-0.8-5.1-1.1-8-1
				c-8.8,0.4-17.3,3.7-23.1,10c0.8-1.2,1.6-2.3,2.5-3.5c-7.2,5.3-9.7,14.8-9.4,22.9c0.7,3.9,2.6,7.7,5.3,10.5c3.1,3.3,6.5,5.7,11,8
				c-4.6-3.3-8.4-7.7-10.3-12.5c-1-2.1-1.8-4.4-2.2-6.7c-0.4-2.3-0.4-4.7,0-7.1c1.6-8.4,7.6-15.5,16.1-18.9c2.9-1,5.8-1.6,8.6-1.8
				c2.8-0.2,5.4,0,7.6,0.7c2.6,0.7,4.7,1.9,6.4,3.4c1.7,1.6,3,3.4,4.2,5.5c2,6.6,3,12.6,5.1,19.3c-3.1-6.6-1.7-15.9-8.3-21
				c-2-2-4.1-3.7-6.4-4.8c-2.3-1.1-4.9-1.7-7.8-1.3c-3,0.3-6.1,1.1-9,2.7c-2.9,1.5-5.6,3.7-8,6.7c-2.1,2.9-2.4,6.7-1.4,9.9
				c1.4,2.3,1.9,5.3,3,6.1c11,5.3,23,10.3,21.2,23.8C50,89.2,29,78.6,19.3,75.1C17,74,15,72.6,13.2,71C4,63.2,0,50.8,3.1,39.3
				c-1.5,9.4,2.1,18.9,9.2,24.8c-5.9-23.3,8-49,33-51.2c4.7-0.1,9.1,0.5,13.3,1.6c2.1,0.5,4.1,1.2,5.8,2c2.7,2.7,5.3,4.4,7.7,5.7
				c3.3,0.8,4.1,5.8,7.1,5.3c28.1-7.7,50.6,17.9,78.4,20.3c2-0.3,3.6-2.6,5.4-3.9c-28.1-4.4-53.3-27.6-82.7-21.6
				c-2,0.3-5.4-2.1-8.4-3c-2-0.7-4.1-1.7-6.2-3c-2.9-0.9-5.9-1.8-8.9-2.4c-9.1-1.8-18.2-1.8-27.1,2.7C14,25.3,7.1,44.7,12,62.1
				c-8.2-6.7-9.9-16.6-8.4-26C-2.5,48.3,3.8,61.5,13.5,71c2.4,2.1,5,3.8,7.8,4.9c2.8,1.3,5.8,2.3,8.9,3.2c6.4,2.2,13.9,5,18.2,0.2
				C60.5,67.2,43.1,53.9,30.3,50c-4.3-1.3-2-5.8-3.6-8.1c0-3.2,1.2-6.7,2.8-9c1.5-1.5,3.2-2.8,5-3.9c1.8-1.1,3.7-1.9,5.7-2.6
				c3.9-1.2,7.6-1.4,10.8-0.5c-3.1-1.5-6.4-0.8-9.7,0.8c-3.4,1.6-6.5,3.9-9.7,5.9c2.5,0.1,4.5,0.9,6,2.3c1.7,1.4,2,3.4,3.3,5.2
				c-1.5-2.8-6.7-3.9-6.4-8.1c2-6.4,9-6.6,15-7.6c-3,0.5-4.9,0.8-7.4,1.6c-2.8,1-5.7,2.3-8,4s-4.1,3.6-4.9,5.8
				c-0.8,2.2-0.6,4.6,0.9,7.4C36,54.1,51.5,55.5,52,70.7c0,12.2-13.1,12.3-22.3,8.6c-3-0.8-5.8-1.7-8.5-2.8c-2.6-1-5.2-2.5-7.5-4.4
				C4.1,63.5-1,51.1,3,38.3C5.4,47,4,56.4,12,62.1c-1.7-15.9-0.4-32.4,13.1-42.8c9.9-7.7,19.7-7.9,29.7-5.7c3.3,0.7,6.6,1.7,9.9,2.7
				c2.1,1,4.2,1.9,6.4,2.5c2.1,0.7,4.1,1.3,5.8,1.9c2.4,0.7,3.7,2.5,5.7,2.2c4.8-1.8,10.5-3.8,14.8-2.5c22,4.4,41.8,19.4,64.9,20.1
				c1.7-1.5,3.1-3.1,4.4-5s2.4-3.8,3.2-6c-0.5,2.9-1.4,5.7-2.5,8.5c-1.2,2.7-2.6,5.3-4.4,7.6C137,45.3,117.4,25.2,93,25.3
				c-10.2-0.3-20.4-0.6-27.9-8.3c-2.6-1.2-5.8-2.1-9-2.8c-9.7-1.9-19.5-1.3-29.1,4.9C12.5,28.6,8.4,46.5,12,62.1
				C5.3,58.2,2.8,49.5,1.6,42.6C1,54.9,7.2,67.8,17.3,74.1c2.5,1.6,5.3,2.8,8.4,3.8c9.9,3.7,25.9,8.1,26.3-7.2
				c0-12.2-11-17.4-20.2-21.7c-1.7-1-3.2-2.1-3.9-4c-1-1.4-1.3-3.5-0.5-6.7c1.8-7.4,7.9-12,15.1-13.8c2.3-0.6,4.7-0.8,6.8-0.6
				c4.1-0.1,6.7,3.5,10,5c-2.6-3.6-7.2-6.9-11.9-6.4c-2.9,0.1-5.8,0.5-8.6,1.4c-8.3,2.5-15.4,8.5-18,17.6c-1,3.2-0.5,6.2,0.6,8.9
				s2.8,5.3,4.1,8c4.2,5.9,11.8,8.7,18.5,12.7c2.3,1.6,1.6,3.8-0.3,4.1c-7.1,0.2-13-4.9-18.3-9.5c-2.4-2.2-4.5-4.5-6-7.1
				c-1.6-2.5-2.7-5.3-3.2-8.2c-1.3-7.9,1.5-15.5,6.6-21.4c6-6.6,13.8-9.7,21.9-9.9c2.7-0.1,5.4,0.2,8.1,0.7c2.8,1.9,5.4,4,7.8,6.4
				c2.3,2.4,4.2,5.3,5.6,9.2c0.7,20.7,13,39.9,32.6,47.8c-13-4.9-24.5-13.1-29.8-26.4c-0.2,11.2,13,17.1,8.9,28.9
				c0.2,1-3,0.5-5.1-0.2c7.2,6.9,16.3,0.3,23.8,3.1c0.2,1,0.5,3,0.5,3c8.6,2.6,18.1-7.1,16.6-16c-0.3-2-2.6-3.6-3.6-3.4
				C78.3,82.5,67.3,52.9,63.6,28.6c-1.3-2.1-2.8-4-4.4-5.7c1.8,1.7,3.8,3.2,5.7,4.7c2.5,2,1.2,6.3,3.5,7.9c-0.7-3.9-2.3-7.7-5-11.4
				c-2.5-2.7-5.5-4.8-9.4-5.8c-2.9-0.6-5.8-0.8-8.7-0.6C33.6,18.2,22.4,24.4,16.9,37c-3,6.6-2.3,13.3,0.4,19.3
				c0.9,2,2.1,3.9,3.4,5.7c2,4.4,6.7,7.7,10.3,11.1c-3.3-1.5-5.6-3.1-7.7-5.4c-2.2-1.7-4.2-3.7-5.8-5.8c-3.2-4.3-5.1-9.5-5.1-15.1
				c0.5-9.2,4.9-19.1,13.1-24.5c7.5-5.1,15.4-6.9,23.3-6.5c2.6,0.1,5.2,0.5,7.8,1.2c2.1,1,4,2,5.8,3.2s3.6,2.5,5.3,3.8
				c5.3,3.6,2.4,10.1,4.4,15.9c-0.8-4.9,0.2-11.2-3.3-15.7c-2.6-2.9-5.8-5.1-9.6-6.5c-3-0.9-6.2-1.5-9.5-1.8
				c-13-1-25.6,3.7-33.5,17.1c-4.7,8.4-4.5,18.3,0.2,25.8c1.6,2.5,3.7,4.8,6.3,6.7c-3-2.6-5.3-5.8-6.9-9.3s-2.5-7.4-2.7-11.5
				c0.3-10.2,7.1-18.4,15.3-23.8c6.8-3.8,13.6-5.2,20.2-4.8c3.3,0.2,6.5,0.8,9.5,1.9c1.8,1.2,3.5,2.7,5.3,4.2
				c1.7,1.6,3.3,3.2,4.6,4.9c2.6,2.9,1.8,10.2,4.7,9.7c25.5-5.3,49.2,2.9,68.2,20c-8.2-0.7,1.2,8.2-1.1,12.6c11.4,2.2-5.5-6,3.6-3.9
				c4.9,5.3,10.2,12.5,17.9,10.1c2.5-1.6,4.7-3.5,6.7-5.6c7.9-8.4,12-20.1,17.8-29.9c6.9,4.9,5.3,13.3,9.2,19.9
				c1.9,2.9,3.2,6.1,3.8,9.4c0.3,2,3.5,2.5,5.1,2.1c2.7-0.9,5.3-2.3,7.9-4.4s5.1-4.8,7.6-8.2c1.5-3.3,6.1,0,8.6-0.5
				c3.8,0.4,7.8,1.3,11.8,1.1c-2.2-0.9-4.2-2-6.2-3.2s-3.9-2.5-5.8-3.9c-3.2-2.5-6.2-6.6-9.4-9.3c-1.6-1.4-3.2-3.1-4.9-5
				c-2.1-2.3-4.5-4.1-7.2-5.5c-2.7-1.5-5.6-3.8-8.7-6.5c-5.7-4.1-15.3-12.7-19-4.9c-5.8,9.8-6.9,23.2-13.2,32.2
				c-1.6,2.2-3.5,3.3-5.8,2.7c-27.5-9.9-52.8-34-84.4-28.8c-2,0.3-3.6-3.4-4.8-5.2c-2.7-1.8-5.4-4.1-8.3-5.5c-2.4-0.9-4.9-1.6-7.4-2
				c-5.1-0.9-10.4-1-15.9,0.6C16.3,20.9,11.8,42.9,10,62.5c-2.6-3.6-4.3-7.4-6.9-11c1.5,9.2,7,17.8,15,22.3c2,1.1,4.2,2.1,6.5,2.8
				c6.5,2.7,15.2,6.3,22.8,3c5.6-3,4.3-10.9,1.5-15.5c-4.1-6.4-11.5-14.3-18.7-9c5.4-3.9,9.4,1.5,12.7,3c5.9,5.1,13,17.1,3.6,21.7
				c-7.6,3.3-14.5-1.6-21.8-3.3c-2.4-0.7-4.7-1.7-6.9-3C11.2,69.8,6.1,63.4,4.8,55.2c2.5,2.6,4.1,6.4,6.6,9
				c1.8-13.5-2.8-28.9,9.5-40.1c11.5-10,26.3-12.5,39.3-7.6C47,10.7,32.5,15.1,21.9,24c-13.3,11.4-7.5,27.6-8,42.9
				c-4.3-1.3-6.7-3.9-8.4-7.7c2.3,5.7,6.4,10.1,11.4,12.9c2.5,1.4,5.2,2.6,8,3.5c8.2,3.3,17.9,6.7,26.2,1.3
				c-8.1,6.4-18.9,2.1-26.2-1.3c-2.8-1-5.4-2.3-7.8-3.8c-4.9-3-9-7.4-11.5-12.7c3.6,3.4,6.4,8.1,11.7,9.2
				c-9.1-17.7-5.9-41.6,14.8-51.1c6.3-2.7,12.6-3.6,18.7-3c3.1,0.3,6.1,0.9,9,1.7c2,1.5,4,2.8,5.9,4c1.9,1.2,3.8,2.3,5.4,3.5
				c3.3,4.9,4.6,12.8,11.3,10.7c25-8.2,55.7,12,78.4,24.2c2.7,1.1,5.5,0.1,8.3-0.9c8.3-3.1,16.6-7.1,24.8-11.5
				c1-0.2,2.8,4.6,4.7,7.7c1.5,1.6,2.9,3.5,4.2,5.5c1.3,2,2.5,4,3.6,5.8c2.6,0.9,5.9,0.3,9.1-0.6c3.3-1,6.5-2.3,9.7-4.1
				c3.1-0.5,6.4-0.8,9.1-2.7c-3.4-2-6.1-4.6-8.8-7.4c-3-2.8-6-8.3-8.9-7.8c-1.8-1.4-3.6-2.9-5.6-4.5c-2-1.5-4-3.1-6.2-4.4
				c-7.8-5.1-14.5-21.2-22.4-13.8c-9,6.6-1,24.5-12.8,32.6c6.2-5.1,7.7-14.5,14.3-17.6c9.2-5.6,12.3,7.1,16,13.9
				c1.7,3.2,3.2,6.1,4.7,9c1.4,2.9,2.7,5.9,3.9,8.4c4.1,0.3,7-2.2,9-5.6c2-3.4,3-7.6,3.5-10.7c0.7-2.1-4.9-5.3-8.4-6
				c-0.8-0.5-2.1-2.3-2.9-1.2c-2.3,4.4-1.5,9.4-1.6,14.5c2.1-5.4,2.3-10.5,1.3-16.4c-0.5,3.1-0.2,5.1,0.4,7.9
				C209.3,51.1,208.7,53.8,207.5,55.3z"/>
			<path class="st0" d="M118.1,28.7c0.1,1.5,1.1,1.3,1.2,2.3C107,23.9,93,19.2,78.9,25.6c-3,0.5-4.4-2.3-6.6-4
				c-2.2-1.2-4.5-2.9-6.8-5.4c-2.9-1.1-6-2-9.2-2.6c-9.4-1.7-19.1-0.9-28.4,4.2C13.1,26.4,11,44,9.5,59.5C4.4,53.2,4.1,45.2,3,38.3
				c-2.8,13.6,1.8,29.1,15.1,36C5.9,68.2,0.3,52.9,2.1,39.4c1.2,6.9,1.5,15,7.4,20.1c3.1-11.7,1-24.5,10.5-34.2
				c11.8-12.7,26.7-14.1,40.9-10.2c2.8,0.8,5.1,1.9,7,3.1c1.9,0.7,3.6,2.5,4.8,4.4c0.9,1.8,1.4,4.7,2.4,4.6
				c30.1-8.1,53.6,17.4,82.1,23.8c2-0.3,3.9-0.7,6.1-1.4c1.7-2.2,3.3-4.7,4.6-7.3c4.1-7.8,6.6-17,8-24.8
				c-1.4,12.1-2.6,24.8-10.4,33.5c-1.6,1.7-3.4,2.7-5.7,2.2c-24-8.6-44.2-26.5-68.5-26.5c-8.1,0.3-12.5-2-19-6
				c-2.1-0.6-4.2-1.3-6.3-2.1s-4.1-1.7-6.2-2.6c-3.2-0.8-6.5-1.4-9.7-1.7c-12.9-1.3-25,1.7-34.3,15.9c-6.4,10.2-1.6,20.6-4.9,31.2
				C3,56.5,4.4,47.2,2.1,39.4c-1.8,13.5,3.6,27.8,16,34.8c-11.3-7.2-19.9-22-15-35c-1.5,9.4,2.1,18.9,10,23.7
				C10,50.3,8.5,35.3,18.9,24.5c11.8-12.7,25.7-13.2,39.7-9.6c2.8,0.7,5.5,1.6,7.6,2.7c2.1,1.7,4.1,2.9,6,3.8
				c3.1,0.8,5.7,4.4,7.5,3.1c15.9-7.7,31.7,1.8,46,7.7C126.4,32.1,123.8,31.6,118.1,28.7z"/>
			<path class="st0" d="M164.1,44.3c-10.7,2.3-17.3-6.7-25.7-8.4c6.1,0,11.7,3.1,17.8,3.7c2.7,0.8,4.9,0.5,6.8-0.5
				c1.9-1,3.8-2.2,5.5-3.7C170.5,33.3,169.2,38.2,164.1,44.3z"/>
			<path class="st0" d="M92.5,91.2"/>
			<path class="st0" d="M177,74.6c1.9-1.5,3.9-3.4,5.8-5.5c5.7-6.4,9.9-15.1,4-23.2c2.1,0.7,4.3,1.3,4.6,3.3
				c1.5,8.9-4.1,17.9-10,23.7c-2.2,2-4.5,3.5-7,4.8c-2.4,1.3-5,2.3-7.7,3s-5,1.1-8.4-0.4c-5.6-3.1-17.9-14.4-17.1-4.2"/>
			<path class="st0" d="M196.5,59.7c1.3,3.8,3.9,13.5,9.2,9c1.9-1.1,3.7-2.4,5.6-3.7c3.7-2.6,7.4-5.2,11.4-6.4
				c3.4,0.5,6.7,0.8,9.9,1.2c3.2,0.4,6.3,0.9,9.5,1.4c-2.5-1.4-4.9-2.9-7.3-4.5c-2.4-1.6-4.8-3.3-7.3-4.8c-2.5-2.3-5.8-5.4-8.7-7.7
				c-2.9-2.3-5.5-5.6-6.3-6.3c-1.5-1.4-3.3-2.8-5.2-4.1c-1.9-1.4-4.1-2.6-6.4-4.9c-5.7-6.3-17.9-18.5-22.7-10.6
				c-5.3,9-5.8,21.7-11,31.3c-1.3,2.4-2.9,4.6-4.9,5.8c-27.8-7.5-52.2-31.8-82.9-27.7c-3,0.5-5.8-4.1-8.3-7.5
				c-2.8-1.8-5.7-3.8-8.9-4.7c-2.6-0.7-5.2-1.3-7.9-1.7c-10.6-1.5-21.2,0.3-30.6,7.9C11,31.9,8.1,50.6,15.5,64.6
				C8.1,62.8,5.9,56,3,50.4C4.1,62.1,11.2,72,21.9,76c2.2,1,4.6,1.8,7.2,2.7c7.2,1.7,19.9,4.6,21.5-3.8c2.3-10.5-8.9-22.8-20.7-22.6
				c-3.5,0.7-6.1-4.3-7.8-8.1c0.4,2.2,1.2,4.2,2.4,5.8c1.2,1.7,2.7,3.1,4.3,4.3c5.9,4.9,15.6,2.3,19,10.9c1.8,4.8,1.8,10.8-3.8,13.8
				c-9.5,3.6-15.8-3.4-23.8-5.1c-2.5-1.1-4.9-2.6-7-4.5s-3.9-4.1-5.4-6.6c2.3,1.6,4.6,3.3,5.9,5.1c-3.3-19.7-2-42.2,19.9-51
				c7-2.9,13.4-3.2,19.7-2.1c3.1,0.5,6.1,1.4,8.7,2.6c1.7,1.2,3.5,2.4,5.3,3.6c1.7,1.2,3.3,2.6,4.5,4.1c1.2,2.4,3.2,8.2,4.2,8
				c22-7.7,41.3,4.2,58.4,15.6c-18.4-13.1-37.8-20-60.2-14.3c-1,0.2-2.1-6.7-4.4-9.6c-1.4-1.6-3.2-3-5.1-4.3
				C63,19.3,61,18.1,59,17.4c-3.2-0.9-6.6-1.5-9.9-1.7c-13.4-0.9-26,4-33.7,18.5C8.6,47.5,12.8,61,21.6,70.7c-2,0.3-4.3-1.3-6.4-2
				c1.6,1.8,3.5,3,5.6,3.8c2.1,0.9,4.4,1.5,6.8,2.1c3.7-0.5,8.3,2.8,12.9,0c-6.4-2-11.2-6.2-15.9-11c-2.2-1.9-4.1-3.8-5.5-6
				c-1.5-2.1-2.5-4.6-3-7.3c-1.2-13,6.1-24.3,18.4-29.4c-0.8,1.2-2.8,1.5-3.6,2.6c2.8-1.2,5.7-2.1,8.5-2.6c2.8-0.5,5.7-0.7,8.5-0.5
				c2.7,0.7,5.3,1.8,7.6,3.1s4.5,2.9,6.4,4.7c8.8,21.1,12.4,48.8,38.9,55.6c-13.3-0.8-23.4-12.3-31.1-22.2c0.3,2,2.6,3.6,3.9,5.4
				c-0.7-3.9-5.1-6.2-5.9-11.2C72.2,70.3,86.7,78,98.8,84.1c-18.7-9-30.8-26.3-32.9-47.4c-1.3-4-3.2-7-5.4-9.5
				c-2.3-2.3-4.8-4.5-7.4-6.4c-2.2-0.7-4.8-1-7.3-1C35.6,20,26.1,25,19.4,33.5c-4.8,7.9-3.9,15.9,0,22.6c1.3,2.3,2.9,4.5,4.8,6.7
				c3.1,5.9,8.7,9.1,14.4,13.2c-6.7,2.1-11.8-4.1-16.8-6.2c-2.2-1.7-4.1-4-5.6-6.4s-2.6-5-3.3-7.4c-3.3-13.6,2.6-26.8,13.5-34.7
				c7.6-4.7,15.5-6.3,23.4-5.8c2.6,0.2,5.2,0.6,7.8,1.2c2.3,0.7,4.3,1.7,6.2,2.7s3.6,2.3,5.2,3.5c4.1,4.7,3.2,10.9,4,15.9
				c-1.8-4.8,1.5-9.4-2.2-13.7c-1.7-2.7-4.3-4.8-7-6.7c-1.9-1.2-4.3-2-7-2.6c-10.7-2.4-21.8-1-32.2,6.8C8.4,34.3,9.7,54.4,15.5,70.7
				c1.5,2.8,4.5,4.1,8,4.8c8.4,2.6,21.7,9.5,25-1.2c2.5-9.5-8.4-19.9-19.1-17.1c0.3-4.1,3.4-3.6,6.4-4.1c9.4,1.5,13.7,8.9,16,16.6
				c0.8,4.9-1.3,10.4-6.2,11.2c-9,0.5-17.6-2.1-24.8-5.8c-2.8-1.2-5.4-2.8-7.7-4.8C6.1,64.4,1.7,55.2,2.1,45.5
				c3,5.6,4,11.5,7.7,15.9c2.8-13.6,1.3-28.6,13.6-39.8c10.6-9.4,21.2-9.4,31.9-6.6c2.7,0.7,5.3,1.6,7.4,2.7
				c2.1,1.9,4.2,3.3,6.4,4.2c3.3,1.7,6.9,5.1,8.9,4.8c30.1-2,53.6,17.4,80.4,26.1c2.1,0.7,4.1,0.3,5.9-1.4c1.6-1.8,3.1-3.9,4.4-6.1
				c3.8-6.6,6.3-14.6,9.1-22.2c5.9-13.2,21.4,0.5,28.1,8c1.7,1.4,3.3,3,4.7,4.8c1.4,1.8,2.7,3.7,3.7,5.5c1.9,0.4,3.7,1.2,5.4,2.4
				c1.7,1.2,3.4,2.8,4.9,4.9c3,2.5,5.4,4.6,6.3,7c1.2,3.9-1.8,4.6-5.2,5.2c-2.1,0-4.2-0.6-6,0.7c-2.5,2.3-5.3,4.1-8.2,5.3
				c-2.8,1.2-5.9,1.9-8,1c-1.3-3.8-3-6.6-4.9-8.8c-1.9-2.2-3.6-4.5-5.1-7c-5.8-11.6-16.6-3.7-21.4,4.2c7.4-4.3,7.1-18.4,16.4-16.9
				c4.3,1.3,7.4,7.9,7.4,14.4C196.3,55.8,196.4,57.7,196.5,59.7z"/>
			<path class="st0" d="M181.8,52c-2.3,9.5-9.8,15.3-17.1,20.3c-2.5,1.7-4.9,3.2-6.7,3.8c1.4-0.5,3.1-1.5,5.1-1.8
				c-2.1,1.1-4.1,1.6-5.7,1.1c-6.6-2.1-9.7-8.7-14.5-12.9c2-0.3,4.8-1.8,6.2,1C134,39.7,99.6,28.2,72.3,34.8c-0.5-3-3-5.6-3.2-8.2
				c-2-3.1-4.8-6.2-7.8-8.4c-2.2-1.1-5-1.8-7.8-2.3C42.2,14,30.7,16.4,21.2,26.1c-10,11-11.7,25.5-4.8,37.6c1.4,2.4,3.1,4.8,5.1,7
				c3.9,5.4,11.2,6.2,15.6,2.5c-4.1-0.3-7.7-3.8-10.8-6.6c-3.1-2.6-5.8-5.3-7.9-8.5c-4.4-8.4-4-17.6,0.8-25.5
				c5.7-8.1,14.1-12.5,23-14c-2.6,2.5-6.9,1.2-9.5,3.6c4.5-1.4,9.2-2.1,13.9-2c2.4,0.1,4.6,0.3,6.5,1c2.8,1.8,5.4,3.9,7.9,6.2
				c9.6,21.9,15,48.4,42.7,55.9c0,0-2.6,2.5-3.6,2.6c-21.5-13.6-32.9-33-37.2-56.8c-2.1-1.9-4.2-3.7-6.3-5.3c-2.1-1.6-4.3-3-6.5-4.3
				c-2.2-0.3-4.5-0.3-6.8-0.2c-13,1.2-25.6,10.4-27.4,23.9c-0.2,3.3,0.2,6.4,1.2,9.1c1,2.7,2.5,5.2,4.3,7.3
				c4.3,6.2,10.1,10.4,15.9,14.5c-3.9,0.7-7.9,1.3-11.4-1.8c-3.7-2.2-7-5.2-9.4-7.8c-9-11.7-6.6-27.3,3.8-38.1
				c9-9.6,20.2-12.5,31.4-11.1c2.8,0.4,5.5,1,8.1,1.9c2,0.6,3.8,1.9,5.6,3.5c1.7,1.7,3.3,3.6,4.5,5.8c-0.2,3.8,2.2,6.4,2.9,10.4
				c26.3-12.5,56.4,3.7,74,24.1c-2.3-1.6-5.4-2.1-8.1,0.3c8.6,2.6,11.4,13.3,22,13.9c2.9-1.5,5.7-3.3,8.2-5.4
				c5.1-4.2,9.1-9.5,11.7-15.8C181.9,51.4,182.1,51.3,181.8,52z"/>
			<path class="st0" d="M179.3,58.3c2.7-4.3,5-8.8,8.6-11.4c-10.8,7.9-13.5,22.5-25.5,29.6c2.1-5.4,8.2-5.4,10.8-9.2
				C176,63.9,178.2,60.5,179.3,58.3z"/>
			<path class="st0" d="M20.4,60.9c-1.8-2.5-3.1-5.2-3.9-7.9c-2.4-8.2-0.5-16.9,5.2-23.9c6.7-8.2,17.3-12,28.4-11.9
				c-16.3-0.3-32.9,9.6-34,27c-0.7,7.7,2.1,12.8,6.5,16.9c1.5,1.7,3.1,3.3,4.8,5c3.2,4.1,7.8,7.4,11.4,10.8
				c-5.9,1-13.2,0.2-17.9-4.1c-1.9-2.1-3.5-4.2-4.8-6.5c-6.7-11.4-6.6-25,1.7-36.6C27.3,17,39.9,13.8,52.8,15.8
				c3.2,0.5,6.4,1.3,8.9,2.5c1.7,1.2,3.4,2.6,5.2,3.9c1.7,1.4,3.2,3,4.4,4.7c3.3,3.4,1,13.9,7.4,9.8c22.2-12.8,42.6,6.1,61.5,16.1
				c-18.4-7.1-37.7-31.2-58.9-18.5c-8.2,5.4-9-5.6-12.7-11c-2-1.5-4.1-3.1-6.2-4.5c-2.2-1.3-4.5-2.4-7-2.8c-2.9-0.6-5.9-0.9-8.9-0.9
				c-8.9,0.1-17.6,3.2-25.4,10.9C11.7,35.8,9,50.4,16.1,62.4c1,1.4,2.4,3.1,3.9,4.8c1.6,1.8,3.4,3.5,5.3,5c3.1,3.3,7.3,4.6,11.1,3
				c-3.6-3.4-8.1-5.7-10.9-9.9c-3.2-2.9-5.9-5.5-7.5-9.3c-6.8-16.1,5.4-34.4,22.3-36.2c-4.1-0.3-7.7,2.3-11.3,4.9
				c2.9-1.8,6-3.1,9.1-4c3.1-0.8,6.4-1.2,9.6-1c2.4,0.8,4.8,2.1,7.3,3.6c2.4,1.5,4.9,3.3,7.2,5.3c8.6,15.5,6.8,35.1,23.7,45.4
				c5.8,4.1,12.2,6.1,17.3,12.3c1.2,0.8,3.8-1.6,5.6-3c-9.4,16.8-22.4-6.4-32.4-11.8c3.8,4.4,7.6,8.9,10.4,13.5
				c-9-11.7-19.1-23.2-21.7-38.9c1.8,16.9,15,28.9,29.3,35.7c-19.7-8.9-26.3-30.1-29.9-48.5c-1.6-3.2-3.9-5.5-6.4-7.5
				c-2.6-1.9-5.4-3.5-8.5-4.7c-2.4-0.2-4.9,0-7.4,0.3C37,22.2,32,23.8,27.3,26.1c2-0.3,2.8-1.5,3.6-2.6
				c-9.5,3.6-13.1,12.3-14.6,21.7c-0.2,3.3,0.4,6.3,1.6,8.9c1.2,2.7,3,5,5.1,7.1c4.8,4.4,9.8,9.6,15.5,13.7
				c-4.6,2.8-8.1,0.3-12.2-0.9c-2.1-0.9-4.2-1.6-6.2-2.4c-2-0.7-3.9-1.4-5.8-1.8c2-0.3,4.9-0.8,5.6-3c-0.5-3-3.8-4.4-5.3-7.2
				c3.5,2.5,4.1,6.4,0.5,9c1.3,1.8,2.9,3.2,4.6,4.2c1.8,1.2,3.7,2,5.7,2.6c6.3,1.6,14.2,6.3,20.4,1.2c1.6-2.3,2-6.4,2-6.4
				c-9.7-3.4-18.7-9-24.5-17.3c-1.2-1.6-2-3.5-2.4-5.6s-0.2-4.5,0.5-7.2c2.5-9,9.9-14.8,18.4-17c2.8-0.7,5.7-1,8.5-0.9
				c5.6,0.3,9.2,3.7,11.9,7.3c-4.4-2.3-8.2-6.7-14.6-5.8c-2.1,0.2-4.3,0.6-6.4,1.2c-3.3,1.6-7.2,3.7-9.9,6.6s-4.1,6.4-2.4,10.7
				c8.1,11.8,36,21.3,21.4,37c-5.1,5.9-15,1.5-23.1-1.8c-2.5-0.8-4.9-1.8-7.2-3.2C6.9,68,1,56.9,3,44.4c1,5.9,0.8,11,5.6,15.3
				c2.9-18.7,7.4-40.8,29.9-45.6c5.2-1.2,10.4-1.3,15.4-0.5c2.5,0.4,5,1,7.5,1.7c2.1,1.7,4.1,3.1,6.1,4.3c1.9,1.2,3.8,2.3,5.3,3.4
				c2.1,2.2,3.1,8.1,5.8,6.6c29.6-11,55.4,16.1,82.3,24.1c2.9,0.3,5.4-1.4,7.5-3.5c10.4-10.4,11.5-28.7,0.5-38.7
				c-3.5-2.5-8.5,3.5-10.7,8.9c-1.2-6.9,4.1-11.8,8.9-13.7c11.7-3,22.9,3.3,32.1,10.9c3.6,2.7,6.6,4.6,9.1,7
				c2.6,2.3,4.7,5.1,6.4,8.3c2,1,3.9,2.4,5.7,4.2c1.8,1.8,3.4,4,5,6.7c2.3,2.2,4.7,3.9,7.2,5.5c2.5,1.5,5.2,2.8,8.2,3.9
				c11.7,3.1,27.3-0.5,27.1-13.7c0.8-7.2-4.6-15.5,2.6-20.7c22.7-16,37.5,12,53.5,22.6c3.2,0.8,6.5,1.6,9.7,2.2
				c13,2.5,25.7,2.9,36.8-3.5c-12.2,4.9-24,4.2-35.5,0.9c-2.9-0.8-5.7-1.8-8.6-2.9c-18.7-14.4-35.8-37.9-61.6-28.5
				c20.9-8.6,39.5,5.6,50.3,22c-9.4-13.6-25.5-25.1-43.7-19c-10.5,3.8-11.7,15.1-16.3,24c-6,12.7-13.8,11.2-22,5.6
				c-2.7-1.9-5.5-4.3-8.3-7.1c-1.9-3.7-4.1-6.4-6.5-8.5c-2.5-2.1-5.3-3.5-9.3-6.9c-2.1-2-4.5-3.7-6.9-5.1c-2.5-1.5-5.5-3.7-9.1-6.1
				c-10.7-7.5-24.3-10.2-35.5-4.3c-5.1,2.9-7.4,7.3-8.5,12.3c-0.5,2.5-0.8,5.1-1.7,6.9c-12.9,13-27.5-14-43.3-14.8
				c-2.5-0.2-5.1-0.2-7.6,0c-5.1,0.4-10.4,1.5-15.5,3.2c-1.5,0.5-3.1,0.9-5.2,1c-13.2-0.8-26.4-6.7-40-3.4
				C17.2,14.6,3.9,32,6.1,50.9C2,38.4,9,26.1,14.4,16.1c-15,13.7-20,37.8-4.1,54.4c2,2,4.3,3.7,6.7,5.1c2.4,1.4,5,2.5,7.6,3.3
				c7.5,2.8,18.5,6.6,24.7,2.9c2.1-1.2,3.6-3.2,4.4-6.4c1.1-5.3,0.5-9.2-1.9-14.3c-1.1-2.2-2.5-4.2-3.8-6.3
				c-1.4-2.1-2.7-4.1-3.8-6.2c1.1,1.8,2.4,4,3.9,6c1.5,2.1,3.3,4.2,5.2,6.1c4.7,3.8,11.3,6.8,14.1,11.4c3.9,5.4-4.9,6.9-8.7,8.8
				c-2.7,1.3-5.8,2.4-9.1,3.1c-9.8,2.2-21.7,0.5-30.2-2.5c-3.2-0.6-6.3-1.5-9.4-2.7S3.8,76,0.8,74.1c5.8,4.1,12.2,7.6,19,9.5
				c2.3,0.7,4.6,1.2,7,1.6c7.4,2.4,15.7,4.2,23.3,2.2c2.5-0.7,4.9-1.8,7.2-3.4c3.3-4.6,11.5-4,12.8-8.2c1.6-8.4-5.3-13.3-10.2-18.6
				c-0.8,1.2-0.3,4.1-3.4,4.5c-4.1-1.2-6.3-3.7-8.1-6.7s-3.1-6.6-5.6-9.2c1.4,2.3,3,4.6,4.5,7s3.1,4.8,4.3,7.2
				c2.5,5.2,3.3,10.1,2.2,15.3c-0.8,2.7-2.3,4.5-4.2,5.7c-5.7,3.6-15.2,1.3-22.5-1.3c-2.4-0.8-4.6-1.4-6.7-2.4
				c-6.2-2.5-11.6-7.2-15.1-13.2c-8.6-14.8-4.6-33.7,6.5-45.7c-3.6,8.7-9,18.7-6.2,29.4c-0.2-19.2,14.3-35.8,33-39
				c11.5-1.9,21.9,2,32.7,4.8c2.2,0.6,4.2,1.1,6.3,1.5c2.3,0.2,3.9-0.1,5.5-0.4c9-1.7,17.8-3.2,26.7,1.4c15.5,7.6,28.3,17.6,45,16.8
				c1.8-0.8,2.2-2.8,2.1-5c-0.1-6.6-3.5-14.5,3.2-20.2c6.4-4.1,13.3-5.3,20.7-3.5c8.6,2.6,15.8,9.5,22.1,15.5c2.5,1.7,4.8,3.7,7,5.7
				s4.3,4.3,6.3,6.6c2.6,1.9,4.8,4.6,6.7,8.3c2.3,2.8,4.6,5.2,7.1,7.1c2.5,1.8,5.2,3.2,8.4,4c10.5,2.3,28,3.4,27-8.6
				s-0.3-26.3,13.5-28.6c18.9-2.1,28.8,14.4,41.2,25.5c3.3,1.7,6.7,2.5,10.1,3.2c13.6,2.8,27.3,3.8,40.6-1
				c-14.8,2.5-29.7,1.8-43.7-2.7c-2.8-0.9-5.5-2.5-8.2-4.6c-6.6-7.8-13-15.9-21.3-22.6c9.4,7.6,16.1,17.6,24.3,25c2,1.6,4,2.7,6,3.9
				c-3.1-1.7-6.2-3.6-9.3-6c-10.2-12.6-23.8-27.5-42.4-23.4c-12.7,3.1-15.3,17.8-21.8,27c-5.7,8.6-13,7.2-20.3,2.6
				c-2.5-1.5-4.9-3.4-7.3-5.5c-1.7-2.9-3.7-5.4-5.9-7.5c-2.2-2.1-4.7-3.8-7.3-5.1c-2.1-2.4-4.6-4.5-7.3-6.5c-2.8-2-5.8-3.7-9.4-6.1
				c-9-6.5-21.2-12.6-32.9-9.6c-5.8,2-12,7.1-13,13.3c2.5-3.5,3.9-6.7,7.6-9.4c-6,4.8-3.6,12.8-3.2,19.2c0.1,2.1,0,4.1-0.8,5.7
				c-15.7,2.7-35.5-6.2-43.2-20.7c-1-1-3-1.9-5.3-2.5c2.8,0.3,5.4,1.1,6.9,2.1c6.7,12.8,20.2,14.6,32.2,19.7
				c0.8-1.2,0.5-3.1,1.4-4.6c1.3-1.8,2-4.7,3.1-7.4c3.4-8.2,11.4-14.2,21.4-14.6c11-0.8,19.4,6.9,28.9,11.7c2.8,1.1,5.5,2.7,8.1,4.6
				s5.1,4.3,7.5,7.2c2.2,1.2,4.3,2.7,6.3,4.6c2,1.9,3.8,4.2,5.5,7c2.4,2.1,4.9,4.1,7.4,5.7c7.4,4.8,14.8,6.4,20.9-2.2
				c4.1-5.8,2.1-17.6,9.2-23.8c14.3-11.5,34.5-5.8,45.1,8.7C300.2,14.9,286.4,5,271.6,7.5c21.7-3.6,35.8,14.3,49,28.1
				c2.7,1.9,5.5,3,8.3,3.9c14.1,4.5,28.7,5.8,43.7,1.3c-12.7,5.7-26,5.4-39.2,2.9c-3.3-0.6-6.6-1.4-9.9-2.2
				c-11.5-4.3-15.6-16.7-25.8-23.2c-9-5.6-21.4-6.6-29.1,1.8c-4.9,6.9,0.3,14.1-2.5,21.7c-7.6,19-21.2,13.7-34.9,5.3
				c-2.7-1.8-5.5-3.7-8.3-6.3c-1.9-1.2-3.7-2.9-5.6-4.6c-1.9-1.8-3.9-4.2-6.5-8.1c-2.4-3.3-5.4-6.4-8.8-8.7
				c-5.3-4.5-9.1-8.9-14.5-11.1c5.8,4.1,11.5,8.2,17.1,12.8c1.9,1.5,3.7,3.3,5.4,5.3s3.4,4,5,6.1c1.6,1.5,3.1,3.1,4.6,4.8
				c3,3.4,5.9,7,9.2,9.4c2.4,1.7,5,3.2,7.6,4.4c7.8,3.6,16.3,4.5,25.1-0.5c11-6.9-0.5-21.2,7.2-29.6c19.7-21.5,38.8,7.7,55.2,20.6
				c3.5,0.9,7,1.8,10.4,2.5c13.9,2.9,27.7,3.4,40.2-3.8c-15.4,5.1-30.3,3.6-44.8-1.1c-2.9-0.9-5.8-2-8.6-3.8
				c-13.9-14.8-29.1-32.5-51.6-27.7c21.5-4.6,37.7,13,49.3,28.2c-7.4-7.9-12-17.3-23-22.5c-8.7-3.6-18.9-3.9-27.3,0.5
				c-8.2,5.4-9.4,16.8-13.1,24.5c-5.7,11.1-13.6,9.6-21.6,4.2c-2.7-1.8-5.4-4.1-8-6.4c-1.6-2.6-3.5-4.9-5.5-6.9
				c-2.1-2-4.3-3.7-6.7-5.1c-1.8-2.6-3.9-4.9-6.2-6.8c-2.3-1.9-4.7-3.5-7.3-4.7c-12.4-9.6-29.8-16.8-44.4-7.3
				c-4.6,2.8-6.4,6.9-7.2,11.6c-0.4,2.3-0.5,4.8-1.4,6.4c-2.2,8.2-10.1,3.4-16.4,2.4C120,22.8,115.5,8.3,102.7,9.7
				c-2.4-0.1-5.5,0.1-8.7,0.6c-3.2,0.5-6.4,1.3-9.6,2.2c-2.8,0.8-5.5,1.7-9,2.2c-2.4-0.7-4.8-1.5-7.3-2.2C55.8,8.8,42.3,6,28.9,11.6
				C13.8,18.2,5.1,32.9,5.8,49C2,38.4,7.4,28.4,11.8,18.5c-16.6,16-15.9,44.2,4.5,57c2.1,1.2,4.3,2.1,6.6,2.8
				c2.4,0.9,4.8,1.6,7.4,2.3c3.2,0.8,6.4,2,9.7,2.4c3.2,0.4,6.5,0.1,9.7-1.9c5.8-2,5.4-10,4.1-15c-1.2-3.1-2.8-6.2-4.4-9.2
				c-1.6-3-3.2-5.9-4.1-8.5c0.6,2.2,1.7,4.2,2.9,6.2c1.2,2,2.6,3.9,4,5.9c2,4.6,5.8,9,5.7,14.1c-1-5.9-3-11.7-6.4-16.4
				c-1.4-2.4-2.9-4.8-4.5-7S43.4,47,41.6,45c1.6,2.3,3.4,4.6,5,7.1c1.6,2.5,3.2,5,4.4,7.6c2.9,4.6,3.9,10.5,2.8,15.8
				c-0.9,3.5-2.8,5.5-5.1,6.5c-7.1,3.1-19.1-2.6-27.3-4.5c-2-0.7-3.9-1.6-5.8-2.8c-1.8-1.1-3.6-2.5-5.2-4.1
				C-4.3,55.7-2.1,32,12.8,18.4C8,26.3,2.6,36.3,5.3,46c4.7-31.8,37.1-40.3,63.8-34c3,0.7,5.9,1.6,8.6,2.7c2.2-0.1,3.8-0.7,5.4-1.3
				c3.1-1.1,6.4-1.8,9.6-2.1c3.3,0.3,7.2-0.4,10.5,1.1c18.7,9,33.9,20.7,54.3,21.3c3.5-3.1,2.7-6.3,1.1-9.6s-4.3-6.6-4.4-10.2
				c0.2-5.1,4.6-8.9,8.4-10.5c16.4-4.8,30.4,6.1,42.1,15.5c2.2,1.4,4.2,3.1,6.1,4.8c1.9,1.8,3.7,3.7,5.3,5.7c2.6,2,5.1,4.7,7.3,8.4
				c2.4,2.4,4.8,4.3,7.2,6.1c12,8.3,24.7,13,34.8-2c3.8-7.7,0.8-19.4,10.2-24c21.5-10.7,32.7,13.8,47.5,24.5
				c2.5,0.6,5.1,1.1,7.6,1.3c12.3,1,26.3,5.7,38.1-2.3c-13.6,3.3-28.1,1.7-41.8-1.1c5.3,1.1,10.4,1.3,15.8,3.4
				c-2.9-0.6-5.9-1.2-8.8-2c-2.9-0.7-5.8-1.5-8.7-2.4c-3.6,0.2-6.1-2.4-8.5-5.1c-11.5-14.3-28.1-28.8-46.9-19.5
				c-13.1,6.3-8.7,20.7-16.3,30.1c-2.6,2.5-6.6,3.1-10.5,3.8c5.9-1,15.3,0.5,15.9-7.7s1-18.4,8.2-23.7c-7.9,7.4-7.2,17.4-8.7,26.8
				c-0.5,3.1-4.4,3.8-7.2,5.3c4.8-1.8,6.2-5.1,5.6-9c-0.8-17.1,12-31.4,28.6-29.1s24.2,17.2,35.4,26.5c2.7,1.6,5.5,2.6,8.2,3.4
				c8.3,2.4,16.8,3.8,25.8,2.7c-4.1-0.3-9,0.5-13.3-0.8c8.4,1.6,17.1-0.8,26.3-0.3c-13,4.2-25.8,3.6-38.5,1.1
				c-3.2-0.6-6.3-1.4-9.4-3c-11.1-10.1-20-26.9-38.1-25.9c-8.1,0.3-16.3,5.8-16.1,12.8c-0.2,11.2-2.3,22.7-14.1,24.7
				c-7.5,0.7-13.9-1.5-19.8-5.2c-1.9-1.2-3.8-2.6-5.6-4.2c-1.8-2.1-3.5-4.5-5.2-6.8c-1.8-2.3-3.6-4.6-5.6-6.5
				c-2.7-4.2-6.2-7.9-10.2-10.9c-2-1.5-4.1-2.9-6.7-4.9c-11.9-10.5-34.8-19.9-45.1-2.9c-1.9,3.9-0.6,8.5,0.7,12.7s2.7,8,0.5,9.4
				c-21-0.5-37.6-14.9-58.6-19.5c-5.3-1.1-9.9,1.7-14.8,1.9c-2.6-0.8-5.4-1.5-8.3-2.1C46.7,7.8,16.8,10.5,5.1,38.9
				c1-6.2,2.8-13.6,5.9-19.2C0,32.7-3,51.4,6.6,66.1c1.6,2.3,3.5,4.3,5.7,6.1c2.2,1.8,4.6,3.2,7.1,4.4c7.4,3,18,8,25.9,5.9
				c2.6-0.7,5-2.2,6.8-4.7c4.3-4.8,3.1-11.7,0.3-16.9c-1.3-2.9-3.1-5.7-5-8.4c-1.9-2.7-4-5.2-5.9-7.4c3,3,5.1,7.5,7.6,11.5
				c1.3,2,2.7,3.9,4.5,5.7c2.2,1.7,4.7,4.3,6.6,4c4.1,0.3,0.5-3.1-0.5-3c-3,0.5,1.5,2.8,0.5,3c-3.9,0.7-6.7-3.9-8.3-8.1
				c-0.9-1.8-1.7-3.7-2.9-5.4c-1.2-1.7-2.7-3.1-4.9-4c1.6,2.3,3.5,4.8,5.1,7.5c1.7,2.7,3.1,5.5,4.1,8.5c1,2.9,1.5,5.7,1.1,8.2
				c-0.4,2.6-1.6,5.1-4.1,7.2c-7.9,7.4-18.1,1-26.6-1.6c-2.5-0.6-4.8-1.5-6.9-2.7C6.4,69.8,0.4,57.5,0,44.9
				c0.2-11.2,6.9-19.4,13.6-27.6C8,26.3,2.8,37.3,5.6,48C4.9,38,8.2,27.3,16.1,19.9C31.9,5.1,52.3,5.7,70.7,12.5
				c5.4,0.7,8.8,0,11.9-0.6c2.7-0.6,5.4-1,8.1-1.2c2.7-0.2,5.4-0.3,7.2,0.1c17.4,2.7,31.9,22.6,50,11.3c1-2.5,2-5,3.2-7.3
				c3.5-6.9,8.5-12.3,18.1-12.4c10.2,0.3,19.7,2.8,26.4,8.4c3.5,2.3,6.3,3.7,8.9,5.6c2.6,1.8,5,4.2,7.4,7.2c2.4,1.2,4.7,2.5,6.8,4.3
				s4,4.1,5.8,7c2.6,2.5,5.1,4.5,7.5,6.3c7.4,5.1,14.8,7.1,22.6-1.3c5.3-4.9,2.9-18.7,12.1-24.3c17.4-11,37.6,0.8,48.3,16.2
				C305.8,18,290.3,4.4,272.5,7.4c21.7-3.6,36,15.3,49.5,29c2.7,1.5,5.5,2.5,8.3,3.4c13.9,4.5,28.4,5.9,43.2,0.9
				c-15.2,6.1-30.5,4.1-45.9,0.8c-3.1-0.7-6.1-1.8-9.1-3.5c-9.4-11.4-20.6-23.8-36.7-23.1c-15.9,1.7-12,19.2-16.4,29.1
				c-8,16.5-21.2,11.8-34.5,4c-2.7-1.7-5.4-3.5-8.1-6c-1.3-1.6-2.8-3.2-4.4-4.7c-1.6-1.5-3.4-3-5.4-5.8c-1.5-2.3-3.5-4.7-5.8-7
				c-2.4-2.3-5-4.5-8.4-7.4c-6.9-6.3-15.8-10.9-24.8-10.4c8.7-2.5,16.6,2.3,22.8,7.4c3.6,2.7,6.4,4.5,8.7,6.5
				c2.3,1.8,4.2,3.9,5.3,5.9c2.4,3.2,4.1,4.8,5.6,6.2c3.1,2.9,5.8,6.3,8.7,9.7c1.6,1.9,3.3,3.4,5,4.8c3.4,2.8,7,5.1,11.6,6
				c8.4,1.6,17.3,0.2,23.3-5.9c4.1-5.8,3.1-11.7,3.1-17.8c-1-5.9,4.3-10.9,10-12.8c18.2-6.1,31.2,11,42.2,22c3.2,1.7,6.6,2.9,10,4.3
				c7.6,2.8,15.6,2.5,22.5,1.3c-9,0.7-17.3-0.9-25.1-3.8c-2.6-1-5.2-2.3-7.7-4.3c-11.7-14.3-26.8-32.1-47.5-28.6
				c15-1.5,29.3,5.2,37.5,18.1c-7.7-9.9-18.8-15.1-30.9-15.1c-16.9,1.8-18.9,20.4-26.1,31.7c-4.5,6.3-11.2,5.9-17.7,2.6
				c-2.2-1.1-4.3-2.6-6.4-4.2c-3.3-5.4-7.2-9.4-11.5-12.4c-2.2-1.5-4.4-2.8-7.7-6.2c-2.1-2.4-4.5-4.5-7-6.1
				c-2.5-1.7-5.6-4.1-9.3-6.6c-11.3-8.9-31.2-12.7-42.2,0.3c-2.5,3.5-3.9,7.2-3.9,10.9c-1.7,4.2,0.6,5.9,3.1,8.5
				c-15.6-2.5-29.9-9.2-39.4-21.5c-2-0.9-4-1.7-6.1-2.3c2,0.8,3.9,1.8,5.8,2.9c8.3,15,26.9,23.1,42.7,22.6c-1-2.3-1.4-4.6-1.6-7.4
				c-0.7-8.4,3-16.8,11.7-19.8c10.7-2.8,22.2-0.7,31.1,6.5c3.4,2.2,6.2,4.1,8.6,5.7c2.4,1.5,4.7,3.5,6.8,5.8
				c3.7,3.5,6.4,5.1,8.8,7.3c2.4,2.1,4.5,4.8,6.3,8.1c2.2,2.3,4.4,4.1,6.7,5.7c6.7,4.6,13.9,6.4,21.4-0.4c6.9-7.2,3.9-18.9,13-25.5
				c19.1-13.3,40,2.4,51.6,18.1c2.8,2.4,5.5,4.5,8.3,5.9c-1.9-0.9-3.8-2.3-5.8-4c-7.6-8.5-14.4-18.6-24.6-25
				c9,5.6,14.6,14.8,22,22.7c2.3,1.6,4.8,4.3,8.4,4.9c2.8,0.8,5.6,1.5,8.4,2.1c11.3,2.3,23,2.6,34.6,2.2
				c-13.2,2.7-26.4,1.4-39.5-0.6c-3.3-0.5-6.6-1.1-9.7-2.5c-12.5-13.5-36.9-37.8-48.8-12.5c-4.4,9.9-7.4,22.5-19.2,24.5
				c-7.9,1.3-14.7-1.3-20.8-5.6c-2.1-1.5-4-3.1-6-5.2c-1.4-3-3.1-5.5-5-7.6s-3.9-3.6-6.2-4.8c-1.5-2.3-3.1-4.3-5-6.2
				c-1.8-1.9-3.9-3.6-6-5c-6.6-6.9-14.5-11.7-23.1-14.3c-9.5-2.5-23.5-1.1-26.6,10.5c-0.4,3.6,1.6,6.8,3.5,9.7
				c1.9,2.9,3.6,5.4,2.4,7.6c-20.1,7.4-35-15.4-53.8-18.4c-7.2-0.8-14.3-0.6-20.5,1.5c-2.9,0.8-6.4,1.5-11.1,0.7
				c-2.3-1.1-4.9-2.1-7.5-2.9c-13-3.9-27.2-3.7-39.7,2.6C13.5,22.3,7.7,36.5,5.9,50c-2.6-9.7-1.3-20.1,4.4-28.1
				c-11.2,12-13.8,32.7-2.4,46c3.3,3.5,7.1,6.4,11.3,8.3c2.1,1,4.3,1.8,6.5,2.5c7.3,2.1,17.8,6.3,23.8,3c2-1.1,3.5-3.1,4.2-6.2
				c1.1-5.3-0.5-9-2.1-13.5c-1-2.1-2.2-4.2-3.6-6.2c-4.2-6-9.7-11.7-13.7-17.6C41.8,41.4,46.1,47,50.1,53c1.3,2,2.6,4.1,4,6.4
				c1.5-3.5,5.1-6.2,6.6-3.4c6.1,6.1,11.4,13.3,8.7,21.9C68.9,81,63,82,59.2,83.7c-2.3,1.3-4.7,2.2-7.2,2.8
				c-7.3,1.6-15.2,0.1-23-1.1c-2.7-0.4-5.1-0.9-7.5-1.8c-2.3-0.8-4.6-2-6.6-3.7c2.5,1.4,5.1,2.3,7.8,3c2.7,0.7,5.5,1.2,8.5,1.9
				c4.1,1.1,7.9,1.9,11.9,2.1s7.9-0.2,12.3-1.5c4.6-2.8,12.7-3.1,14.8-8.6c3-6.6-9.4-7.6-14.6-12.1c-2-1.5-3.7-3.3-5-5.2
				c-1.3-1.9-2.3-4.1-2.6-6.3c1.3,1.8,2.7,3.9,3.9,6.1c3.4,6.9,5.7,14.6,0.6,20.5c-2,1.9-4.1,3-6.4,3.5c-6.8,1.7-14.6-1.5-21.2-4.9
				c-3.1-0.8-5.8-2-8.3-3.6C-0.8,64.1-4,36.7,10.3,21.8c-1.5,3.3-3.9,6.7-4.3,10.9C19.9,12.1,44.9,3.9,68.5,12.4
				c5.8,0.8,9.2,0,12.1-1.1C86.3,9,92.3,7.7,98.2,7.5c3-0.1,5.9,0.1,8.8,0.6c11.3,4.8,25.7,23.7,39,9.6c0.9-2.1,2-4.2,3.2-6
				s2.8-3.5,4.6-4.8c11.8-8.1,29.1-7.9,40.2,2c3.6,2.2,6.4,3.9,9,5.4c2.5,1.5,5,3.4,7.4,5.9c1.9,1.5,3.5,2.5,4.8,3.4
				c2.7,1.7,5.2,4,7.4,7.1c2.3,2.4,4.6,4.6,6.9,6.5c9.3,7.8,19.2,13.3,24,1.7c5.7-14.1,13.5-28.6,29.7-28.3
				c17.3,0.2,25.7,14,35.7,25.5c-11.2-18.4-31.1-34.3-54.1-26.4c22.2-6.8,40.9,8.4,54.1,24.4c2.9,2.2,5.8,3.8,8.8,4.8
				c14.8,5,30.1,7,45.9,1.8c-13.2,5.8-26.7,5.5-40.2,3c-3.4-0.6-6.7-1.4-10.1-2.2c-14.3-9.9-22.5-28.8-42.6-27.4
				c-17.1,0.8-10,18.9-14.4,28.8c-5,14.4-19.4,13.6-32.4,7.1c-3.3-1.6-6.4-3.7-9.4-6.6c-1.1-1.8-2.4-3.6-3.9-5.3
				c-1.5-1.7-3.2-3.3-5-4.7c-2-1.8-4.1-4.2-6.3-6.6c-2.2-2.4-4.5-4.9-7-6.8c-5.8-6-12.8-12-21.9-11.5c2-0.3,4.3,1.3,6.4,2
				c-9.7-3.4-25.2-4.9-29.3,6.9c6.4-10.2,15-1.5,16.3,6.4c0.6,8.4-2.7,16.3-8,22.4c-1.8,2-3.9,3.6-6.4,3.2
				c-22-7.3-42.8-16-64.3-23.6c-4.3-1.3-9.7,2.6-14.6,3.5c-5.1-0.2-6.4-8.1-11.3-8.7c-2-1.1-4-2.5-6-4.3c-2.6-1-5.4-1.8-8.1-2.4
				c-11.1-2.5-22.1-2-32.8,6.9C9.9,31,7.6,47.6,14,61.8C4.4,59.3,2.5,47.5,3.1,39.3C-0.3,49,3.3,58.5,8.7,66.7
				c1.5,2.1,3.4,3.9,5.5,5.5s4.4,2.7,6.8,3.6c8,2.7,15.9,7.5,24.6,5c4.9-0.8,7.1-6.3,6.4-10.2c-1.3-14-15.1-17.7-24.4-24.1
				c-2-2.1-2.7-4.3-2.4-6.7c0.9-7,10.8-14.7,18.7-17.5c-11.6,1.1-22.6,10.5-23.4,22c-0.2,2.3,0.1,4.7,0.8,7.1
				c3.6,9.5,13.5,14,23.7,14.3c2-0.3,3.9,5.4,3,5.6c-6.4,4.1-14.3-0.6-20.2-4.4c-3.8-2.4-6.8-5.3-8.8-8.5s-3.2-7.1-3.4-11.1
				c0.7-8.2,4.4-15.9,10.7-21.1c6.8-4.7,14.6-6.8,22.3-6.3c2.5,0.2,4.8,0.7,6.6,1.7c1.9,1.7,3.8,3.4,5.5,5.3
				c1.7,1.9,3.2,4.1,4.3,6.9c1.9,17,7.9,34.2,21.7,44.1c-11.3-7.2-20.2-17.9-21.6-31.9c2,11.8,8.1,24,18.4,31.4
				c-5.9-5.1-11.7-9.2-14.8-15.8c3.5,8.5,10.5,14.5,15.8,21.7c-1.2-0.8-3.5-2.5-4.6-3.3c1.2,0.8,3.5,2.5,4.6,3.3c-0.2-1-0.3-2-0.5-3
				c5.9-1,9.9,4.4,13.5,7.9c3.5,2.5,8.2,0.7,10.8-1.8c2.5-3.5,3.9-6.7,2.3-10.5c-2.6,2.5-3.1,5.6-4.6,8.9
				C85,74.2,66.3,59.1,64.1,34.4c-1.5-2.9-3.4-5.1-5.3-7.2c-1.9-2-3.7-4-5.3-5.9c-2.7-1-6.1-1.4-9.6-1.1c-3.6,0.3-7.3,1.3-11,2.9
				c2-0.3,2.8-1.5,4.6-2.8c-11.7,3-21.4,11.7-22.2,25c-0.2,3.3,0.3,6.2,1.3,8.6c1,2.5,2.5,4.6,4.3,6.4c4,5.7,9.6,8.8,14.4,13.1
				c-3.8,1.6-8.2-0.7-11.5-2c-1.9-1-3.6-2.3-5-3.8c-4.3-4.4-6.3-10.9-6.7-17.7c-0.2-7.1,1.6-14.5,5.7-20.2
				c8.2-11.5,23.1-16.2,36.8-14c2.7,0.4,5.3,1.2,7.4,2.3c2,1.4,3.7,2.9,5,4.7c1.3,1.7,2,4,2.3,6.5c-0.7-4.8-2.1-7.7-5.8-10.2
				c-1.4-1.2-3.4-2.1-5.6-2.7c-6.9-1.9-14.3-1.9-21,0.2C26.3,20.2,17.2,26.8,14,37.5c-3.1,10-1.2,19.6,4,27c1.3,1.8,2.8,3.6,4.5,5.2
				c2.5,3.5,8.4,8.6,10.9,5.1c2.6-2.5-3.1-6.6-6.5-9c-3.1-2.3-6.4-4.1-8.3-6.8c2.5,2.6,4.8,4.4,7.9,7.5
				C27.4,67.2,25.8,65.8,20.4,60.9z"/>
			<path class="st0" d="M201,32.1c-4.2-5-8.1-10.4-14.6-12.4c-10.7-3.3-11.5,10-10.3,16.9c1-6.2-1.5-15,4.1-17.9
				c7.2-5.3,14.6,2.6,20.3,7c2.3,2,4.3,3,6.2,4.2c3.7,2.4,6.7,5.9,9.3,10c2.6,1.9,5.2,4.7,7.7,6.7c2.2,2,4.3,3.7,6.5,5.1
				c2.2,1.3,4.4,2.5,6.8,3.1c11.7,3.1,34.2-1.7,30.7-16.3c-2.1-6.7-5.3-13.3-4.5-20.5c-2.5,9.5,5.6,21.4-3.3,28.9
				c-9.4,7.2-17.9,5.3-25.6,0.2c-2.6-1.7-5-3.7-7.5-5.9c-3.8-3.4-7.1-8.7-11-12.8c-2-2.1-4.3-4.6-7.9-8.3c-1.9-2-4.5-3.9-7.4-5.6
				c-8-6.1-20-17.2-28.9-9.7c-4.4,3.8,2,11.8-2.1,17.6c0-6.1-7.2-6.9-8.9-10.7c-4.4-8.4,7.4-10.4,13.5-10.4
				c10.2,0.3,17.4,7.2,26,12.3c2.1,1.1,4.1,2.4,5.9,3.8c1.8,1.5,3.5,3.1,5,4.8c2.7,2.7,4.5,4.5,6.2,6.4c3.4,3.9,6.4,8.5,10.7,11.3
				c2.9,2.3,5.8,4.5,8.8,6.3c8.9,5.3,18.1,6.8,25.5-3c5.9-7.1-4.1-18.6,0.3-28.4c5.9,11.2,10.7,27.6-1,36.7
				c-8.1,5.9-16.1,5.2-24,2.1c-2.6-1-5.2-2.3-7.8-3.8c-3.7-1.5-6.5-4.6-9.4-7.5c-1.4-1.5-2.9-2.9-4.6-4.2c-2.4-1.8-4.6-5.8-6.8-8.6
				s-4.6-4.5-7.1-2c-1.9-0.1,0.1,6.1,0.5,9.5c-0.6-4.6-2.6-10.8-0.7-10.6c1.6-2.2,3.2-1.7,4.8-0.2s3.2,4,4.8,5.2
				c2.5,3.1,4.4,4.5,6.2,5.9c3.6,2.8,6.9,7,9.9,9.4c2,1.3,4,2.6,6.1,3.8c6.2,3.5,12.7,6,20.6,5.2c7.9-1.3,18.1-7.1,16.4-16.9
				c-2.3-7.7-9.5-14.6-8.1-24c-4.6,8.9-0.2,17.3,1.3,26.1c0.2,7.1-8.7,8.6-13.6,9.4c-9.5,0.6-15.9-3.9-21.8-9.4
				c-2-1.9-4-4.1-6.1-6.4c-1.9-3-4-5.4-6.4-7.3c-1.2-1-2.6-2.2-4.3-3.7c-1.7-2.1-3.9-4.1-6.3-5.9c-2.5-1.8-5.2-3.4-8.7-6.1
				c-7.3-4.9-13.2-10-21.4-10.6c-7.1,0.2-18.1,1-16.8,8.9c2.3,13.8,17.4,31.6-0.3,40.6c15.8-2.6,13.8-20.6,19-31.6
				c5.9-13.2,19.1,4.9,27.5,10.9c1.9,1.1,3.8,2.3,5.7,3.5c1.8,1.2,3.6,2.4,5.3,3.5c1.4-0.7,3.7,0.7,6.1,2.7c2.5,2,5.1,4.6,7.4,6.3
				c2.1,1.4,4.2,2.7,6.4,4c6.5,3.7,13.2,6.4,21.5,4.5c5.8-2,14.1-6.4,14-13.5S266,28.7,263,23.1c0.5,9,9.4,19.7-1.8,25.6
				c-9.7,5.7-18.4,3.6-26.3-1.3c-2.6-1.6-5.2-3.6-7.6-5.6c-1.8-1.9-3.5-4-5.3-6.2c-1.8-2.1-3.7-4.2-5.8-6c-2.9-2.9-5.7-6.4-8.9-9.4
				c-1.6-1.5-3.4-2.8-5.3-3.9c-2-1.2-4.5-3.1-7.6-5.1c3.1,2.2,5.6,4.3,7.6,5.7c1.9,1.3,3.5,2.8,5.1,4.4c3.1,3.2,5.9,6.9,9.1,10.1
				c2,1.9,3.9,4.1,5.8,6.2c1.9,2.1,3.8,4.2,5.8,6c1.8,1.5,3.7,2.7,5.9,3.7c-2.5-1.1-4.7-2.7-6.8-4.4c-1.8-1.8-3.6-3.8-5.3-5.7
				c-1.7-1.9-3.4-3.9-5.2-5.6c-3.5-5.2-8.3-9.2-13-13.5c-1.6-1.4-3.2-3-4.9-5.1c2.1,2.4,4.1,3.6,6,4.9c1.9,1.3,3.8,2.6,5.3,4.7
				c3,3.3,4.9,5.1,6.6,6.7c3.4,3.3,6.3,7.4,9.7,10.6c2.1,2.1,4.2,4.2,6.5,6c2.3,1.8,4.9,3.4,7.8,4.4c8.6,2.6,20.7,2.6,25.1-7.3
				c1.8-7.4-2.3-13.8-1.5-21c1.8,10.8,7.1,24.2-5.9,31.4c-8.9,4.5-16.8,2.6-24.6-1.1c-2.6-1.3-5.1-2.8-7.7-4.7
				c-1.8-2.6-3.7-4.6-5.7-6.1c-2-1.6-4.1-2.7-6.3-5.3c-1.4-2-3.2-4.2-5.2-6.2c-2.1-2.1-4.4-4-7.1-6.4c-6.2-6.3-17.9-15.5-22.5-6.6
				c-7.1,12.3-4.4,28.1-18.7,33.5c6.2-11.2,8.2-23.7,1.1-35.7c-3.9-5.4,1-12.3,6.9-13.3c12-1,23,4.3,31.7,12.5
				c2.8,1.4,5.5,3.2,7.9,5.2s4.7,4.2,6.5,6.5c2,1.6,3.6,3.6,5.1,5.7c3.1,4.1,5.7,8.7,10.1,11.4c2.8,2.1,5.8,4,8.9,5.3
				c9.1,4.1,18.4,4.1,24.9-5.6c4.8-7.9-5.1-18.4,0.3-28.4c4.6,9.4,8.6,20.9,3,29.9c-6.6,12.3-15.8,13.3-25.6,10.3
				c-3.3-1-6.6-2.4-9.9-4c-6.5-2.2-10.1-8.1-14.7-11.7c-1.6-1.6-3.3-3.9-5.6-6.7c-1.3-1.6-3.8-4.2-5.9-4.9c-6.2-1-1.6,8.4-2.6,8.6
				c-2.8,1.5-2.5-2.6-4.8-4.3c1.3,1.8,2,5.8,3.8,4.4c3-0.5-3-5.6,1.8-7.4c2.5-0.4,4.7,0.7,6.6,2.6s3.6,4.4,4.9,6.8
				c1.6,1.3,3.2,2.5,4.6,3.7c3,2.3,5.8,5.1,8.9,7.2c2.9,1.4,5.8,2.8,8.7,4c8.7,3.6,17.3,5.2,26.7-1.9c10.7-8.9,7.9-25.7-1.7-34.2
				c-5.4,10,8.6,20.9,0.8,29.3c-8.7,8.6-17.8,7-26.4,1.8c-2.9-1.7-5.7-3.9-8.4-6.2c-1.9-1.9-3.9-4.2-5.9-6.6c-2-2.4-4-4.8-6.3-6.9
				c-1.5-2.2-3.3-4.4-5.4-6.5c-2.1-2.1-4.4-4-6.8-5.7c-12.4-9.7-37.3-24.8-46-4.1c-0.5,3.1,8.4,7.7,11.5,8.2c7.1-0.2-0.7-10,3-12.7
				c7.9-7.4,16.3,0.3,24,4.5c3.1,2.2,5.5,3.7,7.7,5.3c2.2,1.5,4.1,3.2,5.8,4.8c2.5,2.6,4.3,4,5.9,5.3c4.7,3.8,8.4,9.6,12.9,13.9
				c3,2.5,6,4.9,9,6.8c9.1,5.7,18.2,7.2,25.9-4.2c4.9-6.9-2.8-16.8-0.3-26.3c0,12.2,14,23,2.5,33c-9.8,8.2-19.1,7-28.1,2.7
				c-3-1.4-6-3.2-8.9-5.1c-3.4-2.2-6.2-5.5-9-8.3c-1.4-1.4-2.9-2.8-4.5-4.2c-1.8-2.7-3.5-5.7-5.4-8.1s-4.3-4-7.3-4
				c-3.6-2.7-0.2,4.6,1.2,8.1C202.9,32.8,202.3,33.1,201,32.1z"/>
			<path class="st0" d="M125,56.7c-8.8-14.3-28.6-24.1-44.6-17.5c-0.1,0-0.2,0.1-0.3,0.2c-2.8,1.5-6.1,5.1-5.3,9.9
				c-0.2-7.1,3.8-13.8,10.7-15c22.9-3.8,53.9,12.4,55.5,37.1c0.1,1.9,2.2,3,3.7,1.9c4.2-3,6.7,0,10,4.9c0.7,1,1.9,1.4,3,0.9
				c2.4-1.1,3.2,1.2,4.5,1.9c2,1.1,4.3-1.1,6.3-1.9c2.7-1.1,5.2-2.4,7.5-4.3c4.4-3.5,7.1-8,8.6-13.2c0.5-1.8-1-3.4-2.8-3.1
				c0,0-0.1,0-0.1,0c0.3-0.2,0.6-0.4,0.9-0.5c2.1-1.1,4.3,1.1,3.3,3.2c-3,6.1-6.1,11.3-11.9,14.7c-2.7,1.7-5.5,2.9-8.6,3.8
				c-2.1,0.6-4.4-0.3-6.6-0.1c-0.3,0-0.7,0.1-1-0.1c-5.5-3.6-11.5-0.2-15.9-2c-0.9-0.4-1.4-1.2-1.5-2.1c-0.3-10-6.7-23.3-14.6-29.8
				c-0.1-0.1-0.1-0.1-0.2-0.1c-12.7-9-29.1-16.3-44.1-9.8c2.1,0.7,3.1,0.5,5.1,0.2L86,37.3c12.9-1.2,25,4.8,34.4,12.5
				c0.1,0.1,0.2,0.2,0.3,0.3C123.1,52.9,124.5,55.3,125,56.7z"/>
			<path class="st0" d="M183.8,22.6c-8,6-8,18.2-16.1,24.6c7.1-6.3,4.6-15,6.2-23.3c2.1-5.4,11.2-5.9,14.4-0.8
				C188.5,23.5,186.7,22.9,183.8,22.6z"/>
			<path class="st0" d="M236.1,49c-3-4.6-11.2-5.3-10.6-13.5c5.9,5.1,13.5,7.9,18.5,14.3C246.3,51.8,242.9,52,236.1,49z"/>
			<path class="st0" d="M269.2,49.2c-2.5,1.7-5,5.2-8.4,2.7c-4.9-5.3,3.4-9.7,7.2-9.1C270.5,43.3,271.3,46.4,269.2,49.2z"/>
			<path class="st0" d="M273.5,31.9c-1.3,3.9-7.5,3-7.2-1.2c0.7-2.1,2.5-3.5,4.8-2.5C273.1,28.7,274,30.4,273.5,31.9z"/>
		</g>
	</g>
</g>
<g transform="rotate(0 92.2312 382.4283)">
	
		<image style="overflow:visible;opacity:0.75;" width="364" height="92" xlink:href="596765AB.png"  transform="matrix(1 0 0 1 2.6464 4.8083)">
	</image>
	<g>
		<g>
			<g transform="matrix(1 0 0 1 0 0)">
				<path id="id-D6z1nYkh6_00000128457242279964896680000004629259353915112110_" d="M42,73.9c-5.8,0-11-1.2-15.7-3.7
					s-8.3-5.9-10.9-10.3s-3.9-9.3-3.9-14.8l0,0c0-5.5,1.3-10.4,3.9-14.8s6.3-7.8,10.9-10.3c4.6-2.5,9.9-3.7,15.7-3.7l0,0
					c5.8,0,11,1.2,15.6,3.7c4.6,2.5,8.3,5.9,10.9,10.3s4,9.3,4,14.8l0,0c0,5.5-1.3,10.4-4,14.8s-6.3,7.8-10.9,10.3
					S47.8,73.9,42,73.9L42,73.9z M42,62.9c3.3,0,6.3-0.8,8.9-2.3s4.7-3.6,6.3-6.3c1.5-2.7,2.3-5.8,2.3-9.2l0,0
					c0-3.5-0.8-6.5-2.3-9.2c-1.5-2.7-3.6-4.8-6.3-6.3s-5.6-2.3-8.9-2.3l0,0c-3.3,0-6.3,0.8-8.9,2.3c-2.7,1.5-4.7,3.6-6.3,6.3
					c-1.5,2.7-2.3,5.8-2.3,9.2l0,0c0,3.5,0.8,6.5,2.3,9.2c1.5,2.7,3.6,4.8,6.3,6.3C35.8,62.2,38.8,62.9,42,62.9L42,62.9z
					 M112.2,30.1h12.4V73h-11.8v-5.1c-1.6,1.9-3.6,3.3-5.9,4.3c-2.3,1-4.8,1.5-7.4,1.5l0,0c-5.6,0-10.1-1.6-13.4-4.9
					c-3.3-3.2-4.9-8-4.9-14.4l0,0V30.1h12.4v22.4c0,6.9,2.9,10.4,8.7,10.4l0,0c3,0,5.4-1,7.2-2.9c1.8-1.9,2.7-4.8,2.7-8.6l0,0V30.1z
					 M160.5,62.1l3.3,8.8c-1.2,0.9-2.7,1.6-4.5,2c-1.8,0.5-3.7,0.7-5.6,0.7l0,0c-5.1,0-9-1.3-11.8-3.9c-2.8-2.6-4.2-6.4-4.2-11.5
					l0,0V40.6h-6.6V31h6.6V20.6h12.4V31h10.7v9.6h-10.7v17.5c0,1.8,0.5,3.2,1.4,4.2c0.9,1,2.2,1.5,3.9,1.5l0,0
					C157.4,63.7,159.1,63.2,160.5,62.1L160.5,62.1z M183.5,29.2V31h11v9.6h-10.7V73h-12.4V40.6h-6.6V31h6.6v-1.9
					c0-4.9,1.4-8.8,4.3-11.6c2.9-2.9,7-4.3,12.2-4.3l0,0c1.9,0,3.6,0.2,5.3,0.6c1.7,0.4,3.1,1,4.2,1.7l0,0l-3.3,9
					c-1.4-1-3.1-1.5-5-1.5l0,0C185.4,23,183.5,25.1,183.5,29.2L183.5,29.2z M200.7,73V13.8h12.4V73H200.7z M245.1,73.6
					c-4.5,0-8.6-0.9-12.2-2.8c-3.6-1.9-6.4-4.5-8.4-7.8c-2-3.3-3-7.1-3-11.4l0,0c0-4.2,1-8,3-11.4c2-3.3,4.8-6,8.4-7.8
					c3.6-1.9,7.6-2.8,12.2-2.8l0,0c4.5,0,8.6,0.9,12.1,2.8c3.6,1.9,6.3,4.5,8.4,7.8c2,3.3,3,7.1,3,11.4l0,0c0,4.2-1,8-3,11.4
					c-2,3.3-4.8,6-8.4,7.8C253.6,72.6,249.6,73.6,245.1,73.6L245.1,73.6z M245.1,63.4c3.2,0,5.8-1.1,7.8-3.2c2-2.2,3.1-5,3.1-8.6
					l0,0c0-3.6-1-6.5-3.1-8.6c-2-2.2-4.7-3.2-7.8-3.2l0,0c-3.2,0-5.8,1.1-7.9,3.2c-2.1,2.2-3.1,5-3.1,8.6l0,0c0,3.6,1,6.5,3.1,8.6
					C239.3,62.3,241.9,63.4,245.1,63.4L245.1,63.4z M333.5,30.1h11L329,73h-12l-9.6-26.6l-10,26.6h-12L270,30.1h11.7l10.1,29
					l10.5-29h10.5l10.2,29L333.5,30.1z"/>
			</g>
		</g>
	</g>
</g>
</svg>
